<?xml version="1.0" standalone="no"?>
<!DOCTYPE svg PUBLIC "-//W3C//DTD SVG 1.1//EN" "http://www.w3.org/Graphics/SVG/1.1/DTD/svg11.dtd" >
<svg xmlns="http://www.w3.org/2000/svg" xmlns:xlink="http://www.w3.org/1999/xlink" version="1.1">
<metadata></metadata>
<defs>
<font id="vtportableremingtonregular" horiz-adv-x="1228" >
<font-face units-per-em="2048" ascent="1638" descent="-410" />
<missing-glyph horiz-adv-x="500" />
<glyph horiz-adv-x="0" />
<glyph unicode="&#xd;" />
<glyph unicode=" " />
<glyph unicode="!" d="M813 1026q-8 -2 -8 -16v-23q-12 6 -12 -8v-14h-5q-4 -23 -8 -74q-33 -25 -22 -72q8 -2 8 -14q-2 -20 -2 -25q-18 -76 -12 -172q-29 -12 -21 -67q-10 -2 -12 -17v-22q-10 6 -12 -4q0 -16 -2 -19v-10q-16 2 -39 -20q-51 35 -93 28q0 2 -4 8l-14 -8q-33 10 -41 66.5 t-31 68.5q-2 47 -6 142h-10q0 39 -27 65q-23 55 -45 111q-23 66 -24 127q-23 4 -23 33v51q12 8 23.5 32.5t25.5 32.5q35 82 103 113q115 -8 159 14h23q0 -8 14.5 -7t20.5 -17q0 -8 12 -16.5t10 -18.5q12 -4 21.5 -25.5t23.5 -23.5q39 -45 39 -125q0 -39 -10 -74zM895 272 l-2 -125q-8 0 -10 -6q-2 -4 0 -12q2 -10 2 -12q-2 -2 -11 -4q2 -6 3 -11q0 -4 -10.5 -3t-12.5 -5q4 -16 4 -31q0 -29 -37 -55t-45 -51q-4 2 -26 -6v-6q-20 -2 -27.5 -19.5t-20.5 -19.5h-53v4q-10 4 -20 4q-8 0 -21.5 -5t-21.5 -5q-6 0 -15 2q0 8 -13 8t-9 14q-14 2 -38 19.5 t-46 13.5q-2 12 -19.5 20.5t-19.5 18.5q-27 20 -55.5 41.5t-28.5 54.5q2 -2 6 1t4 7q0 18 -18.5 44t-18.5 45q-4 100 39 120q23 25 80 54q-2 6 15 12q27 55 106 67q74 4 145 9v8q10 0 21.5 6t21.5 6q8 -10 18.5 -21.5t26.5 -9.5q2 -6 9 -8h14q-2 -2 0 -6q4 -4 6 -4q6 2 8 2 q6 0 10.5 -10t14.5 -6q2 -8 2 -56q-2 -35 25 -37q-4 -16 4 -26q12 -19 14 -21z" />
<glyph unicode="&#x22;" d="M979 1122h-8q-2 -10 -4 -55q-23 -33 -23 -49q0 -10 7 -19.5t7 -35.5v-41q-4 0 -14 -11l-2 -22h-6l-4 -60q-10 -6 -11 -29.5t-6 -29.5h-6q-12 -18 -12 -51v-57h-4q-8 -61 -31 -78q2 -10 -6 -15.5t-10 -5.5q-20 -4 -51 -18h-15q-2 6 -8 8q-12 -4 -18 14q-12 -6 -45 -4 q-31 14 -43 39q-33 14 -33 74v31q2 18 2 28q0 37 -12 53q-49 35 -43 89l-5 36q8 0 9 21q-4 8 -25 37q-16 23 -16 43q0 10 4 22q-2 4 -6 4q-8 -12 -7 -36.5t-2 -32.5h-12q-4 -8 -4 -45h-4q2 -37 -14.5 -87.5t-16.5 -74.5q0 -16 4 -35q-4 -2 -12 -2v-16q-12 -23 -35 -70 q-12 2 -37 -23v-6q-18 -6 -34 -6q-41 0 -99 66q-27 96 -12 209q0 6 -9 14t-15.5 14t-13.5 26.5t-17 27.5v14q12 -4 12 22v17q10 -2 10 12v21q-8 0 -8 8v14q-2 6 -12 4q12 6 12 33v45q6 6 10 31.5t13 29.5q4 41 36 64q31 16 64 33l53 4q2 -6 15 -8h10q0 -12 13 -12.5 t28.5 -20t27.5 -19.5q8 0 21 7q0 -4 6 -13q0 8 4 19q14 -4 24.5 11t28.5 11q23 14 66 39q2 16 25.5 14t23.5 13h64q33 0 47 -13q23 -8 39 -8q0 -2 2 -8h16q29 -29 61 -53h13q16 -23 39 -82q10 -19 14 -70z" />
<glyph unicode="#" d="M1229 752v-17q-8 0 -10 -8v-14q-4 -2 -11 -2v-15q-20 0 -55 -25.5t-66 -19.5v4q-8 4 -53 4q-35 0 -45 17q-14 -4 -18 14q0 8 -4 8q-10 -8 -41 -17t-76 -44q-2 -6 -2 -45h-4l-8 -72q-10 4 -12.5 -9t-4.5 -15q12 -14 26.5 -30.5t39.5 -12.5l18 -13.5t21 -3.5q0 -2 4 -6 q18 8 65 19l41 2q-6 -8 8 -11q12 -8 37 -22q0 -12 7.5 -28.5t9.5 -20.5q-6 0 -15 -7v-10q-12 2 -22 -5t-6 -15q-16 -25 -64 -25h-24q-16 2 -25 2q-31 0 -47 -12l-82 -16q-49 -12 -57 -48q-2 -10 -2 -20q0 -12 5 -30.5t5 -28.5t-4 -19.5t-11.5 -21t-3.5 -25.5 q-12 -2 -14 -26.5t-16 -26.5q0 -2 -8.5 -13.5t-6.5 -19.5h-6q-2 -23 -10 -65q-18 -8 -18 -41q2 -49 0 -52q-10 -6 -18.5 -31.5t-20.5 -33.5v-12q-2 -4 -11.5 -16.5t-3.5 -26.5q-10 -2 -16 -24t-19 -22q-4 0 -12 3v-13q-6 -2 -10 -16t-33 -21q-8 -2 -14 -2q-12 0 -24.5 17.5 t-20.5 21.5q0 20 -2 25h-6v28h6q0 23 6 66q10 0 10 12v21q4 16 31 41q4 16 -6 39q6 0 6 26q2 2 26 23q16 12 15 33q10 -4 10 16q-4 25 -16 39q4 29 34 74q6 4 6.5 24.5t4.5 26.5q8 -4 11 7t5 13v13q20 39 14 53q-2 4 -10 35q-6 20 -22 22q0 8 -15 8l-8 2q0 6 -14 7h-10 q-2 4 -13 6h-12q-16 8 -43 30q-4 -4 -4 -12q-10 2 -16 2q-18 0 -33 -16l-27 -25q-2 -10 -17.5 -28.5t-15.5 -34.5q0 -6 2 -17q-12 0 -14 -6q4 -12 -10.5 -22.5t-14.5 -14.5q0 -6 13 -12q-2 -10 4 -24.5t6 -18.5q0 -6 -4 -10q4 -2 6 -13v-14q-14 -4 -14 -29h-6l-9 -122 q-2 0 -10 -7v-10q-16 -10 -18 -34.5t-4 -47.5q-8 -10 -15.5 -22.5t-3.5 -26.5q-25 -25 -31 -61q2 -4 10.5 -15.5t4.5 -21.5q-20 -8 -47 -48t-58 -40q-8 0 -18 4v-10q4 10 -11.5 19t-11.5 20h-8v38q2 23 -12 27v47h8l14 80q2 4 29 37q20 23 14 53q10 0 11 12v19q4 -2 8 -2 t7 10t7 10v17q10 4 8 22.5t2 24.5q10 0 15 6q0 12 -4 14h-8q10 4 20 23.5t16 25.5l-10 9h6q2 20 8 65q6 39 7 60q0 35 -13 63q-12 6 -24.5 11t-12.5 20q-2 -4 -2 -6q-109 27 -145 -7q-2 37 -6 109q76 29 178 23q0 -8 6 -9q27 6 64 33q18 2 43 23q2 0 16 6v20h4q4 4 4 39 q27 35 27 41t-3 14.5t-19.5 19.5t-20.5 21q-68 2 -76 3q-39 4 -61 26l-21 60q2 8 15.5 19t13.5 19q29 23 110 29v4q18 -14 37 -12q20 4 40 11t26 13q16 14 18 31q10 4 27 53q8 -4 14 5.5t8 11.5q0 6 -5 19.5t-5 19.5q0 12 10 16l2 31l7 2q-10 12 -8.5 49t-10.5 47 q0 33 -4 37h-6v39q25 8 25 49v68q0 10 16 21t21.5 18.5t5.5 17.5t-5.5 26.5t-5.5 22.5q0 12 15 21q14 31 57 71l4 15l129 -9q-2 -18 2 -20q-20 -23 -16 -72q4 -61 -2 -80q-12 -8 -17.5 -36.5t-19.5 -34.5q-4 -4 -4 -27q-4 -2 -6 -12v-14q-6 -8 -13.5 -16.5t-3.5 -22.5 q-2 -6 -15 -19.5t-9 -30.5q-10 0 -11 -12v-10q-10 -6 -10 -33q-27 -18 -37 -53q-10 2 -32 8q-2 -4 -5 -27q29 -20 23 -67q-4 -2 -6 -12v-11q-10 -2 -10 -14v-18q-6 0 -7 -11v-12q-2 0 -8 -4q12 -12 23.5 -25.5t29.5 -11.5v-2q6 -4 48 -4q-4 -4 2 -10q43 16 49 16v-4 q6 -4 37 -4q4 -8 6 -8t7 6t9 6q8 12 29.5 26.5t32.5 28.5q12 23 36 78q14 10 15 41q-2 47 0 49q8 0 8 2l2 15q16 12 10 75q-6 -2 -16 19q-6 39 20 47l4 80q10 -2 11 12v10l6 6q0 12 -4 13q-4 10 -4 22q0 33 32 37q0 6 9.5 16.5t9.5 18.5q0 6 -2 12q2 8 21.5 17.5t15.5 27.5 q10 -4 14 3.5t8 13.5v6q10 0 15 4v10q16 0 18 2v6h27q0 -10 4 -10l12 10v-28q-10 0 -10 -15q4 -14 20.5 -30.5t16.5 -32.5q0 -8 -4 -19h-5q-2 -6 -2 -47l-20 -10t-14 -22q-6 -8 -13.5 -17.5t-3.5 -21.5q-8 -2 -6 -15v-22q6 -4 6 -23q-2 -29 0 -32q-10 -2 -14 -26t-17 -28 q6 -23 -15 -37t-15 -34v-13q-10 0 -13 -6v-12q0 -8 -4 -12v-13q-2 -2 -8 -4v-12h-6l-10 -70q-10 4 -16 -6l-7 -10q0 -33 29 -54.5t55 -37.5l6 -4q20 6 42 13t44 3v-4l99 -21q0 -10 16 -10q8 2 15.5 -10t15.5 -14zM748 590q4 16 -7 39q2 14 -15 33.5t-13 35.5q2 -10 -4 -28 q-10 0 -26.5 -9.5t-25.5 -9.5q-8 0 -14 8q-18 -2 -31.5 7.5t-22.5 16.5t-14 34h-43q0 -16 -8 -17q-6 -14 -26 -26q-29 -16 -37 -23q0 -18 -12 -49q-4 -25 6 -61q2 -16 -9 -33q-4 -27 4.5 -59.5t8.5 -51.5q6 -4 25.5 -4t21.5 -12h12q2 -2 4 -6q12 -2 25 -4q20 0 24 10 q8 20 50 61q16 4 36 29q14 6 25.5 24.5t22.5 24.5q0 20 19.5 39t23.5 31z" />
<glyph unicode="$" d="M760 1536v-10l-4 14zM315 1174q12 -2 13 -9q0 -2 -8.5 -12t-4.5 -14l-4 6l-12 -6l-4 6q-4 -2 -4 -15h-10q-2 6 -2 11q0 8 19 13.5t17 19.5zM455 823q-6 6 -6 -4q0 -14 2 -16l-17 -21q-6 8 -6 47q4 6 8 13q-2 16 0 18q-6 4 -8 2q8 8 8 29q-2 29 0 33q23 -50 19 -101z M223 1016q-12 2 -18 -7.5t-12 -15.5v-10l-13.5 13.5t-5.5 15.5q2 6 6 12v18q10 -10 10 11v10q14 0 31 18q12 -12 2 -65zM1157 348l-2 -76h-6q-4 -6 -4 -43q-12 -14 -15 -53q-10 -18 -47 -49v-14q-14 6 -15 -8.5t-7 -14.5q-16 -18 -53 -41q-25 -10 -62 -41q-37 -18 -121 -43 q-18 -12 -59 -26q-4 -2 -4 -23q6 0 6 -8v-14q2 -6 14 -5v-20h-10q-6 -55 -2 -113h10v-20h-10q-4 -8 -4 -33q2 -27 0 -35q-4 -14 -23 -12q-37 -6 -59 -2q-35 8 -35 41q-14 16 -45 39q0 12 15.5 26.5t15.5 28.5q0 8 -4 18h6l4 91q10 0 10 2q0 -2 -10 8q-2 14 -5 31.5t-18 21.5 q0 27 -16 27h-12q-4 6 -6 8q-2 0 -9.5 -8t-11.5 -6v-11q-8 -2 -27.5 -13t-33.5 -9q4 -16 -11.5 -25.5t-15.5 -15.5t10 -17q6 0 9.5 -10t7.5 -12q0 -8 2 -19.5t14 -7.5v-20q-8 2 -12 0q-4 -4 -2 -12.5t-12.5 -21.5t-14.5 -17q0 -6 12 -13q-2 -12 8.5 -17t18.5 -9q-6 2 -11 -3 t-1 -10v-10q-6 0 -15 -6v-10q-12 0 -19 -17.5t-13 -19.5q0 6 -17 41q-2 2 -16 2q2 10 2 18q0 12 -5 31t-5 29t2 20q6 0 6 13v10h4q2 4 4 39h6q0 14 4 41q14 6 17 30v45l-33 27q-4 0 -4 -6q-2 6 -29 8q-4 -8 -14 -8h-12v4q-6 4 -41 4v6q-2 2 -43 2q-29 2 -29 27h-8 q2 27 -21.5 41t-44.5 26q-31 33 -88 101q-4 10 -4 59q14 -4 16 8.5t9 12.5q-6 25 23.5 37t33.5 18q2 27 37 25q63 0 58 -4.5t7 -4.5q23 -6 37 -26l2 -84q0 -51 -30 -64q-2 -8 -2 -16q0 -12 18 -20.5t18 -20.5q0 -6 -4 -16q8 -14 19.5 -27.5t34.5 -9.5q-2 -12 2 -15 q23 4 25.5 46t29.5 45v20q6 -4 6 10v13q14 0 16 4q2 6 -2 16l-14 -10q4 33 -2 69l-12 62q8 0 9 10t7 12q-8 6 -10 26.5t-6 27.5h4q12 25 0 51h-4q10 4 10 22v31q2 -2 8 2v14q0 -10 12 -16q14 -6 25 2q-4 -14 16 -41q-4 -10 -25.5 -17t-15.5 -28q16 -2 25 -18q12 -25 18 -29 l-6 -39q-2 -25 15 -29v-102q-10 -2 -15 -14q-6 -8 1 -15.5t14 -7.5q2 -33 7 -65.5t38 -38.5q10 6 53 0q33 -6 39 18q-14 55 14 78q2 4 16.5 15.5t14.5 23.5q0 6 -2 14l12 -8q8 6 15.5 14.5t5.5 18.5q10 -4 12 -53q0 -35 27 -35q6 0 16 2q-2 -6 10 -6l14 -2q-4 -6 0 -11 q4 -4 13 -2q6 -2 14 6v7q6 -2 12 -2t18.5 8t22.5 8q12 18 17 39q74 12 73 71q0 8 -5 21.5t-5 21.5q0 6 2 15q10 14 21.5 31.5t11.5 37.5q8 4 8 9q0 2 -7 13t-7 19q-14 6 -20.5 49.5t-36.5 45.5q6 12 -9 12h-12q0 25 -4 27t-11 11t-16 9q-4 0 -8 -2v2q-14 6 -24 6t-31 -6 t-35 -6q-16 -16 -22 -55q-12 4 -33 -17q10 -4 10 -20v-27q-4 -2 -10 -4v-12q-10 4 -15.5 -3.5t-9.5 -13.5q-4 -16 5.5 -36.5t6.5 -32.5h11q-2 -6 -2 -9q0 -6 11 -8t11 -8h15l-3 -47q-35 8 -34 -12q0 -6 2 -11v-10q-18 31 -49 35q0 10 -9 12q-2 -2 -6 -2t-6 10.5t-6 12.5 q10 4 10 18v25q12 -4 15.5 11t7.5 20v10h4q6 8 6 33q-2 27 0 34q4 14 25 13v16q4 0 6 2q-27 88 -78 98h-15v4q-4 2 -34 5q-23 0 -27 16q-14 -43 -102 -55q2 10 -15.5 14t-19.5 12q-23 4 -60 27q-4 31 -6 39q-6 18 -24 24h-13q4 14 -10 14.5t-16 4.5q6 10 35 10q43 0 45 2 q4 -4 10 -4t23.5 10.5t29.5 13.5t33 19q-2 -12 11.5 -21.5t13.5 -19.5q2 2 2 6h6q0 -10 8 -26h6q0 -12 2 -13h10q-6 -8 4 -8q2 4 2 6q4 -6 13 -8q6 -2 16 0q12 2 17 2q4 8 25.5 6t23.5 15q4 -4 8 -4t7 11t9 11v14q18 12 58 66q-10 4 -11 20v29q10 0 11 14q-39 70 -33 138 q-27 10 -31 43.5t-6 66.5h-8q4 14 -8 29q-18 16 -22.5 18t-51.5 4q-33 0 -37 -20l-8 -31q-8 -2 -12 -24q-6 -29 -9 -31q-2 -8 -2 -38t-11 -33t-30 -9v-4q-4 2 -22 41q12 10 12 49q-12 0 -23.5 14.5t-21.5 14.5q0 14 -4 16h-2q20 29 6 60q-33 8 -39 8v12q18 -6 19 10 q10 10 21 20.5t9 24.5q10 12 4 64q-10 10 -32 24q-4 8 -5 15q0 10 19.5 22t23 23.5t3.5 75.5q14 8 22 32.5t16 30.5q25 0 29 4v2q6 -16 35 -31.5t35 -27.5q-6 -14 -31 -31l-6 -33q-4 2 -14 -6q0 -8 6 -41q8 2 11 -4t3 -12q0 -14 13.5 -27.5t15.5 -19.5q14 -35 63 -27l6 18h4 q4 10 5 21q0 4 -21 53h-12v21q18 0 28 20q12 29 19 33v12h6q12 25 2 47h-8q0 16 -6 52q41 6 57 -3q-4 -12 2 -14q2 0 14 2t17 -4q-6 -6 4 -6h12v-8q-2 0 -10 -6q2 -2 10 -2v-11q-10 0 -10 -14q4 -27 49 -80q-2 -37 -2 -72q0 -41 25 -51q0 -18 14 -25.5t29 -13.5v-12 q20 -6 65 -20q4 -2 12.5 -17.5t20.5 -13.5q0 -4 16 -31h9q2 -12 28.5 -23.5t24.5 -27.5t15.5 -24.5t19.5 -18.5q27 -10 26 -49q6 -2 8 -25q0 -12 9 -12v-10q-10 0 -10.5 -8.5t-8.5 -13.5t-8 -11q0 -4 2 -8q-14 -8 -19.5 -39t-21.5 -37l-6 6q-6 4 -11 1t-143 -21q0 10 -10 10 q-8 -4 -12 0q-4 6 -8 10q2 20 -10.5 39.5t-14.5 30.5q-16 -16 -31 -13q0 10 -2 13q-4 -6 -16 -18.5t-12 -22.5q0 -27 16 -19v-14q-12 0 -16 -14q-2 -10 0 -25q-4 20 -4 -68q0 -35 28 -38q61 8 58 -21q18 0 53 -8q0 -10 6 -11t21.5 -19.5t35.5 -16.5q0 -8 4 -8q4 -2 13 0 q10 2 12 2q0 -10 14 -11q31 -18 60 -34q35 -23 39 -58q2 -16 18 -49t16 -57q0 -10 -2 -23q14 -4 18.5 -22.5t14.5 -22.5zM780 993q0 20 -4 21q0 -10 -13 -10t-13 -5q14 2 30 -6z" />
<glyph unicode="%" d="M1264 1520q4 -10 4 -21q0 -10 -7.5 -29.5t-7.5 -27.5l-18 -10v-15q-10 0 -10 -6q-6 -14 -36 -42t-34 -50q-14 -4 -27.5 -29.5t-21.5 -32.5v-10q-23 -33 -51 -51q-14 -6 -28.5 -14t-16.5 -27q-10 -4 -16.5 -25.5t-18.5 -25.5q-18 -25 -43 -88q-6 -4 -6 -27q-2 -8 -4 -14 q-12 0 -14.5 -6t-25 -25.5t-20.5 -40.5q-4 -2 -6 -10q-12 -18 -43 -36.5t-41 -31.5q0 -8 -6 -22q-12 2 -31 -19q0 -6 -11 -12t-13 -10q6 -4 0 -24.5t0 -30.5q-10 0 -9.5 -10.5t-10.5 -16.5t-11 -12q0 -4 2 -9q-6 -16 -14 -41q-4 -4 -43 -6q-27 0 -27 -24q-10 47 -6 61 q8 0 8 15.5t17.5 29t17.5 27.5q4 -2 8 -2q6 0 10 12t9 14l2 17q20 -4 29 21.5t26 21.5q12 12 12 43v47q4 25 23 35q-8 12 -9 22q0 16 25 32.5t25 27.5q0 10 -17 26q12 12 33 68q14 45 51 51q-2 6 10.5 13.5t8.5 21.5h2q2 23 5 48.5t27 23.5v12q10 0 13 4q-8 -2 -21.5 14.5 t-19.5 16.5t-13 -17l-10 11q-10 -20 -37 -23h-49q0 2 -8 10q-4 -10 -27.5 -9t-25.5 -11q-12 -4 -40 0t-38 0q-14 -6 -12 -33q8 -8 12 -34.5t14 -30.5q-2 -10 5.5 -22.5t7.5 -18.5q0 -4 -2 -11q-8 2 -8.5 -9t-2.5 -11q-41 -2 -43 -51v-86q-16 -2 -32.5 -19.5t-30.5 -17.5 q0 -14 -6 -41q-16 -2 -35 -17q-27 -18 -31 -20q2 -18 -9 -30.5t-22 -24.5q-4 10 -18 10h-20l4 45q25 -6 59 20v35q6 -4 6 10v13q29 0 29 37q0 49 4 55q10 -2 11 8t3 21q-4 8 -2 49q4 31 -18 39q-2 12 -17.5 23t-33.5 40q-10 -10 -42 -17t-44 -20q-59 4 -121 -86 q-8 2 -12.5 -7t-12.5 -9v-6q-12 -2 -26.5 -18.5t-24.5 -18.5q6 -31 -14.5 -70t-20.5 -55q0 -20 12 -41q6 -16 31 -33q39 -23 41 -24q4 -18 25 -43q-2 -6 16 -21h10q0 -14 2 -16h9q-20 -10 -15 -21q-20 -8 -53 -6h-57q-12 10 -26.5 21.5t-10.5 33.5q-16 0 -22.5 35t-35.5 31 q4 12 -4 29.5t-8 29.5q-16 0 -17 15.5t-3 31.5q2 4 24 19q16 12 10 29q6 0 7 8q0 12 -2 14h-5q0 8 13.5 15.5t13.5 13.5t-2 10q4 0 10 8q-10 4 -10 23q0 29 0 28q10 0 10 15v10q8 -2 13 -2q14 0 15 24.5t7 28.5q25 35 59 60q8 4 39 24q20 16 44 14t87 19q8 4 21 14 q61 -4 178 8v7q29 4 60.5 8t46.5 20q14 -2 26.5 10.5t28.5 10.5q31 23 57 30q37 31 115 84q47 20 49 23q27 14 33 39q2 0 14 6q6 2 5 13.5t16.5 24.5t17.5 28l6 -3q6 0 11.5 12.5t9.5 12.5q53 20 55 21q-2 12 10 14h19q-2 -14 15 -14t22 -5h10q0 -10 14 -10q31 -8 45 -43 q9 -34 19 -67zM1214 362h-4q-4 -8 -4 -40q-12 -16 -28 -41q-2 -29 -17 -80q-14 0 -14 -16.5t-4 -20.5v-14q-6 4 -10 4q-8 0 -10.5 -16.5t-4.5 -18.5q-2 -14 -19.5 -30.5t-21.5 -22.5q-8 2 -30 -21v-10q-18 0 -23.5 -13.5t-24 -20.5t-20.5 -21q-20 2 -23 -3l-65 -10v-6 q-4 -2 -8 -2q-6 0 -9 8v15q-2 4 -18 4q0 14 -2 16h-14q0 18 -4 21q12 2 29.5 39.5t49.5 35.5q-2 12 12.5 14.5t8.5 16.5q25 6 43 44t45 40q-2 25 8 73t10 68q0 39 -24 62q-2 18 -39 30q-16 0 -40 -19t-42 -19q-6 0 -16 2q-2 -20 -31 -26.5t-35 -14.5q-53 -14 -78 -54h-4 l-4 -67l-14 6q4 -12 -9.5 -19.5t-11.5 -21.5q-14 0 -21 -3t-5 -13l-2 -56h-11l2 103h11q0 -12 2 -13q2 6 10 15.5t4 21.5q6 2 8 6v15h21q14 18 2 41q-16 31 -17 32q0 10 23 19q2 6 18 18q10 10 11 21q0 6 -2 12q10 4 26 37q14 27 39 27q8 0 18 -2v6q12 0 13.5 6t18 13 t16.5 18q31 10 62.5 21t66.5 11v4h51q-6 -10 10 -12q20 -12 72 -31q4 -12 10 -26.5t23 -11.5q-2 -8 6 -21q6 -18 28 -37q6 -64 6 -72zM569 608zM543 516v-20h-6v20h6zM532 438q-18 -4 -24 -28q-12 4 -15.5 -8.5t-9.5 -12.5v-16q-14 4 -14 -17h4v-14h-4q0 18 -16 49 q10 2 10 15v18q8 2 8 14v21q4 -2 10 -2q4 0 11.5 5t11.5 5t8 -2q-5 -15 20 -27zM383 217h-4l-10 -102q-12 -16 -35 -41q-2 -14 -8 -41q-6 0 -5 -10.5t-4.5 -14.5t-13.5 -3t-18 -3q4 -8 -1 -10l-10 -4h-14l-4 -58q-10 -2 -14 -22.5t-25 -18.5q0 -14 -17.5 -26.5t-19.5 -24.5 q-8 10 -35 21q-6 27 16.5 54.5t25.5 35.5t34 12q25 4 23 25q0 16 -4 20l-7 51h-10q14 0 15 31q8 0 9 12.5t6 15.5t54 81q6 -2 10 -2q8 0 18.5 9t18.5 10t8 13v19q2 8 15 8q8 -2 6 -14q-2 -21 0 -23z" />
<glyph unicode="&#x26;" d="M1247 602v-24q-8 -16 -33 -37q0 -16 -22.5 -25.5t-26.5 -13.5v-10q-16 0 -35.5 14t-31.5 16q2 25 -18.5 44.5t-20.5 37.5l-53 31l-27 -41q-14 -25 -35 -29q-23 -29 -45 -57.5t-31 -61.5q-20 -8 -24 -32v-37q-10 2 -12.5 -9.5t-6.5 -11.5v-14h-2q-6 -12 -6 -23 q0 -10 5 -28.5t5 -28.5t-2 -20q-8 -2 -8 -15q2 -14 0 -16q-4 0 -12 -6q2 -4 12 -4q-4 -10 -4 -17q0 -10 17.5 -21t19.5 -20l20 -2q6 0 18.5 -13t20.5 -13q4 0 7.5 2t68.5 10q0 -2 8 -10q47 6 74 43q0 25 35 51q12 14 57 31q2 -8 17 -9h20q-4 -12 4 -19t17 -15h8l-6 -70 q-16 -10 -17 -61q-8 -2 -7 -22.5t-9 -20.5q-4 0 -12 2q-2 -12 -24 -20.5t-24 -18.5q-25 -10 -82 -23v2q-4 4 -38 4q2 6 -15 9h-14q0 2 -2 10q-6 -8 -21 -10q-25 0 -24 0q0 10 -12 10h-15q-29 23 -53 30q-12 6 -23.5 29t-23.5 29q4 16 -5.5 23.5t-19.5 15.5t-35 8 q-10 0 -26 -2h-27q-47 0 -43 39q2 2 8 2q2 23 -12 51.5t-14 46.5q0 10 4 25q6 0 6 14q8 10 20 37q8 -2 17 -2q12 0 39 39v51q2 29 24 35l4 28q10 2 11 15v18q4 2 6 6v15q6 4 8 14v8h6q0 14 4 41h4q-4 10 -4 19q0 27 42 44t36 52q16 27 51 49q31 16 62 35l82 -2 q23 -20 63 -35q4 -4 10 -6q27 -16 78 -55q0 -16 12 -48q8 -22 33 -57zM811 1077q-8 -8 -8 -30v-35q-12 -16 -24.5 -38t-26 -44.5t-13.5 -48.5q-4 0 -12 -7v-10q-10 0 -10 -4v-8q-12 0 -16.5 -17.5t-12.5 -19.5q-23 -6 -46.5 -34.5t-37.5 -37.5q-68 10 -72 -18 q-27 -12 -28 -84q2 -2 14 -23q6 -12 21 -12l-2 -16q-6 -12 -13.5 -24.5t-3.5 -26.5q16 -6 43 -35h8l-2 -53h-6v32q-4 4 -41 4q-12 12 -49 25q2 6 -4 16h-10q-2 6 -19 31q-10 14 -8 35q-31 47 -59 41q-2 -4 -21 -4q-2 4 -4 10q-4 -10 -30.5 -21.5t-26.5 -29.5q0 -6 2 -15 q-29 -6 -53.5 -49t-51.5 -45q-6 0 -14 -6v-8q-8 2 -12 -6t-4 -10q0 -12 -16.5 -21.5t-14.5 -21.5q-6 8 -12 8q-4 0 -12.5 -7.5t-10.5 -5.5v39q8 -4 12 0t2 9v14q6 -4 7 10v14q10 0 11 11.5t1 21.5q4 4 20 33q14 18 33 20q-2 8 8.5 19.5t10.5 15.5q33 8 66.5 20.5t37.5 45.5 q10 0 14 6v10q8 -2 13 -2q14 0 16 23.5t8 29.5q-6 6 -8 43q-2 31 -27 31q0 37 -4 41h-10q6 29 -15.5 54.5t-17.5 48.5h4q4 16 5 32q0 16 -7.5 50t-5.5 57q-12 2 -12 22l2 35q29 18 25 37q4 2 6 10q18 33 69 94q51 20 183 25l4 14q14 -10 86 -14q61 -4 76 -33 q6 -18 29.5 -42.5t29.5 -41.5q18 -43 47 -129zM637 381q-4 -2 -6 -6q-6 -6 2 -10h4l-6 -11q-10 2 -12.5 22.5t-14.5 20.5q-4 0 -10 -2v35h6q-2 -4 -2 -8t11.5 -7t11.5 -9q6 6 4 10q2 -2 4 -25q0 -10 8 -10zM627 49q-14 -8 -31.5 -19.5t-36.5 -9.5q-68 -25 -133 -18v2 q-14 6 -27 6q-10 0 -29.5 -5t-29.5 -5t-18 2q0 10 -15 10q-6 0 -16 7.5t-15 7.5q-4 0 -8 -7h-57q-10 61 -10 46h-17q0 16 -10 16q-16 -4 -25.5 16.5t-29.5 18.5q6 14 -7.5 25.5t-11.5 21.5q-4 -2 -10 -4l2 26q0 23 -12 25q2 8 -5 12t-7 8h-15v48q51 4 72 -31l-2 -53 q-2 -31 10 -45q8 4 14 4q8 0 10.5 -15.5t10.5 -15.5q6 0 12 2q2 -6 4 -19q27 -10 37 -8v-10l94 -4q4 -8 28 -11t26 -14q10 6 43.5 14.5t42.5 22.5q55 -4 166 2zM621 1069q-20 4 -54 31q-6 23 -45 22q-63 0 -59 -2q-25 -8 -47.5 -40.5t-42.5 -41.5q-4 -16 -4 -28 q0 -37 43 -82q4 -14 -11 -33v-10q6 -2 8.5 -17.5t12.5 -13.5q4 -41 63 -72q16 -8 17 -10l20 16q-8 51 43 109q2 12 35 43q25 25 16 57h5v72z" />
<glyph unicode="'" d="M813 1026q-8 -2 -8 -16v-23q-12 6 -12 -8v-14h-5q-4 -23 -8 -74q-33 -25 -22 -72q8 -2 8 -14q-2 -20 -2 -25q-18 -76 -12 -172q-29 -12 -21 -67q-10 -2 -12 -17v-22q-10 6 -12 -4q0 -16 -2 -19v-10q-16 2 -39 -20q-51 35 -93 28q0 2 -4 8l-14 -8q-33 10 -41 66.5 t-31 68.5q-2 47 -6 142h-10q0 39 -27 65q-23 55 -45 111q-23 66 -24 127q-23 4 -23 33v51q12 8 23.5 32.5t25.5 32.5q35 82 103 113q115 -8 159 14h23q0 -8 14.5 -7t20.5 -17q0 -8 12 -16.5t10 -18.5q12 -4 21.5 -25.5t23.5 -23.5q39 -45 39 -125q0 -39 -10 -74z" />
<glyph unicode="(" d="M846 1405q-23 -27 -25 -27q-10 -18 -14 -39q-2 -2 -53 -73q-39 -68 -78 -92q-4 -12 -4 -72q-8 4 -10 -2q-6 -12 -7 -15v-10q-2 0 -8 -2v-14q-10 0 -12 -39q-2 -8 -4 -14q-12 2 -20.5 -9.5t-14.5 -15.5t-6 -45h-4q4 -25 -12.5 -50.5t-12.5 -49.5h-10q2 -25 -4 -62 q-8 -43 -8 -57q0 -20 8 -39l-4 2q-12 -27 0 -45q4 -2 2 -21h-2q-12 -27 0 -55q-2 -45 4 -135h10q-10 -106 29 -215q-6 -27 6 -62q14 -41 14 -55q0 -18 -10 -37q12 -8 27 -32q33 -8 44 -63.5t46 -61.5q4 -16 8 -52q20 -16 70 -94q2 -16 16 -37.5t14 -36.5q0 -10 -4 -22h-4 q2 -29 -14 -68v-16q-20 0 -23 -4v-10h-47q-31 0 -33 18q-14 -2 -22 9.5t-15 15.5q0 23 -4 26q-12 12 -43 31q0 14 -16 36.5t-18 37.5q-12 -4 -13 12q0 10 -12 8q0 14 -2 17h-10q-8 6 -8.5 26.5t-3.5 24.5t-11 8q0 31 -24 55q-2 43 -35 108.5t-35 108.5q-12 14 -12 45 q0 8 2 27v25q0 43 -23 55l-4 143q-29 14 -20 109q12 -2 12 10t8 12q-6 2 -20 6q4 12 -4.5 31t-4.5 31h2q12 43 9 121q-4 88 2 123h10q6 25 0 51h-10q2 4 2 20q-2 18 0 25q2 10 16 8q0 33 21 84q6 18 4 64q10 0 10 16v12q6 -4 11 3l5 7q-2 8 9.5 13.5t11.5 7.5l4 86 q18 16 45 59q4 6 15.5 37t31.5 35q2 6 22.5 20.5t18.5 32.5q-2 6 -2 11q0 12 17.5 26t19.5 29q16 4 30.5 20.5t36.5 48.5q12 -4 30 3.5t30 3.5l31 -25q-2 -12 13 -23.5t11 -25.5q11 -27 31 -82z" />
<glyph unicode=")" d="M807 647h-4q-14 -51 2 -72q-2 -2 -8 -4q8 -14 8 -26q-10 0 -10 -17v-12h-2q0 -47 -13 -127q-6 -2 -8 -8l-2 -10h-2q-4 -8 -4 -54h-4l-6 -96h-4q-10 -20 -6 -63t-3 -60q-12 -12 -21 -31.5t-19.5 -34t-23.5 -27.5t-7 -36h-4q-2 -8 -4 -53q-14 -14 -29 -57h-6q-4 -6 -4 -39 q-4 2 -11 -4v-11q-12 4 -14 -6q-2 -16 -6 -18v-10q-4 -2 -6 -11v-8q-33 -18 -47 -76q-16 -14 -50 -45q-33 -4 -40 -28l-3 -17q-4 -2 -6 -8v-14q-2 0 -10 -2v-15q-4 10 -20 11h-27q-14 2 -23.5 15t-15.5 15q0 14 -8 36t-8 32t4 20q4 2 8 19.5t14 19.5q-2 20 18.5 40t18.5 40 q4 4 6 15v8q0 2 15 18q6 10 2 25q10 0 10 12v14q10 6 18.5 30t13.5 34t25 43q18 27 17 51h10q8 10 6 61q-2 41 25 46v12h6q4 41 6 47q6 25 20 39v12h4l11 160q25 2 24 37q-2 53 0 55q10 0 11 8q2 2 2 16.5t4 18.5q-4 29 -4 86t-5 86h-6v102q-2 59 -34 78q-25 39 -25 113 q4 27 -12.5 62.5t-18.5 56.5q-27 18 -61 76q-2 0 -2 6q-4 0 -29 34q-12 68 -45 97q-10 4 -10 18v27q10 2 10 12v21q14 0 19.5 11l11.5 23q-18 25 -13 45q4 10 22.5 18.5t23.5 20.5q2 -8 19 -13t19 -13q20 -8 47 -37t37 -35q2 -14 15 -20q20 -10 24 -13q-2 -2 8 -22l11 -11 q2 -16 18 -36q6 -51 27.5 -103.5t42.5 -101.5q0 -20 4 -23q12 -2 16 -23.5t15 -23.5q12 -16 10 -69.5t14 -69.5q4 -16 7 -47t5 -47q4 0 5 -17h-5q-8 -14 -8 -28q0 -10 14.5 -36t8.5 -50z" />
<glyph unicode="*" d="M1032 666q-20 12 -63 9t-60 3q-25 -10 -49 10q-12 8 -17 36t-18 38q-37 29 -84 29q-16 0 -22 -9q-37 -47 -14 -118l6 -5q25 -18 14 -79l-8 -9q-10 -12 -20.5 -43.5t-20.5 -46.5q-16 -23 -55 -2q-12 -6 -27 -6q-27 0 -57 25q-23 18 -23 55v22q2 16 2 25q0 33 -20 51 q12 4 20 13q10 16 8 43q-2 55 -4 47l-22 22q-20 14 -45 8q-29 -72 -111 -100l-8 6q-16 14 -58.5 5t-60.5 20q-20 2 -57 16q-6 6 -6 14q0 18 27.5 54.5t90.5 89.5l38 23q38 22 57 22q20 0 24 -25l31 2l10 11q6 8 6 18q0 20 -21.5 54t-39.5 42q-10 4 -37 1t-40 7.5t-52 47 t-62 53.5l-20 20l8 9q10 12 19.5 40.5t17.5 40.5q6 6 55 20.5t60 10.5q43 23 69 12q8 -47 47 -67q47 -25 64 -57l20 22q-16 16 -16 35q0 14 16.5 44t16.5 44q0 20 -27 37l18 18q31 39 23 80q25 14 78 12t78 9q55 -43 49 -86l6 -5q12 -10 10 -55q-10 -4 -16 -12 q-12 -14 12 -55l33 -21q-8 -25 10 -39q41 -33 62 -33q23 0 51 37q6 6 7 21.5t7 22.5t19 7q10 0 45.5 -12t58.5 -12t39 10q6 -20 12 -59l-6 -10q-12 -12 -39 -87q-6 -4 -59 -24q-37 -14 -49 -37q-16 0 -33 2q-16 0 -23 -14l-35 -10q-8 -8 -21 -21.5t-5 -69.5l6 -4 q8 -8 32.5 -3t35.5 -3l4 -4q8 -39 28 -55q10 -6 41 -6q14 0 39 -15.5t37 -15.5q14 -18 14 -35q0 -18 -14 -37.5t-14 -29.5q-2 -25 -2 -27q-5 -12 -21 -12zM782 1192q-10 8 -18 8q-14 0 -37 -26q-14 -20 16 -46q35 0 50 19q18 22 -11 45zM684 1044q2 16 -6 19l-10 -19 q0 -2 2 -4q6 -4 14 4zM797 944q8 12 -4 23q-10 2 -27 18q-8 -2 -25 6q-18 -12 -32.5 0.5t-26.5 24.5t-27 12q-12 -14 -39.5 -14t-34 -7.5t-8.5 -17.5q6 -8 5.5 -31.5t8.5 -30.5t19 -7q16 0 34.5 15t27.5 15q10 0 37 -18l6 -6q68 -5 86 18z" />
<glyph unicode="," d="M889 213q-8 0 -8 -14v-15q-12 0 -15 -4q0 -6 8 -16h7v-111q-8 4 -13 0q-6 -4 -2 -10q2 -4 2 -6q0 -6 -13 -9t-13 -12q-51 -27 -41 -104h-4q0 -4 -4 -51q-2 -31 -25 -37v-8q-10 0 -22.5 -21.5t-30.5 -19.5q-4 -4 -29 -39q-14 -23 -39 -23q-12 -4 -35.5 -21.5t-48.5 -17.5 v-6q-6 -8 -25.5 -9t-27.5 -9v-10h-10q4 8 -6 18q-10 -4 -19 -4q-10 0 -20.5 16.5t-20.5 16.5q-6 0 -14 -4q2 6 -4 12h-10q-4 10 -5 20q0 14 20.5 29.5t27.5 30.5q10 -2 14 6q2 10 0 20q23 23 57 78q4 2 6 10v15q12 0 15 2q-25 53 -47 65q-29 16 -84 45q-14 16 -43 43 q0 10 -8.5 19.5t-8.5 15.5q0 4 4 10q14 14 15 54q-43 18 -56 47q18 31 39 59q25 39 19 84q25 2 57.5 36t63.5 36q2 25 30 26q41 2 45 5v6q-6 2 62 2q35 0 41 -27q-4 -10 7 -12t13 -6h10q0 -6 9 -6q14 20 49 6q14 -18 59 -49q20 -33 57 -107h9q-4 -6 -4 -10q0 -6 6 -14.5 t6 -12.5t-2 -8z" />
<glyph unicode="-" d="M1165 596v-45h-8q-6 -16 -6 -88q0 -57 -23 -74q-23 -27 -55 -80q-23 -2 -50.5 -23.5t-49.5 -21.5q-10 0 -23 4q-4 -2 -4 -16q-6 -4 -26.5 -3t-22.5 -7l-8 8q-10 -12 -35 -10q-18 2 -39 2q0 2 -41 8q-8 2 -12 4q-53 -29 -88 -21q-8 10 -31 19q-39 4 -100 -6q-12 14 -45 12 h-56q0 12 -4 16q-8 -16 -39 -16q-55 0 -49 2q-16 8 -41 37q-39 25 -78 2v-12h-22q-20 25 -80 32q0 8 -12.5 9.5t-14.5 5.5q-16 23 -22 63l-10 68h2l6 86q16 0 22 14q14 29 17 31q14 0 32.5 18.5t36.5 18.5q43 45 146 57q25 -27 65 -39q0 -18 4 -20q2 12 19 12q27 0 26 0 q23 45 93 51h125v-4q16 -8 30 -8t44 15.5t55 11.5q8 0 24 2v-4q12 -2 29 -2q23 0 66.5 8t62.5 8q47 0 76 -31q43 -8 49 -51q24 -14 65 -43z" />
<glyph unicode="." d="M895 272l-2 -125q-8 0 -10 -6q-2 -4 0 -12q2 -10 2 -12q-2 -2 -11 -4q2 -6 3 -11q0 -4 -10.5 -3t-12.5 -5q4 -16 4 -31q0 -29 -37 -55t-45 -51q-4 2 -26 -6v-6q-20 -2 -27.5 -19.5t-20.5 -19.5h-53v4q-10 4 -20 4q-8 0 -21.5 -5t-21.5 -5q-6 0 -15 2q0 8 -13 8t-9 14 q-14 2 -38 19.5t-46 13.5q-2 12 -19.5 20.5t-19.5 18.5q-27 20 -55.5 41.5t-28.5 54.5q2 -2 6 1t4 7q0 18 -18.5 44t-18.5 45q-4 100 39 120q23 25 80 54q-2 6 15 12q27 55 106 67q74 4 145 9v8q10 0 21.5 6t21.5 6q8 -10 18.5 -21.5t26.5 -9.5q2 -6 9 -8h14q-2 -2 0 -6 q4 -4 6 -4q6 2 8 2q6 0 10.5 -10t14.5 -6q2 -8 2 -56q-2 -35 25 -37q-4 -16 4 -26q12 -19 14 -21z" />
<glyph unicode="/" d="M1290 1415l-2 -26q-12 0 -12 -17q0 -23 -5 -23.5t-5 -9.5l-2 -10q-8 -14 -37 -37q-2 -10 -17.5 -23.5t-11.5 -33.5q-2 0 -10 -2q0 -12 -18.5 -20.5t-18.5 -24.5q-14 -20 -41 -70q-29 -37 -33 -55q-16 -12 -36.5 -47t-34.5 -47q4 -20 -15.5 -34.5t-19.5 -27.5q0 -6 4 -16 q-10 0 -10 -10v-13q-4 -18 -41 -41q-29 -29 -111 -157v-21q-6 -4 -8 -10q-4 -35 -49 -62.5t-51 -52.5q-10 -2 -17.5 -18.5t-13.5 -18.5v-10q-10 -10 -21 -71q-16 -8 -32.5 -34t-28.5 -34q-4 -18 -25 -41q4 -14 -9 -21.5t-11 -19.5q-10 4 -17 -6l-8 -10q-4 -8 -4 -54 q0 -35 -14.5 -41t-21.5 -38.5t-25 -34.5q-4 -6 -22.5 -23.5t-16.5 -34.5q-8 -4 -74 -12q-47 -6 -61 -31l8 -14q-2 -6 -17.5 -9t-15.5 -14h-31v54q6 27 35 30v7q18 -2 41 10h12q0 -6 4 -10q18 37 19 47l-19 10q-2 -2 -2 -6q-4 2 -8 6q-6 4 -10 -2v-4l-20 18q4 8 21 24.5 t17 33.5q0 8 -4 16q6 2 9 10v10q8 -2 30 21v47q18 20 66 68v6q14 0 20 12t11 25q0 41 20 45q4 10 23 39q16 23 12 47q18 8 35.5 33.5t23.5 31.5q4 -2 6 -4l11 27q10 16 22 55h6q4 4 4 41q8 0 10.5 11.5t4.5 15.5q8 -4 10 2l6 14v31q4 -2 8 -2q6 0 13.5 13t10.5 16t10 4 t8 7.5t10.5 20.5t5.5 29q27 20 30 22q16 18 21 37q8 -2 12 2t2 8v15q16 6 28.5 33.5t26.5 35.5v19q4 18 25 49q-6 10 -13 20.5t-3 24.5q25 10 46 26.5t40 71.5q2 -2 6 0q4 4 4 6v15q10 2 21.5 21.5t23.5 25.5q2 2 4 16q12 -6 27 21v16q10 4 15 27.5t24 23.5q14 23 36 74 q6 2 9 6q12 29 71 56q14 0 31.5 13t17.5 17l21 -10q4 -14 19.5 -24.5t19.5 -22.5q-6 -2 -8 -12q0 -16 4 -17q0 -20 20 -45zM246 -219l-2 -92q-12 -16 -47 -49q-23 -16 -21 -29q-8 -16 -29 -39q0 -20 -22.5 -36.5t-18.5 -41.5q-10 0 -14 -4q-18 -18 -51 -61 q2 -14 -20.5 -16.5t-22.5 -14.5q0 -4 2 -12q-6 2 -16 -2q2 -6 2 -9q0 -6 -11.5 -8t-11.5 -4q-12 0 -12 16v25q-2 10 -14 10q6 12 -10.5 20.5t-16.5 12.5l-8 2q-10 23 -6 49q8 0 8 15q-2 6 11 16t26 45q18 20 41 78q8 -4 8 10v12q8 -4 12 6l4 11v10q8 8 23 39q12 25 32 29 q2 4 5 6q-2 6 0 8q41 4 57 -4q0 -18 4 -21q10 10 27 11q2 -4 4 -11l24 35q14 20 37 19l6 6q8 0 7.5 -18.5t13.5 -18.5z" />
<glyph unicode="0" d="M1122 565q-8 -20 -22 -59q-14 -6 -21.5 -29.5t-19.5 -27.5q-2 -16 12 -35t14 -33q0 -8 -28 -64l-4 -57q-10 2 -13 -6l-4 -14v-15q-8 0 -8 -2v-10q-12 0 -17 -16.5t-10 -18.5q-96 -92 -143 -143v-12q-29 4 -49 -15q-31 -27 -39 -29t-27.5 -11t-37.5 -5q-2 2 -3 10 q-23 -12 -28 -10q4 2 -2 10q-6 0 -10 -6q4 -12 -8.5 -14t-12.5 -6q-45 -10 -78 -6q-4 4 -10 6q-20 29 -51 28v2q-12 0 -39 5q0 2 -4 6q-25 12 -53 51q-10 -2 -17.5 2t-3.5 16q-23 27 -80 72q-14 -2 -23.5 13.5t-18.5 20.5t-14 29.5t-11.5 28.5t-8.5 35q0 8 -3 13t-5 61 q-2 41 -18 47q6 0 10 10v10q10 -2 10 17q2 6 -2 16q-6 0 -31 35q8 29 -20 63l4 291q8 2 14 12v11h2q4 6 5 41q10 0 10 14q0 8 14 22.5t10 32.5q6 -2 7 11v14q14 -6 14 20v13q6 -4 10 0q4 6 0 10q2 14 20.5 28.5t20.5 24.5q6 -2 10 -2q6 0 12.5 9.5t8.5 9.5q2 6 -2 14h-8v14 q2 10 18 21.5t20 17.5q4 16 21 31l30 20t13 13l12 13q13 13 27 40q25 10 78 24q0 -8 2 -8q20 8 61 7t58 3q2 12 22 13q29 -2 33 0q14 -25 65 -25q20 -6 45 -35q12 -12 43 -22q-2 -10 21 -31q8 0 16 -13t21 -11q20 -39 55 -123q14 -4 28.5 -25.5t24.5 -26.5q0 -14 15.5 -25 t11.5 -28q23 -4 24 -33q0 -23 -2 -45q-18 -20 -16 -30q12 0 16 -11q8 -16 11 -16q4 -27 6 -86q-8 0 -10 -6v-14q2 -12 2 -17q30 -21 28 -125zM993 745q-4 20 -43 64q-31 37 -26 76h-6q-4 4 -5 26q0 6 -18 35q-4 31 -33 62q2 16 -18.5 33.5t-22.5 33.5q-16 2 -31.5 23.5 t-31 21.5t-13.5 10l-81 5v2q-14 0 -37 4v8q-10 2 -21 2q-23 0 -47 -14q-31 -18 -41 -21q-2 -4 -45 -67q0 -20 -10 -11q-14 -25 -51 -69q2 -20 -19.5 -35.5t-21.5 -32.5q-4 -4 -25 -33q4 -18 -10 -37q4 -10 8 -104q0 -27 8 -41l-8 -8q4 -12 -4 -25.5t-10 -21.5 q-25 -20 -17 -76q8 -66 -2 -88h-2l-2 -57q14 2 26.5 -9.5t18.5 -18.5t15.5 -17.5t7.5 -20.5q20 -4 20 -37q2 -41 6 -47h7l6 -82h71q27 -25 43 -72q10 0 21.5 -15t24 -15t38.5 -8v-2q16 4 30.5 -4.5t29.5 -14.5q8 18 37 29q37 12 45 20q16 18 55 47q-6 31 10 54 q4 18 20.5 36.5t20.5 28.5q-2 10 4 14l13 13q0 16 12 29.5t12 23.5q23 10 21 51q-4 51 3 65.5t19 20.5l8 209q10 8 20.5 29.5t20.5 27.5z" />
<glyph unicode="1" d="M1055 59q12 -55 -7.5 -58t-45 -20.5t-44.5 -19.5h-141q0 6 -10 6h-14q-2 6 -11.5 8t-11.5 9q-10 0 -29.5 -7.5t-29.5 -7.5q-12 0 -23 8q-37 2 -96 -8h-14v4q-16 2 -46 7q-2 2 -4 6q-16 0 -50 -11.5t-56 -9.5q-12 16 -64 17q-8 -8 -33.5 -8.5t-35.5 -4.5v-4h-13 q-10 37 -45 47q-6 16 -26 41v103q47 4 67 24q16 0 64 21h8v-6q84 -20 115 28q12 20 12 76q10 16 31 45q12 18 0 37h-6l2 80q18 6 39 39q2 -2 6 4l-15 26q35 33 35 39q0 8 -6 17q-47 82 -51 162h-6v20q29 29 10 76q0 4 -8 4v47q29 23 24 82q-6 0 -9 14.5t-15 12.5 q2 14 -5.5 30.5t-7.5 28.5q-12 8 -20 29.5t-18.5 25.5t-63.5 6q6 12 -16 13q-6 0 -17 -2v-11h-6q4 12 -16 15h-10q-4 6 -27 6q-8 0 -9 6t-11.5 9t-12.5 5q-8 4 -8 23v26q-4 16 -25 15q0 14 -2 16h-10v21q8 -4 12 0t2 12v10q6 2 56 2q33 0 43 23q20 20 63 20q0 -10 15 -10h8 q16 -16 51 -10v-10l141 -7q4 -8 23 -8h4q14 0 20 -4q12 -10 25.5 -20.5t13.5 -24.5q16 -31 17 -90q0 68 -2 -98q-6 -2 -7 -13q14 -33 9 -77q-2 -31 -4 -64q-2 -41 16 -55v-19h-6q-12 -49 -2 -96h6v-59q-10 -10 -14 -39q-4 -35 -11 -45q-18 -6 -32 -35q6 -6 8 -27.5t14 -23.5 q-4 -18 4 -39q10 -29 12 -33q-27 -51 -2 -104q-8 0 -6 -13v-20q0 -18 23 -43q-2 -6 -2 -15q0 -16 26 -45q6 8 26.5 8.5t27.5 4.5v4h14v-4q14 -6 31 -6q12 0 36.5 5t38.5 5q12 0 23 -2v-4q4 -2 49 -2q2 -8 6 -11h15q37 -16 45 -55q-2 -23 2 -70z" />
<glyph unicode="2" d="M1108 879q-18 4 -29.5 -8.5t-19.5 -27t-8 -50.5q2 -51 2 -60h-4q-4 -20 -9.5 -41.5t-19.5 -34.5q-2 -10 -21.5 -20t-21.5 -23q-25 -18 -64 -59q-4 0 -22 -8v-8q-27 -4 -37 -23q-55 8 -112.5 -34t-98.5 -42v-10q-37 0 -59 -22q-4 -2 -47 -15q-29 -6 -36 -27.5t-39 -45 t-36 -41.5q-10 -2 -10 -29h-6q-10 -55 8 -68q4 -2 37 -2q-2 -12 4 -14h14q8 2 12 -2q2 4 13 2h14q6 2 6 14h43q16 -14 45 -47q2 -10 31 -10v-2q61 -16 88 2q8 0 18.5 -9.5t20.5 -9.5q4 0 10 2q0 -6 6 -8q4 -2 13 0q10 2 12 2v-6q23 -8 55 -2q45 8 53 8v-6q45 -4 60 -8 q29 -8 39 -31q8 -12 8 -39q-2 -39 0 -45q-35 -33 -68 -28v-11q-45 4 -71 -22h-43q2 10 -7.5 12t-19.5 4h-27v2q-4 4 -39 4q0 12 -16 13q-23 0 -27 4l-24 28q-18 18 -39 19q0 8 -12 8h-11q0 2 -2 4t-2 4q-2 -8 -39 -8q-4 8 -19 8t-19 2q-10 23 -37 27q-55 4 -92 -27 q-10 0 -24.5 -6t-23.5 -6q-31 -33 -34 -35q-20 -16 -48 -20q-2 0 -7 10t-11 8q2 8 -6 12.5t-8 10.5q0 59 -13 63q0 12 -4 12h-6q2 8 -7 10.5t-9 8.5l2 59q8 -6 12 0q4 4 2 9v14q6 2 6 31q2 8 4 12q10 0 13.5 20.5t21.5 14.5q-2 14 15.5 24t15.5 27q10 0 6 8q27 18 66 68 q-2 14 11 31.5t15 27.5q4 -8 8 -8q2 0 12.5 7t18.5 3q8 8 47 31q4 2 4 22q14 -4 25.5 13.5t26.5 13.5q4 10 18 19.5t18 17.5l62 4q39 4 45 24q0 4 11 15.5t14.5 22t23.5 8.5q29 0 31 2q16 2 18 16q6 -2 23 6v10q80 16 133 121v31h2q14 57 -12 88q10 0 10 25 q-2 12 -17.5 29.5t-15.5 29.5q-14 20 -28.5 42.5t-34.5 33.5q-8 14 -36 30.5t-36 28.5q-20 2 -64 2q0 8 -10 8h-12q-2 8 -14 9h-19q0 2 -4 8q-18 -14 -71.5 -18.5t-69.5 -22.5q-16 -2 -33.5 -5t-24.5 -18q-18 -2 -27 -16t-18 -27v-22q-4 0 -10 -6q20 -90 21 -86l6 -68 q-10 0 -10 -8v-10q-31 -2 -62 -3q-37 -4 -37 -34v-11q-16 4 -40.5 29t-45.5 25h-14q4 23 -7.5 53.5t-11.5 40.5q0 14 11 29v16h2q8 55 6 65l16 -6q8 6 8 27q-2 29 0 33q8 16 33 45q0 18 18.5 28.5t20.5 20.5q61 25 82 51q37 0 80 14q72 23 76 25h12v-4q27 -4 55 -4 q23 0 71 5t75 5q18 0 37 -2q2 -6 10 -6h14v-4q31 0 67 -25.5t54 -29.5q2 -10 17.5 -17.5t15.5 -19.5q16 -2 43 -21q-6 -31 20 -69h10q8 -33 27 -95q-4 0 -6 -2t-4 -2q12 -10 20 -48t29 -44v-20z" />
<glyph unicode="3" d="M977 1200q-8 -51 -8 -63l-4 -2l-4 -2v-13q-25 -14 -31 -47q-20 -23 -39 -45q-25 -25 -45 -31q-10 -25 -23.5 -49t-36.5 -28q-16 -10 -12 -29h-4q-4 -14 -4 -27q0 -33 27 -59q4 -4 26 -4q18 -10 47 -39h15q0 -14 12 -8h14q-4 -8 8 -9h15q-4 -8 -4 -16q0 -10 8 -23.5 t8 -19.5t-6 -12q0 -14 4 -17q-14 4 -20 -12h-60q-39 59 -84 55q-4 8 -16 2q-18 -8 -27 -8v-10l-176 -6v-4q-10 16 -37 10v53q33 12 41 33q0 20 -4 25h-2v10q10 0 6 10q20 59 21 62q29 16 26 41q2 -2 19 16q29 0 35 22q27 -4 40 19q8 18 19 35q25 16 10 63q-4 0 -6 11.5 t-10 9.5v24q-2 16 -19 12h-8l-8 7q-10 -10 -27 -7v3q-2 2 -2 4q-2 0 -5 -2t-5 -2v-13q-53 -18 -63 -16v6q-55 8 -119 -10q-8 -14 -53 -45q-35 -25 -35 -58q-10 -12 -46 -25.5t-46 -31.5q-20 0 -37 15.5t-29 27.5q-6 18 8.5 41t14.5 37q0 8 -1.5 16t-8.5 13l-7 6q-8 0 -10 10 t-6 14l-10 21q2 0 6 2q-4 12 7 14t13 2q27 23 55 70v10q16 2 32 22.5t32 20.5q18 0 47 -4q10 0 12 -6q18 8 56 8q51 -2 59 0q0 -8 4 -10q4 0 12 2h13l80 20l75 -2q0 -10 15 -10q94 20 143 0q0 -8 16 -8h11q0 -8 12 -8h14q0 -6 8.5 -7.5t17.5 -10.5t17 -9q4 0 11 2 q-2 -10 8 -19.5t8 -19.5zM1116 336q-14 -14 -10 -21h-10q-2 -6 -2 -45q-2 -31 -15 -37v-16q-8 -16 -26 -45q2 -10 -13 -16q-14 -18 -41 -56q-4 -4 -4 -32q-14 -16 -31.5 -33t-43.5 -15v-6q-23 -4 -59 -31.5t-68 -21.5q0 -14 -20.5 -15t-24.5 -9q-18 12 -74 4 q-53 -27 -92 -21v4q-6 2 -43 2q0 10 -11 11h-14q-2 8 -11 9t-11 7q-8 -2 -19 -2q-10 0 -31.5 4t-31.5 4q-16 0 -29 -6q2 2 -2 8q0 -2 -2 -4t-2 -4q-18 16 -66 41q-10 16 -73 57q-47 33 -48 82q0 14 -10 42t-10 44q2 -2 8 4q-8 6 -10 17v22q2 16 2 21q8 0 8 14t18.5 29.5 t18.5 31.5q23 -6 23 15v6q12 0 12 4h-6v10h6v-10q10 -4 63 -4q41 2 51 -21q10 4 15.5 -7t11.5 -11q27 -16 33 -21q14 -12 18 -26v-47h-2q-4 -6 -4 -47l-12 -21q-8 -10 -4 -22q-12 0 -6 -13q-2 -25 20 -41q20 -8 39 -18q94 10 111 -10h32q2 -6 7 -11q14 0 16 5v6 q6 -10 10 -11q4 0 13.5 7.5t17.5 5.5q10 12 43 12h49q25 4 31 29q10 -4 18 -4q12 0 62 26v15q8 -6 12 2v8q16 2 57 49q2 10 2 70q14 0 15 10v10q10 12 10 55q12 -2 12 16.5t4 20.5q-4 8 -4 49q0 31 -9 42.5t-5 72.5q2 47 -23 59q-6 6 4 33l5 4q2 -14 23.5 -14t25.5 -2 q-6 -8 4 -8q2 0 2 8q8 -25 24 -25h13q20 -70 20 -63h6v-41q0 -29 13 -35q-2 -29 8 -74q-8 -2 -8 -22q8 -2 9 -22.5t15 -20.5z" />
<glyph unicode="4" d="M1130 414q4 -49 -67 -113q-16 0 -21 -2v-8q-16 0 -42.5 -9.5t-45.5 -7.5v-6q-4 2 -10 2t-15 -11t-16 -11q0 -14 2 -15h11q-4 -25 17.5 -39t23.5 -26l69 -2q-4 -10 2 -12q14 -4 15 -7q10 -2 22 -16t23 -16v-80q-6 -2 -8 -6q-10 -8 -27 -35q-27 -12 -55.5 -24.5 t-59.5 -12.5q-14 0 -33 4q0 6 -14 6h-22q0 4 -5 6q-4 0 -63 -12q-41 -6 -76 0q6 6 -10 6h-14v4q-6 2 -52 2v9q-10 4 -22 4q-10 0 -25.5 -4.5t-21.5 -4.5q-18 0 -29 27q-12 0 -37 4q-14 8 -29.5 17.5t-11.5 29.5q29 49 29 59.5t25 12.5q18 2 14 20q4 -10 31 -10v-6 q6 -4 41 -4q2 4 14 16.5t10 24.5h6q14 27 6 90q-14 2 -45.5 17.5t-50.5 15.5q-18 0 -37 -10q-14 -2 -108 -2v2l-180 10q0 10 -27 12q-10 0 -12 6t-17 6h-10q-12 2 -24.5 20.5t-14.5 22.5t-10 24.5t-6 39.5q2 6 13 17.5t11 23.5q10 0 15 2v14q10 -2 12 4v13q0 8 4 10 q16 0 16 10v10q10 23 41 60v20q8 0 9 12v11q12 -2 26 20v19q10 -4 12 2q4 14 5 14q2 8 15 22.5t9 32.5q2 6 15.5 13.5t11.5 19.5q12 -2 30 19q31 31 25 63q6 16 31 41q14 20 31 70v30q10 0 10 13v10q2 8 13 19.5t11 21.5q14 6 41 69q6 -8 6 2l-6 19q12 4 13 31l61 61 q12 33 18 45q12 25 29 35t41 12q18 2 47 2q37 -2 43 -2q0 -10 13.5 -10t27.5 -16.5t27 -14.5v-100q-31 -37 -27 -74q8 0 11 -10t10 -10q4 0 6 2q0 -31 4 -33q14 -86 -21 -117q-2 -6 -2 -10q0 -8 7.5 -18.5t5.5 -18.5q6 -131 26 -223q10 -14 4 -35q-8 -29 -8 -33 q0 -14 12.5 -21t12.5 -30v-35q2 -8 4 -12q10 -2 25.5 -15.5t23.5 -13.5q10 0 18 11h15v-2q8 -6 49 -7q31 0 33 -24h6q0 -29 35 -29q8 0 16 -12t20 -8zM709 745q-6 47 -29 199q-20 8 -27 47h-6q4 -18 -24 -37q-16 2 -29 -8q-20 -14 -27 -16v-15q0 -4 -6 -6q4 -18 -24 -55v-10 q-29 -33 -74 -113q0 -6 -11.5 -8t-11.5 -8q0 -4 2 -6q-4 -10 -7 -20.5t-11 -10.5q-4 0 -10 2v-10q-2 -2 -13 -2v-50q-27 -18 -39 -43q6 -18 -6 -32.5t-12 -22.5q0 -6 2 -14q0 -18 23 -33q14 -8 28 -18q10 4 27 4q14 0 25 -4v-2q10 -4 20 -4t28.5 6t28.5 6t21 -6v-2 q6 0 25.5 -2t29.5 -2q12 2 21 10q2 16 26.5 38.5t24.5 43.5q0 10 -4 20h10q0 27 10 35q4 18 -6 47q0 -4 0 59q0 37 25 43z" />
<glyph unicode="5" d="M1110 393q-8 -10 -6 -33v-38q-6 0 -6 -7v-10q-14 0 -23 -14l-12 -23v-43q-8 2 -13.5 -4t-2.5 -14v-12q-8 -4 -9.5 -16.5t-1.5 -24.5q-45 -25 -51 -74q-25 -41 -43 -41q-4 -25 -27 -37q-35 -18 -36 -20q-27 -16 -86 -41v-11h-11q0 10 -2 15q-4 -2 -4 -15q-23 6 -45 -8 t-35 -14q-10 0 -20 4v6q-10 2 -127 0q-76 -2 -109 33q-18 18 -57 31q0 10 -4 10h-6q-16 25 -82 37q0 10 -9.5 11t-43.5 23q2 27 -18.5 48.5t-39.5 42.5q6 14 13.5 29.5t3.5 31.5q10 2 10 14v23q6 2 7 12t7 10q14 6 60 33q37 23 65 23q14 0 29 -4q4 -2 5 -14.5t13 -10.5 q-4 -8 2 -14q14 -12 16.5 -11.5t6.5 -7.5t10 -8q4 0 8 2q0 -25 4 -26q-4 -8 -4 -105q0 -2 -12 -20q-8 -10 -4 -25q4 -20 33 -27q37 -8 41 -10v-4l84 -2v-4q6 -6 40 -6v-4q2 0 33 -4q25 -2 39.5 2t16.5 22q14 6 49 17v8q39 4 51 49v10q18 16 57 51q2 31 33 68t39 59 q-6 20 -6 64v0q0 41 -4 61h-8v82h8q2 4 2 41q-10 12 -33 37q-4 6 -23 25q-14 12 -14 28q-14 0 -22 15q-14 23 -15 22q-18 4 -51 35t-63 29v8q-39 4 -78 4q-41 0 -78 -4v-8q-31 6 -49.5 -24t-42.5 -26q-2 -10 -23.5 -25.5t-19.5 -39.5q-8 0 -15 -10v-13q-8 0 -8 -4 q-6 -10 -29.5 -26.5t-25.5 -32.5q-10 0 -27 -4v-6q-25 12 -50 25.5t-30 41.5v86h2q6 14 7 29q0 12 -6.5 35.5t-6.5 36.5q0 12 4 24h2q16 76 -12 105q8 31 27 92q-12 16 -21.5 65t-19.5 66h4q-4 33 22 57q23 16 48 33q37 4 98 31h74q-4 -10 20 -11q14 0 16 5v6l11 -11 q4 0 4 11h80v-6q16 -6 32 -7q16 0 29 7v6q70 -2 195 14h39q18 -6 43 -27h16q10 -10 8 -37.5t2 -37.5h6v-13q-10 4 -10 -6t-14.5 -18t-14.5 -17q-29 4 -61 -10q-39 -14 -53 -16v4q-59 8 -76 -4q-6 6 -23 2q-25 -6 -30 -6q-14 -6 -39 -4t-39 -13l-59 -4q0 2 -2.5 4t-2.5 4 q-20 -8 -42.5 -15t-47.5 -3q-4 6 -8 6t-14 -9t-19 -9v-21q-14 0 -6 -14v-12q-18 2 -18 -27q2 -18 2 -37.5t16 -24.5q-4 -14 2 -22q12 -14 14.5 -15t10.5 -16v-4q12 -4 26 -4t27 4v10q8 -2 14 -2q12 0 32 9.5t36 7.5v10q-2 -2 82 -2q53 0 80 10h8q4 -6 18 -8h23q-2 -10 7 -13 t9 -6h15q2 -4 6 -6h14q18 -29 62 -32q2 -20 20.5 -31.5t36.5 -24.5q4 -16 33 -22q2 -4 12 -29q8 -16 20 -18q6 -16 13.5 -34t21.5 -24q-2 -6 -2 -10q0 -8 10.5 -17.5t12.5 -13.5h6q8 -14 24 -43q-2 12 -2 -77q0 -45 15 -66q-2 -15 10 -33z" />
<glyph unicode="6" d="M1081 260q-16 -8 -24 -51q-8 -2 -11.5 -26.5t-23.5 -18.5q-2 -8 -16.5 -24.5t-10.5 -35.5l-10 -28q-8 -18 -24 -19q-8 -27 -49.5 -40t-51.5 -29q-6 -8 -27.5 -11.5t-23.5 -11.5q-31 -4 -47 -24q-66 4 -195 -15l-35 -6q-16 6 -38 29q-45 14 -72 63l-10 -8v10q6 0 6 13 q29 37 4 65h-4q0 8 14 10t17 11v-4q18 0 57 -7q-4 -12 7 -14t13 -2q10 2 20.5 -15.5t16.5 -17.5t15 10h49q-4 -10 10 -10h12q0 -2 2 -6q8 6 29 6h31q27 4 22 33q10 -4 10 6l39 29q23 14 68 47q2 6 22 18q14 12 15 27h2q6 27 20 84q23 33 13 51q-23 14 -27 51q0 -4 0 66 q16 25 14 33q-27 8 -39 52t-39 48q6 14 -8 14h-12q-18 2 -45 19q-20 4 -66 16v4q-14 4 -28 4q-12 0 -37 -6t-39 -6q-12 0 -25 4q-4 6 -8 6q-2 0 -10 -7t-18 -5q-20 0 -46 -20q-61 -6 -77 -25q-2 -2 -2 -14h-50q0 10 -4 14q-8 0 -12 -4v-10h-22q-6 -6 -3 -15q4 -10 5 -10h10 q6 -31 2 -131q-2 -84 14 -129h6q0 -4 21 -150q-2 0 -6 -4q6 -2 6 -16v-23q-27 -31 -55 -22q-16 14 -50 49h-12q2 8 2 14q0 12 -10 24.5t-19 23.5q0 6 -6 16h-6q-6 12 -2 65q2 41 -20 52q-2 6 -21 100q6 0 6 14q0 6 -10 41q-8 27 -6 49q10 -4 10 11v12q6 -4 6 16v11 q8 2 10.5 13t4.5 15q33 0 34 6q6 0 13.5 -8t11.5 -8t8 4v12q10 -2 10 17q2 8 -6 15t-8 13q-41 -4 -55 27q18 25 14 62q10 0 12.5 18t10.5 20q-8 8 -8 17q0 6 8 21.5t10 23.5h2q4 6 4 43q12 0 6 12v10q16 27 27 45q2 6 31 35q20 23 20 47q0 8 -4 19q4 -2 10 4q0 8 16.5 16 t12.5 25q16 0 16 10q12 4 17 27q35 25 30 45q8 12 35 20t33 19q2 0 22 10v2q6 -8 21 -2q16 6 25 6v10q20 12 67 29q2 2 16.5 3t14.5 9h29v-2q20 -8 106 -8v-2q6 -4 39 -4q0 -12 12 -6h15q6 -18 34 -19q41 2 45 0q2 -23 11 -65q10 2 11 -9.5t5 -13.5q16 -39 12 -76 q-8 -2 -8 -12v-18q-6 -20 -31 -49q-16 -12 -67 -29l-51 -10v-6q-29 14 -60 38h-12l-2 3q-2 2 -2 4h-12q-23 23 -56 32h-18v2q-47 12 -82 -6q-12 -10 -27 -35q-2 0 -22 -10v-6q-16 -4 -30.5 -27.5t-27.5 -27.5q-25 -16 -49 -31q-29 -23 -35 -45q-10 0 -10 -25 q-2 -6 -21.5 -23.5t-15.5 -37.5q-8 0 -12 -4q4 -6 12 -6q-4 -16 14.5 -21.5t18.5 -11.5q12 0 14 4v6q51 -10 91 23q16 4 48.5 25.5t49.5 21.5q12 0 24 -8q18 2 47 -5.5t39 -7.5q16 0 31 9h12q2 -6 9 -9q4 -2 12 0q10 2 12 2q-2 -10 10 -10h13q-2 -6 16 -6h10q0 -8 9 -8h12 q4 -2 2 -10q29 -16 88 -47q-2 -6 6 -31q12 4 12 -17q4 -12 6.5 -24t14.5 -15q0 -10 2 -10h8q-4 -12 19 -12h12q8 -18 26 -43q12 -12 29 -49h8v-142q-16 4 -16 -24q-2 -6 6 -14h10v-64z" />
<glyph unicode="7" d="M1069 1108q-10 -14 -6 -43q6 -31 0 -43q-6 -18 -25 -51v-33q0 -2 -10 -15.5t-6 -25.5q0 -2 -12 -18q-8 -8 -4 -21h-5q0 -25 -10 -70q-10 0 -13 -12t-5 -14q2 -12 2 -21q0 -14 -13.5 -34.5t-9.5 -42.5q-20 -12 -32.5 -53.5t-30.5 -53.5q-2 -4 -19 -27q-12 -14 -8 -30 q-14 4 -14 -19q0 -31 -23 -30l-4 -43l-4 -2q-4 -3 -6 -3v-12q-35 -29 -29 -104q-10 -2 -10 -15v-22q-6 -27 -41 -33q-2 -12 -2 -74q-23 -29 -22 -43q0 -8 6 -16q0 -2 4 -11.5t12 -6.5v-7q-18 -4 -24 -28v-45h-7q-2 -16 -6 -45q0 8 -4 8q-6 -14 -28.5 -20.5t-28.5 -12.5 q0 10 -17 10q-23 0 -24.5 7.5t-11.5 7.5q-27 6 -33 28v47q6 -6 6 4q-4 4 -7 26t-16 24v94h2q2 16 9 53q2 -2 6 2q-8 2 -8 8q-2 6 0 15q2 12 2 14q12 -2 26 35v16q12 -6 13 12v11q8 4 8 20.5t2 20.5q10 -2 13 8t3 12v12q8 -2 8 17v10q10 0 11 10v11h2q0 -4 20 86h4 q-6 31 22.5 57.5t28.5 50.5q0 8 -2 19q18 18 38 38.5t16 49.5q23 12 32 39q10 -2 21 16v61q6 4 18.5 20.5t18.5 22.5q2 6 -5.5 19.5t-33.5 40.5q-2 0 -33 14q-18 6 -39 2q2 12 -10 14q-20 2 -23 5q-16 31 -94 75q-39 31 -92 41q-4 2 -18 -6q-20 -10 -29 -12q-14 -8 -37 -33 l-27 -27q0 -12 -16 -27.5t-16 -29.5h-4l-7 -82q-2 -2 -17 -19.5t-28 -17.5q-6 0 -12 2q-8 10 -15 41t-26 39q-2 -14 -24 -14q-10 0 -19 6q0 6 -6 11t-6 12h-15v43q8 -2 12.5 2t2.5 12q0 12 -4 16h-11v150q23 12 70 37h25v-2q12 -4 24 -4q25 0 65 22.5t70 20.5q27 18 27 26 q2 -6 37 -6q0 -10 14 -10h8q0 -6 9 -6q8 14 41 14q49 0 51 2q8 -18 38.5 -33.5t39.5 -25.5q45 -35 98 -35q35 0 59 16q2 27 72 74q-12 2 49 4q33 0 33 -25q14 -4 33 -38q-4 -10 -4 -21q0 -16 11 -43t9 -47z" />
<glyph unicode="8" d="M1165 242q6 -10 6 -21q0 -12 -16 -27.5t-12 -35.5q-8 -8 -24.5 -17.5t-24.5 -17.5q-33 -23 -23 -68q-16 2 -30.5 -9t-24.5 -11q-8 0 -17 2q-31 -23 -24 -43q-6 0 -17 -8q2 -6 -4 -11q-8 -2 -14 0q-35 -4 -92 -32q-47 -29 -123 -25v4l-94 2q2 8 -4 10q-4 0 -11 -2h-4 q-10 4 -20 5q-10 0 -38 -7.5t-46 -5.5q0 10 -19 10h-10v5q-6 4 -51 4q6 10 -10 10h-12q6 6 -9 6q-4 -2 -11 9.5t-19 6.5q0 14 -16.5 31t-16.5 31q0 8 -9.5 22.5t-5.5 28.5q14 0 17 8v2q20 -16 72 -41q0 -10 13 -10t29.5 -15.5t28.5 -17.5q0 -14 4 -14h6q0 -10 9 -14 q6 10 33.5 12t33.5 16l86 -8q0 -18 2 -20q2 10 9 28q25 -2 65.5 5.5t63.5 7.5q6 25 42.5 39t43.5 32q37 4 81 62q10 6 10.5 30.5t12.5 28.5q14 27 14 60q0 25 -10 73.5t-10 73.5q-45 41 -139 111q-12 23 -39 22h-47q-35 37 -86 21q-16 -4 -54.5 -3t-58.5 -8v-10h-53 q0 8 -9 19h-6v43q12 18 47 51q0 4 17.5 11t11.5 19l10 -10q2 0 2 10l15 -10q4 0 4 10q2 -12 20 -10h31q2 0 2 10q152 0 203 60q8 14 20 53q6 2 11 10q0 25 22 31q10 80 -22 86q0 16 -5 16h-6q-31 104 -96 144q-10 12 -33 20q-33 10 -35 11v8q-16 0 -40 2l-9 8q0 -8 -8 -10 q-6 0 -16 2h-17q-6 14 -27.5 15t-43.5 3q-25 -25 -92 -31q-18 -29 -72 -34q-45 -4 -92 -6q-2 -6 -2 -41q14 -18 57 -39q-29 -29 -25 -92q-10 -4 -10 -17v-20q-6 4 -12 -6.5t-10 -10.5q-6 -45 22 -65q-2 -4 -2 -8q0 -10 14.5 -16.5t16.5 -10.5q10 -16 43 -41q10 -4 19.5 -9 t9.5 -22q2 0 3 -15t9 -15q0 -4 -37 -52q-2 0 -15.5 -6t-9.5 -16h-10q2 -27 -6 -72q-16 0 -16 -8t-10.5 -21.5t-8.5 -29.5q-10 -8 -22.5 -19.5t-10.5 -27.5q-25 -8 -22 -48q0 -53 -6 -61q-23 0 -13 -14q2 -10 -11 -17.5t-9 -19.5q-4 -8 -18.5 -11t-12.5 -18q-53 35 -39 172 q18 8 18.5 12.5t10.5 20.5t6 31v14q16 0 17 6q18 23 45 76q23 4 37 28.5t28 47.5v10q16 -4 19 8q2 20 4 23q4 6 0 12q-2 6 -11 0q-8 4 -26.5 21.5t-34.5 17.5l-4 9t-12 7q0 66 -17 86q-23 20 -28 62q0 2 -17 2q6 14 0 33q-8 23 -8 24q0 10 12 19q4 -8 6 -9q2 0 9.5 7.5 t15.5 5.5q0 6 -29 32h-6q2 8 0 30t0 32q4 12 21 10q4 4 4 14q33 10 65.5 21.5t36.5 44.5q2 23 32 43t32 39q113 18 223 57h51v-2l72 -4v-6q59 -10 73 6q-2 -10 19 -10h10q20 -6 51 -31q12 -20 62 -47q-10 -10 2 -10q29 -18 39 -53q8 -10 41 -27q10 -20 12 -21q10 2 11 -5 t6 -17t3 -70q0 -49 29 -57q4 -23 -4 -43q-12 -29 -14 -37q-10 0 -11 -12q2 -18 -16 -33.5t-16 -32.5q-35 -20 -52 -67v-43q-2 -25 17 -29q6 -25 33 -47q41 -33 43 -35q16 -2 22 -28.5t29 -22.5q16 -25 32.5 -52.5t18.5 -60.5q2 -2 2 -15t10 -9v-97q-6 6 -10 0q-2 -6 0 -12 q0 -18 4 -18h6z" />
<glyph unicode="9" d="M1090 590q-10 0 -11 -12v-11h-2q-2 -35 -16 -94q-6 0 -6 -14v-8h-4q-4 -10 -7 -56q0 -35 -18 -39q0 -16 -14.5 -34.5t-12.5 -36.5q-8 -2 -8 -15q2 -16 0 -18q-10 0 -12 -14q-2 -20 -4 -23q-29 -41 -45 -41q-25 -49 -23 -59q-8 -4 -17 -17.5t-18 -13.5q-31 -20 -81 -74 q-23 0 -74 -46t-76 -46q-2 4 -2 10q-10 -10 -33 -10l-39 2v6l-100 4q-2 8 -12 9q-16 -2 -19 -2q-2 8 -12 9t-14 9q-2 -2 -4 -8q-2 8 -27 8q-35 20 -43 53q0 18 -6 49h-11q4 12 -22 39h-10v45q35 -4 47 36t39 40q2 2 10 16q6 -14 20.5 -4.5t22.5 -5.5h23q37 -27 57 -30 q8 -18 18.5 -37t34.5 -19q16 -12 47 -41q6 -2 15 -2q10 0 24 9.5t19 9.5q6 23 53 59q41 33 37 76q33 0 43 22q14 -2 21 8.5t13.5 16.5t6.5 45q10 0 10 14v13q8 2 8 14q-2 18 0 20q-6 16 -31 41q-18 0 -39.5 -8t-27.5 -8q-16 0 -33 25q-10 8 -27 30q-4 -2 -4 -20 q-6 -2 -19 -14.5t-24 -10.5q-20 -29 -76 -28q18 0 -86 8q-18 8 -36 22h-11q0 8 -14 8h-12v7q-70 2 -109 32q-4 27 -47 41q-6 10 -18 37q-12 12 -41 37q0 12 -8.5 42t-8.5 42q0 25 21 37q4 2 4 24q-10 10 -41 23l2 45h12q6 23 2 47l-14 -10v20q18 8 35.5 18.5t21.5 31.5 q6 2 9 6h-5v14h5q-4 -14 16 -20l20 4l-2 -21h-6q0 4 -6 10q-14 -20 0 -34h12q0 -8 6 -33q6 -94 31 -129q2 0 7 -9.5t16 -5.5q-2 -25 32 -47q-2 -10 7 -20l37 -37q35 -14 88 -51q6 -4 98 -8q35 -2 45 -21q23 -2 57 -18q0 -10 4 -11q10 -4 13.5 12.5t23.5 39.5q29 41 92 112 q18 14 31 52q10 2 10 12v20q10 4 13 35q6 -4 10 4t6 8v15h4q4 10 4 20q0 8 -5 24.5t-5 26.5q0 8 2 15q8 0 8 8q-6 0 -9 14.5t-15 12.5q0 10 -7 36q6 10 5 17q-2 2 -7 4l7 10q-25 25 -68 78q-35 14 -113 72q-4 2 -17 10t-26 4q-2 4 -4 10q-6 -10 -24 -10h-29q-2 4 -4 10 q-6 -2 -10 -2q-10 0 -28.5 13.5t-31.5 17.5q-16 4 -30 -4l-25 -12q2 -8 -5 -13.5t-7 -7.5q-23 0 -45 -31q4 -20 -13.5 -29.5t-23.5 -17.5t-38 -17t-38 -28v-6l-10 6l-21 -22q-2 0 -2 22q8 -4 10.5 5t4.5 12q0 14 -10.5 26t-10.5 21q0 6 6 18q8 4 25 64q6 0 6 12l2 14 q16 -4 33 6v4q14 -4 19 -23.5t11 -25.5q10 4 19.5 25.5t32.5 19.5l10 19q16 -8 39 -21q2 4 14 4q14 -2 17 0q8 4 4 17q10 0 12 4v12h8q2 6 4 47q51 0 164 -2v-2q25 -12 47 -2v4h10q4 -4 15 -6h10q-2 -12 11.5 -14t15.5 -4q23 -18 73 -45q8 -23 19.5 -45.5t40.5 -18.5 q23 -14 35 -57t24 -56q0 -16 12.5 -24t24.5 -17q4 -33 23 -47q4 -12 2 -102q0 -68 26 -90q-29 -92 6 -127q-4 -6 -4 -10q0 -6 8.5 -15.5t4.5 -19.5z" />
<glyph unicode=":" d="M903 680h-4q-4 -6 -4 -45q-12 0 -12 -14v-13q-4 -4 -6 -14l-3 -10q-10 0 -9 -10.5t-9 -20.5t-8 -23q-14 2 -22.5 -7t-14.5 -17v-8q-14 4 -21.5 -9.5t-11.5 -13.5q-6 0 -12 4q-6 12 -25.5 25.5t-25.5 23.5q-14 -4 -45 -4q-10 -2 -26.5 -27.5t-37.5 -23.5v-10h-117 q0 6 -6 16h-8q-6 6 -5 23.5t-1 25.5l-16 -8q0 8 -15 8h-10q-14 4 -24.5 18.5t-20.5 26.5q4 37 -25 74l4 98q27 25 23 56q6 -4 10 1t1 15t8.5 12t11.5 9q0 20 30.5 31.5t32.5 33.5q8 2 18.5 18.5t26.5 12.5q4 0 72 20h41v-4q70 -12 111 -59q68 -10 104 -103q-4 -31 33 -45 q8 -14 15 -29.5t3 -33.5zM815 76q-10 -6 -9 -36t-20 -32l-4 -28q-6 0 -6 -9v-10q-29 -12 -57.5 -26.5t-44.5 -36.5l-109 6q4 4 -2 10q-4 -14 -22 -14q-35 0 -31 0q0 12 -18.5 16t-22.5 10q-18 27 -47 39q-12 4 -24.5 11.5t-10.5 22.5t-2 17h-8q4 12 4 25q0 16 -8 43t-8 37 q0 18 20 31q4 4 14 41q6 23 25 28v17q4 6 26.5 6t22.5 18l19 29q12 16 34 12q39 18 119 2v-4l60 -4q20 -29 55 -90q4 -12 4 -41q35 -10 43 -8q-4 -31 8 -82z" />
<glyph unicode=";" d="M897 750q-25 -33 -43 -70q-31 -29 -29 -47q-14 2 -21 -13.5t-20 -11.5q-55 -49 -129 -49q-27 0 -55 6q-6 12 -35 25q-12 41 -47 45q-16 12 -45 29q-6 57 -29 165q12 10 56 84q31 53 88 54q6 12 35 12h45q0 -6 2 -10q4 18 32 18q43 -2 44.5 -4t9.5 -4q16 -10 34.5 -21.5 t20.5 -27.5q90 -76 86 -180zM899 57v-10q-10 0 -9 -11t-11.5 -21.5t-8.5 -22.5h-2l-6 -94q-4 -2 -6 -11v-10q-18 -8 -18 -10q-10 -10 -21 -41v-10q-14 -4 -14 -25q0 -27 -3 -29t-7 -6v-12q-10 -2 -23.5 -14.5t-30.5 -10.5q-16 -23 -61 -46t-60 -42q-2 -2 -10 -7t-4 -11 q-98 -8 -120.5 6t-22.5 57q0 106 2 84q10 14 78 64q49 35 45 90q-12 12 -37 33q2 4 -4 16h-15q-10 12 -26 53q-10 0 -21.5 14.5t-25.5 10.5q-16 6 -19.5 28.5t-5.5 45.5h-6v45l6 -2q-4 18 -4 35q0 47 45 88q61 55 70 71q29 25 96 29q4 12 29 12l41 -2q10 -16 41.5 -32.5 t40.5 -34.5h14q2 -4 6 -7q25 -18 63 -59q-4 -12 -4 -22q0 -16 12.5 -39t12.5 -39q0 -10 -6 -25q-4 -4 -6 -14q0 -12 2 -13.5t6 -33.5q0 -13 8 -15z" />
<glyph unicode="&#x3c;" d="M975 74l2 -8q0 -12 -10.5 -33t-8.5 -35q-18 -20 -36 -39q-23 -25 -45 -25q-27 0 -75 18.5t-79 14.5q-6 4 -7 31t-11 27q-12 0 -26.5 -13.5t-23.5 -13.5q-2 2 0 4l4 12q0 4 2.5 13.5t2.5 13.5q0 8 -9 12q-27 -4 -32 -4l-23 8l2 21q0 23 -27.5 28t-27.5 13q0 4 4 12l-8 33 q-8 0 -23.5 9t-23.5 9q-6 0 -13 -4q-4 6 -7 30.5t-17 29.5l-19 -9v4q2 16 -19.5 38t-21.5 38l-2 2q-4 0 -20.5 -9t-26.5 -9q-6 0 -12 6l6 57l-8 -8l-84 53q6 8 6 17q0 8 -8 22.5t-8 24.5q0 23 20 49q27 37 31 45q27 4 35 6q18 6 20 25l33 -10l-25 43q2 14 23.5 37.5 t19.5 39.5l17 -6q14 4 18 27.5t8 30.5l15 -2q8 0 22.5 9t22.5 9l6 33l-2 10q0 12 27.5 15t27.5 28q0 8 -2 18q12 12 53 5q12 6 11 18q-4 18 -5 23q-6 10 -6 14q0 2 4 0q4 0 19.5 -13.5t28.5 -13.5q2 0 18 60q39 -6 37 -7q6 0 50 18.5t67 18.5t43 -21.5t39 -39.5l-3 -10 q0 -10 10.5 -28.5t10.5 -29.5l-2 -10q-33 -16 -38 -22.5t-13 -38.5q-23 0 -23 -26t-14 -32l-17 17q-23 0 -87 -57.5t-70 -82.5q-12 4 -25 4q-18 0 -42.5 -28.5t-37.5 -34.5l-6 2q-20 0 -50 -47t-42 -49v-15q14 -2 60 -37.5t67 -35.5q8 0 12 2q14 -6 39 -35t45 -29q8 0 21 6 q6 -25 69.5 -83t83.5 -56h4l19 15q12 -6 12 -27q0 -29 23 -29q8 -33 13 -39t38 -24z" />
<glyph unicode="&#x3e;" d="M244 74l-2 -8q0 -12 10 -33t8 -35q18 -20 37 -39q23 -25 45 -25q27 0 78 19q45 18 76 14q6 4 7 31t11 27q12 0 27.5 -13.5t21.5 -13.5q2 2 0 4l-4 12q0 4 -2 13.5t-2 13.5q0 8 8 12q27 -4 33 -4l22 8l-2 21q0 23 28 28t28 13q0 4 -4 12l8 33q8 0 23.5 9t23.5 9q6 0 12 -4 q4 6 7 30.5t18 29.5l18 -9v4q-2 16 19.5 38t21.5 38l2 2q4 0 20.5 -9t26.5 -9q6 0 13 6l-7 57l9 -8l84 53q-6 8 -6 17q0 8 8 22.5t8 24.5q0 23 -21 49q-27 37 -30 45q-27 4 -35 6q-18 6 -21 25l-32 -10l24 43q-2 14 -23.5 37.5t-19.5 39.5l-16 -6q-14 4 -18.5 27.5 t-8.5 30.5l-14 -2q-8 0 -22.5 9t-22.5 9l-6 33l2 10q0 12 -28 15t-28 28q0 8 2 18q-12 12 -53 5q-12 6 -10 18q4 18 7 25.5t3 11.5q0 2 -4 0q-4 0 -19.5 -13.5t-27.5 -13.5q-2 0 -18 60q-39 -6 -37 -7q-6 0 -50 18.5t-67 18.5t-43.5 -21.5t-38.5 -39.5l2 -10 q0 -10 -10 -28.5t-10 -29.5l2 -10q33 -16 38 -22.5t13 -38.5q23 0 22.5 -26t14.5 -32l16 17q23 0 87.5 -57.5t70.5 -82.5q12 4 24 4q18 0 43 -28.5t37 -34.5l6 2q20 0 50 -47t43 -49v-15q-14 -2 -60.5 -37.5t-66.5 -35.5q-8 0 -13 2q-14 -6 -38.5 -35t-45.5 -29q-8 0 -20 6 q-6 -25 -69.5 -83t-84.5 -56h-4l-18 15q-12 -6 -13 -27q0 -29 -22 -29q-8 -33 -13 -39t-38 -24z" />
<glyph unicode="?" d="M1063 965h-2q-2 -23 -18.5 -61t-16.5 -64q0 -12 2 -25q-4 -2 -3 -11t-11.5 -13.5t-12.5 -8.5q-4 -18 -14 -34q-16 -16 -18 -25q-10 0 -11 -6q-18 -14 -47 -51q-10 -4 -25.5 -24.5t-31.5 -20.5q-8 0 -16 4v-9l-15 2q0 2 -2 9h-14q0 16 -2 18q-18 -29 -47 -51q-4 -2 -15 -2 h-12q-6 -4 -4 -12q-14 0 -17 -16.5t-20 -14.5q-4 -49 -4 -143q-2 0 -11 -13.5t-18 -13.5q0 -14 -21.5 -21.5t-21.5 -23.5h-12q-2 4 -8 6h-12q2 14 -14.5 14t-18.5 4q4 14 4 29q0 18 -14.5 51t-12.5 56q10 2 11 14v18q14 16 30 52q53 51 95 57q12 12 86 27q57 12 71 49 q-2 14 14.5 23t18.5 20v59h10q6 27 0 53h-8q0 80 0 70q-2 37 -23 55q4 33 -34.5 48.5t-40.5 37.5h-6q-6 20 -48 37q-8 14 -24 14q-10 0 -29.5 -6t-25.5 -6h-13v2q-14 6 -26 6t-34 -9t-39 -8t-38 -20q-12 4 -15 -7t-5 -23q-4 -18 10 -49q6 -6 14 -14.5t19 -6.5q18 -70 18 -67 q10 -10 12 -43q-6 0 -6 -3q2 -10 -14.5 -15t-16.5 -17q-14 4 -18 -13.5t-10 -17.5q-6 -16 -30.5 -28.5t-27.5 -26.5h-98q-8 25 -57 55q-43 25 -43 63h-10v37q12 -8 14 7q0 14 -4 16h-10q0 18 -2 20h-9q0 10 -16 43l2 13q6 8 13 17t3 24q10 0 11 2v8q6 -4 10 0q6 4 2 12v10 q10 4 9 18.5t5 18.5q31 10 88 82q39 6 58 27q20 10 98 24q63 12 88 39q66 10 133 0q2 -6 10 -8h13q0 -10 14 -10h10q2 -4 13 -6h10v-4q14 -6 69 2v-2q25 -8 76 -21q72 -55 103 -119q16 -8 22 -47t27 -47q10 -6 10 -29zM723 113q0 4 6 -62q2 -33 -12 -57q-18 -16 -43 -53 q-18 -4 -24.5 -7.5t-8.5 -13.5l-72 2q-2 8 -12 12q-8 -2 -18.5 7.5t-15.5 9.5t-27 18q-16 12 -15 33h-6v31h6q12 35 0 69h-6q2 12 19.5 27.5t21.5 32.5q27 10 90 24v11q10 -2 37 -4q8 -20 39 -33q16 -10 33 -47h8z" />
<glyph unicode="@" d="M481 782q-14 -6 -27.5 -14t-9.5 -25q-8 -4 -14 -14q-2 -16 -24.5 -20t-22.5 -17h-10q-2 8 -11 15q-4 -2 -8 -2q-6 0 -8 10t-4 12v37q6 -4 6 10t16.5 30.5t18.5 31.5q23 -2 66 22q23 0 26 14zM1298 743v-10q-10 -4 -10 -16v-21q-6 -16 -28 -41q0 -35 -15 -94 q-16 -29 -57 -57l-4 -103h-4q-4 -8 -4 -51q0 -31 -21 -35q-8 -20 -55 -47q-12 4 -25.5 -4t-21.5 -8l-4 -37q-4 10 -31 10q-4 -4 -4 -10q-4 2 -2 21q12 -4 17 10t13 16v39q0 4 15 33q29 16 41 37q4 16 -6 41q8 6 6 22v33q8 -8 8 2v10q14 -4 18 12.5t9 18.5v10q8 0 8 11v10 q6 -4 12 -4t9 18.5t20 15.5q0 14 -4 17h-11v35q14 -4 15 20q0 14 -2 17h-11q2 8 2 12q0 12 -18 19t-18 18q0 6 4 12q-4 8 -4 47q-2 31 -17 39q2 2 12.5 15.5t6.5 25.5q4 0 6 10q0 20 -20.5 44t-22.5 44q-12 6 -25.5 38t-34.5 34q-10 25 -35.5 40t-50.5 30q0 10 -17 14 t-19 10q-12 8 -41 17v4l-72 4v6q-31 10 -109 12q0 10 -6 10h-14q0 2 -2 7q-18 -12 -56 -21q-47 -8 -61 -14q-109 -6 -133 -78v-4h-10q-2 10 -11 14h-14q2 10 -22 10q-16 6 -17.5 -8t-5.5 -15t-45 -24q-27 -12 -37 -32q-66 0 -82 -7q8 -8 8 -34q-8 -14 -24 -39v-11 q-8 2 -12.5 -3t-1.5 -11v-10q-10 -4 -13.5 -40t-27.5 -34q-12 -14 -23.5 -28.5t-11.5 -30.5q0 -10 4 -18.5t22 -22.5v-31q-6 -2 -8 -12q8 -8 8 -33q-2 -33 -2 -35q-33 -29 -39 -37q-16 -20 -10 -51q-2 -12 -18.5 -23.5t-18.5 -21.5q6 -2 9.5 -13.5t13.5 -11.5v-43 q0 -27 22.5 -36t39 -59t46.5 -60q4 -12 2 -53q-4 -33 11 -50h12q2 -4 8 -6q16 -6 31.5 -30.5t28.5 -30.5q-4 -12 3 -21.5t13 -17.5q35 -6 49 -25q0 2 8 -37q25 6 50.5 13.5t52.5 3.5q12 -18 19 -26.5t26 -8.5v-4q6 -2 51 -4v-2q66 -16 98 2q4 -10 23.5 -10t27.5 -4 q-10 -10 2 -11q4 0 5 11q-4 0 157 8v4q18 -8 43 -8q18 0 54 6t53 6q0 -6 2 -6q14 25 55 61q12 -4 16.5 9.5t8.5 27.5q12 2 14 18q-2 14 -2 29q2 8 8 13.5t33 35.5q20 23 47 29q4 6 25.5 13t23.5 24q2 -4 33 -4q-4 -16 3 -31.5t3 -30.5q-8 -2 -8 -14v-18q0 -8 -12 -9 q-2 -18 -23.5 -39.5t-26.5 -37.5v-17q-10 0 -14 -15.5t-10 -19.5q-6 -10 -39 -17t-35 -28q-10 -4 -55 -4q-35 2 -41 -20q-6 -6 -25 -17v-12q-12 0 -30.5 -14.5t-34.5 -12.5q0 -4 -17 -4q-2 6 -12 8.5t-12 8.5q-16 -18 -82 -33v-6l-12 10q-18 -25 -80 -25q-82 2 -92 0v-10 h-105q0 10 -4 15q-8 -14 -31 -15q-47 0 -41 2q-6 14 -24.5 18.5t-36.5 8.5q-14 14 -47 31q-25 20 -78 53q-20 16 -68 47q-2 4 -26 4q-4 10 -72 59q-27 0 -28 45.5t-21 51.5q-4 27 -8 42t-19 25h-6q-4 4 -14 27q-6 14 -21 14q-2 4 -2 22.5t-14 18.5v37h10q8 25 8 70v73 q25 8 35 37q-10 2 -10 19q2 23 2 22q8 -4 10 10q0 8 8.5 19.5t8.5 19.5q0 6 -4 13q10 -4 12 10v14h2q14 25 2 51h-4q8 6 8 29v33q2 14 16 16v51q0 31 15 43v11l14 14q2 12 26.5 23.5t24.5 33.5v25q4 -4 8 -4l11 27q-4 8 6 16t10 14q0 4 -4 10q25 -2 31 32t33 30l32 4 q20 2 25 14q8 -2 14 4.5t2 12.5q-6 12 -6 45q80 70 148 59q4 10 35.5 13.5t33.5 23.5q16 -2 37 8q31 14 35 17q43 27 127 32q27 2 151 0l9 9q6 -8 41 -9q8 -6 20 -13t27 -3v-4q4 -4 43 -4q0 -10 14 -10h10q23 -10 58 -35q12 -2 36 -8q4 -10 35 -11q6 -29 31 -24 q-4 -6 -4 -13q0 -10 27 -28h10q-2 -27 23.5 -57.5t23.5 -55.5q16 -6 23.5 -41t19.5 -45q-7 -121 24 -201zM961 860l-3 -14q-10 0 -12 -2q0 -6 8.5 -11.5t3.5 -13.5q-8 -4 -15 -7t-7 -13q-6 0 -14 -6v-9q-10 0 -11 -2v-14q-8 4 -18 -16v-93q-35 -33 -25 -81q-23 -20 -18 -31 q-10 6 -10 -10v-13q-2 -2 -8.5 -18.5t-14.5 -16.5q-4 0 -12 5q4 -14 -11 -22l-16 -9q2 -4 17 -6q-2 -12 -2 -23q0 -14 11 -43t7 -51h6q4 -8 6 -53q0 -33 15 -45q-8 -4 -9 -27q-2 0 -6 -4q4 -31 68 -61q-8 -16 -42 -14.5t-40 -6.5q-4 2 -10 11.5t-15 4.5q2 6 2 11q0 8 -10 16 t-10 16l-123 -6v-6q-12 -8 -51 -10q-31 -2 -41 -16q-16 6 -20.5 -10.5t-8.5 -16.5q-41 -18 -102 -14q0 8 -17 8q-16 0 -16 -4v-2h-10q0 6 -15 6h-10q-23 8 -51 41h-6q-8 8 -11 31.5t-12 27.5v129h45v-8q4 -2 41 -4q16 -8 33 -19.5t15 -33.5q18 -25 53 -35v-4q18 -4 37 -4 q16 0 52 6t58 6q33 -4 37 41q6 55 23 65q0 16 17 39t19 41q6 2 12.5 5t2.5 14v10q4 0 10 2v14q8 -4 15.5 5.5t9.5 11.5q4 10 4 18q0 10 -11.5 26.5t-11.5 28.5q0 6 2 15q10 -10 10 10v10q0 2 9.5 14.5t5.5 26.5q4 2 10 4q-16 12 -16 47v56q-4 29 -23 37q-10 59 -51 81 q14 0 14 19v27q-16 4 -37 16q12 23 45 16v-16q-4 2 -12 -6q0 -10 8 -19q37 18 43 19v-4q18 -6 37 -6q14 0 43 7t43 7v10q16 0 17.5 3t17.5 3q2 -4 6 -6h15q4 -10 28 -29q18 -16 19 -30q0 -11 -6 -23zM391 610q-10 0 -10 -30q-10 2 -35 4q-2 6 -17.5 19t-15.5 26q0 8 4 16 q6 -2 31 25v6q0 -10 19.5 -27.5t17.5 -38.5h6zM287 440v-20h-2v20h2z" />
<glyph unicode="A" d="M1249 57q-10 0 -10 -12v-10q-8 4 -14 -5.5t-8 -9.5q2 -8 -8.5 -13t-14.5 -5t-14 -4v-10q-47 -6 -62 -25q-2 2 -6 4q-6 4 -8 0q-35 -14 -98 -14q-125 2 -109 2q0 10 -16 10h-13q0 6 -10 6h-12q-2 10 -12 11h-21q-2 2 -16.5 8t-14.5 18q-14 -2 -20 10q-12 16 -12 17v31 q6 4 8 14q10 14 35 51v8q10 6 19 23.5t17 21.5q-2 8 5.5 17.5t7.5 13.5t-6 12q-12 25 -31 90h-10q0 33 -9 39q-12 -4 -16 13q-20 -10 -68 -17q-14 -2 -106 -2q0 8 -10 8q-20 -12 -47 -6v2q-14 6 -27 6q-16 0 -37 -10l-31 -16v-12q-14 -14 -38 -52q-29 -14 -23 -51 q10 -8 17.5 -35.5t29.5 -29.5q14 -12 35 -39q2 -6 18.5 -24.5t16.5 -29.5q0 -10 -6 -18q-10 2 -18.5 -5t-14.5 -7v-13q-55 -10 -178 -8v4q-10 4 -21 4q-10 0 -26.5 -5t-26.5 -5t-19 4v2l-71 9q-2 2 -4 22q-2 14 -19 12q2 18 -2 19h-4v14q8 -6 8 2v14q14 12 56 21v6 q23 0 24 4v6h10q-2 -4 2 -10q8 4 20.5 16.5t25 13.5t14.5 17v27q-10 2 -8 16q0 10 2 23h4q6 12 6 28q0 14 -5 39t-5 35q0 29 41 33q0 2 16 27q10 18 10 36q6 -2 10.5 6.5t6.5 13.5t2 11q0 14 -15.5 29.5t-19.5 25.5h-10q-4 14 20.5 21.5t24.5 23.5q0 6 -2 13q2 -2 6 2 q2 2 0 6q2 18 28.5 37.5t26.5 42.5q2 2 11.5 8t5.5 16q12 -2 20 2.5t4 16.5q0 12 -4 14h-10v39l10 -2q10 27 0 53h-8v25h10q10 18 10 39q0 16 -8 42.5t-8 37.5q0 27 33 43l4 69q10 0 10 13q-16 35 -8 122h6l4 84q4 -8 10 -8q2 0 11.5 6.5t15.5 5t13 12t14 13.5q6 0 14 -8h22 q0 -8 10.5 -9t18.5 -2t12 -5h19q2 -4 8 -5.5t11 -10.5t12 -9q4 0 8 2q0 -10 10 -10q14 -10 27.5 -23.5t15.5 -34.5q18 -12 25 -45q10 -53 10 -55q-10 10 -10 -6q12 -20 26 -62q-4 0 -10 -6q6 -12 8 -69q2 -45 27 -54q-2 -37 2 -43h10q-6 -27 8 -55q18 -35 19 -51 q18 -4 24 -34t17 -36q4 -37 30 -94q6 -25 23 -29q0 -14 4 -14h10q-2 -14 -2 -28.5t-12 -18.5q20 -78 29 -100q20 -53 47 -84q6 -51 28 -66q-2 -23 8 -22h13q4 -6 20.5 -19.5t14.5 -25.5q12 -8 25 -15.5t26 -5.5q0 -8 10 -8h10v-4q8 -4 47 -4q4 -12 29 -13q-4 -18 5 -38.5 t9 -28.5q0 -11 -4 -21zM735 549q4 14 -4 28.5t-8 22.5q-10 29 -31 82q0 2 10 2v43q-16 16 -22 57q-6 2 -13.5 21.5t-21.5 21.5q2 6 2 15q0 10 -4 25.5t-4 21.5q0 8 4 14q-14 12 -22 12q2 0 -33 -20q0 -2 -4 -20.5t-15 -18.5q0 -33 13 -35q6 -47 -4 -65q-14 -8 -28.5 -34 t-27.5 -32q0 -25 -14 -28l-2 -56h-4v-39q16 -8 14 -41q0 -41 4 -49h10q18 -16 70 2q47 62 135 70z" />
<glyph unicode="B" d="M1126 342q-10 -2 -10 -14q-2 -20 -4 -21.5t-4 -9.5v-14q-10 0 -10 -11v-12q-6 -2 -8 -8v-14h-3q-4 -6 -4 -48q-20 -18 -39 -69v-10q-10 0 -14 -2q0 -12 -12 -19.5t-17 -15.5q-10 -2 -23 -14.5t-28 -12.5v-10q-18 2 -34.5 -20.5t-32.5 -22.5q-6 0 -17 2q-10 -2 -65 -16 q-39 -12 -70 -13q-16 0 -33 2v4q-70 10 -88 -2q-2 0 -14 10.5t-27 8.5q-43 16 -57 14q0 -12 -15.5 -19.5t-13.5 -21.5q0 10 -14 10q-6 2 -16 -4v-6q-6 10 -27 10h-35q6 6 -4 7q-2 -8 -16 -7h-21q-10 -2 -8 -16q-16 0 -16 -4q-8 -2 -19 -4q-12 -2 -20 0q-10 2 -11 12 q-12 2 -31.5 19.5t-43.5 11.5q0 8 -11 8q-14 0 -16 -4v-2q-29 12 -20 35q18 2 38.5 6t22.5 22v9q8 2 10 12v10q10 0 15 8v10q10 -2 12 8.5t6 12.5q2 20 -11.5 40.5t-13.5 39.5h-6q18 55 15 106q10 -2 13 10.5t5 14.5l21 -2l4 59q2 0 6 4v13q16 -2 35 8q14 -23 26 -84h10v-90 q-8 2 -18 -17q0 -6 8 -39h10v-10q-8 2 -12 -7t-6 -9q0 -4 6 -35h10q4 -20 23.5 -38.5t38.5 -35.5q14 -2 31 -16q8 2 8 12h35v-10q63 -10 122 0v10q119 -2 142 19h10q-2 -4 4 -11q12 14 45 26.5t45 25.5q2 12 20.5 30.5t14.5 40.5q23 4 43 23v14q8 2 6 14v21h4q4 35 9 72 q2 37 -21 65q0 12 -6 33h-8q-18 47 -54 59q-10 37 -45 52h-10q0 12 -9 14t-11 6q-14 10 -47 33l-11 -10q0 10 -14 10q-70 -23 -115 -10q0 10 -12 10q-12 -10 -39 -8h-45q-16 6 -18 26.5t-4 38.5q-4 -2 -5 -14h-20l-8 8q-10 -23 -41 -61q-2 -10 -27.5 -22.5t-25.5 -33.5v-10 q-6 -2 -9.5 7t-11.5 9q-4 -6 -4 -27.5t-12 -23.5q-12 16 -9 31q8 -2 9 14q-4 6 -6 27q-2 14 -19 14q-12 20 -41 49q-6 16 0 62q4 39 -16 53q2 33 -13 82v14q10 2 11 15q0 25 0 24q-10 6 -8 25v31q29 8 28 45q0 4 -2 16v18q0 25 12 37q-4 25 -24 66q2 18 -14 24q-23 6 -27 15 h-57q-125 2 -117 69q14 20 35 37q49 37 116 41q6 0 20.5 -10t29.5 -8q4 -8 6 -8t9 8t15 8q4 12 18.5 23.5t30 19.5t66.5 6v-2q117 -16 182 0q2 -8 15 -6h20q2 -12 27.5 -15.5t27.5 -19.5q6 8 29 8t29 4l73 11v10h4v-10l72 -9q4 -4 13.5 -8t33 -19.5t35.5 -21.5 q8 -20 42 -44.5t36 -53.5h10q4 -18 8 -25q4 -14 17 -16q-4 -14 -4 -25q0 -23 23.5 -48t23.5 -48q0 -14 -6 -31h-9q-4 -51 -6 -63q-8 -33 -24 -51l-2 -11q-10 0 -13 -6v-6q-10 0 -10 -4v-10q-10 4 -13 -4t-5 -10q0 -12 -17.5 -26.5t-17.5 -27.5q0 -4 -11.5 -21.5t-7.5 -33.5 q-4 -6 -6 -12v-19q0 -4 10.5 -10t6.5 -14q16 -23 65 -60q-2 -6 6 -24h11q27 -70 61 -115q0 -6 12 -39q8 -24 4 -47zM94 25q-35 -45 -84 -64q-16 -4 -22 19.5t-21 21.5q-2 4 -4 6q0 6 11.5 7t13.5 3q16 10 45 39q2 -12 43 -16q16 0 18 -16zM872 899q8 20 9 37q0 23 -25 57.5 t-27 55.5q-14 0 -14 24l-12 3t-10 14q-14 0 -36 9t-38 5q-43 8 -47 43h-10q-10 0 -5 6q-39 6 -57 -12q-35 -6 -63 0v8q-23 -8 -66 -29q-16 -16 -34.5 -35.5t-14.5 -48.5q10 -23 8 -43q-4 -23 -8 -43q-10 -2 -18.5 -14t-16.5 -14v-17q27 -37 23 -53h8l8 -68q8 -8 9 -31.5 t5 -28.5t11.5 -18.5t19.5 -11.5q2 -4 12.5 -6t8.5 -12q6 31 54 47t60 31q63 4 172 30q6 12 26.5 27.5t26.5 30.5q18 4 24.5 27.5t16.5 29.5z" />
<glyph unicode="C" d="M1130 1077h-6q-4 -8 -4 -53q-4 -18 -24 -45q-4 -12 -4 -21q0 -10 12 -24t12 -27q0 -6 -4 -16q-10 0 -10 -10v-19q-8 -2 -6 -14v-21q-8 0 -9 -16v-10q-10 -2 -10 -15v-18q-20 0 -16 -10v-13q-4 -6 -6 -10q0 -10 -4 -14q-39 29 -101 24q-6 12 -28 19l6 45q0 4 10 20 q8 12 0 23q-4 20 -29.5 47t-33 39t-19.5 66q-8 43 -39 51h-14q-2 14 -19.5 18t-33.5 8h-13q-35 29 -47 25v4q-6 2 -39 2v4q-18 8 -35 8q-18 0 -44.5 -15t-41.5 -17q-8 -8 -16 -35q-61 -16 -78 -49q-8 0 -10 -7q0 -6 2 -14v-12q-8 0 -8 -8v-15q-2 -6 -10 -4q-6 -27 -30 -59.5 t-30 -52.5q-2 2 -6 0q-4 -4 -4 -7v-14q-4 0 -6 -6v-12q-6 2 -8 2q-6 0 -8.5 -10.5t-8.5 -12.5l-6 -327q-20 -6 -23.5 -36t-3.5 -57q-8 -2 -10 -10q-6 -14 7.5 -18t11.5 -15l10 13q12 -35 33 -27q-2 -25 6 -63q-2 -10 -32 -13.5t-28 -23.5q-8 0 -10 -6h2v-15h-2q4 12 4 23 q0 14 -14 32.5t-14 30.5q0 10 4 23q8 -6 10 0q4 6 0 12l2 14q8 2 9 13.5t1 23.5q-31 4 -37 55.5t-26 61.5q0 35 -27 51q6 35 -4 103h-8q4 20 -8 51v10q10 -2 10 16v13h6q4 14 4 69q0 45 19 62q0 8 8 22.5t4 26.5q8 -4 8 10q0 8 10.5 21.5t5.5 27.5h5q2 8 4 45q0 29 10 39 t19.5 21.5t6.5 23.5q12 2 12.5 23.5t4.5 27.5q20 10 42.5 22.5t29.5 33.5q12 -2 15 8t5 18q10 0 12 3.5t37 29.5q20 4 64 31q37 25 67 24q16 0 37 -6q4 2 4 13l12 -13q4 2 5 13q10 -2 18 -2q12 0 30.5 5t28.5 5t19 -2q2 -8 14 -8q16 2 21 0q6 -12 25.5 -16.5t35.5 -6.5 q-4 -10 8 -10h13q4 -6 10 -8h14v-2q16 -8 33 -9q16 0 45 14.5t47 14.5q10 0 21 -2v-6q29 2 53 -12q39 -23 41 -23q16 -23 16 -57q-4 -2 -10 -4q0 -18 14 -48t10 -53zM1081 258h-6q-2 -29 -6 -56.5t-20 -39.5q-4 -12 -5 -37q-23 0 -24 -4v-12q-10 -20 -39 -52l-2 -12 q-29 6 -70 -27v-10l-22 -24q-12 -12 -35 -11q-72 -27 -100 -26v-6h-113q0 10 -8 10q-2 0 -2 -8q0 8 -27 10q-4 0 -4 -10h-53v6q-76 2 -172 80q2 2 -6 18h-15q4 14 -9 21.5t-13 17.5q-10 2 -22.5 19.5t-24.5 19.5l2 68h18q-2 -12 10.5 -15.5t14.5 -9.5q0 10 15 23.5t15 25.5 q0 8 -4 19q4 -4 5 -26t22 -20h10q8 -16 33 -32q35 -20 38 -22.5t14 -12.5t24 -6q4 -10 29.5 -19.5t29.5 -25.5q2 -2 25 -2v-4q14 -6 30 -7q12 0 41 6.5t47 6.5v10q27 8 54.5 18.5t29.5 38.5q6 6 39 19q25 8 27 28q8 2 16 13v10q12 6 11.5 38t15.5 32q2 2 11 24.5t40 54.5 q6 23 24.5 32t37 15.5t39.5 2.5q-2 -6 16 -7h10q12 -29 10 -71q-4 -56 -2 -72zM981 227l-5 -4t-7 -4h12v8z" />
<glyph unicode="D" d="M1133 737l-3 -121q-18 -10 -24 -36q2 -14 24 -27l-2 -78q-10 2 -10 -20v-15q-2 4 -10 -2q10 -2 10 -16v-25q-12 -10 -12 -30q2 -29 -2 -37q-10 2 -10 -12.5t-7 -18.5v-10q-2 0 -11 -13.5t-3 -25.5q-10 -8 -22.5 -29.5t-28.5 -27.5q-14 -18 -31 -60q-18 0 -35 -16 q-25 -23 -26 -25q-23 -12 -82 -33q0 -6 -8.5 -12t-8.5 -10q2 -4 5 -8q-63 -4 -82 -29q-41 -20 -148 -25q-12 -12 -43 -12h-49q-18 -2 -27 -14q-47 4 -125 -8q-6 10 -22 10h-29q-18 -10 -47 -10l-57 2q0 10 -12 10q-8 0 -15 -8v-2q-20 8 -43 8q-10 0 -59 -8q-39 -4 -66 2 q4 2 -4 10h-10q2 10 -10.5 11t-12.5 5t5 11q-12 10 -37 26v82q14 -4 29.5 4t27.5 8q51 25 129 19q0 -2 2 -6q16 4 51 10q12 16 41 43l4 147h4q4 27 -4 69t-8 62h-6v41h6q6 8 6 54q0 35 23 41q6 -4 12 0q6 2 2 10q2 8 0 14q-4 6 -10 2h-14v45q18 4 18 33v43q14 6 15 30.5 t3 47.5q14 0 17 4v10q33 -10 33 13q0 4 -1 13t-17.5 17t-20.5 21h-11q-4 29 -32 78q4 20 -2 41q-12 33 -14.5 39t-30.5 10q-20 2 -19 18q-31 8 -35 6q2 12 -9 16.5t-13 12.5h-17q0 10 -20 10q-12 2 -25 2q-10 8 -16 41t-29 33q-8 0 -16 -2q-4 10 -24.5 25.5t-20.5 27.5 q0 6 4 14q16 0 47 13.5t55 9.5q-2 -18 2 -23q-2 16 12.5 28.5t16.5 21.5h12q0 -10 15 -11q8 6 86 9q25 2 39 8h43v-4q4 -4 41 -4q2 -8 11 -10.5t11 -6.5q4 8 15.5 12.5t15.5 10.5q0 -6 6 -8q4 -2 12 0q10 2 13 2q0 -10 12 -11h10q0 -8 6 -8q29 8 81 6t75 4q8 -4 86 -6 q31 0 45 -6v-4q14 -2 41 -6q2 -6 6 -8q14 0 27.5 -16.5t25.5 -16.5q2 -6 37 -21q-4 -10 7.5 -11t13.5 -3h10q2 -4 4 -10h12q8 -14 37 -33q23 -16 27 -39h10q0 -14 4 -14h6q0 -10 2 -12q10 4 11.5 -1.5t3.5 -9.5q31 -37 43 -75h14q4 -6 4 -52q0 -33 25 -32q0 -4 10 -48h6 q14 -20 12 -65q0 -55 2 -70h9zM977 723h-10q-14 53 -2 141q0 2 -13 27q-8 14 -6 31h-14q-10 27 -43 77q-18 2 -29.5 31t-28.5 33l-11 4t-7 16q-10 -2 -14 -16q-49 -6 -62 4q-29 27 -100 62q-10 0 -10 10l-90 2q-39 -25 -70 -25q-14 0 -29 4v4l-30 -16q-20 6 -26.5 -15.5 t-14.5 -25.5q0 -12 16 -49q0 -4 2 -23l-8 -12v-12q-6 -35 -25 -47q4 -10 0 -31q-6 -25 -6 -31q0 -20 27 -20q-2 -106 24 -174q0 -14 -6 -10q2 -16 -12 -35q-2 -10 -2 -21q0 -12 5 -33.5t5 -33.5q0 -14 -6 -29h-2q-2 -2 0 -21q-4 -4 -7 -10t-3 -14t6 -19.5t6 -17.5t-4 -12 q4 -12 20 -45q14 -25 15 -45q0 -14 -4 -29h-9q4 -33 -8 -90q2 -6 11.5 -24.5t5.5 -37.5q29 -23 51 -30l6 6q2 -2 4 -6q31 2 84 -13q12 10 88 33q10 20 49 23q61 4 66 4q2 14 22.5 13t24.5 3q16 29 51 90q20 14 37 43q-4 25 8 41.5t25 30.5q-4 16 3 29.5t13 27.5q0 12 6 13 l2 188q8 2 12.5 17.5t16.5 13.5v51z" />
<glyph unicode="E" d="M1239 1161q-47 -10 -76 -53q-4 0 -4 -10q4 -4 10 -4q10 -20 13 -72q-12 -4 -15 -33q-6 0 -8 -8v-14q-2 0 -6 -2h-4q8 0 8 -9v-14t10 -4q6 -14 7 -25q0 -14 -16.5 -32.5t-20.5 -26.5q-10 -59 -11 -59q-4 4 -10 0q-6 -2 -2 -11v-12q-6 -8 -13 -18.5t-3 -24.5 q-6 12 -30 27.5t-30 31.5q-10 0 -14 13.5t-16 11.5q-10 18 -17 16q-4 -2 -6 -2q-4 0 -7 10.5t-7 10.5q10 6 10 10t-7 13.5t-5 15.5q-23 47 -54 145h-24q2 10 -10 10h-19q0 6 -12 7h-12q2 6 -6 8l-9 2h-12v4q-4 2 -39 2q0 2 -4 8q-4 -2 -17.5 -10t-23.5 -4v4q-12 4 -20 4 t-23.5 -5t-24.5 -5q-8 0 -19 7t-38 23q-20 4 -47 27q-4 0 -4 -10q-27 0 -58.5 -24.5t-50.5 -26.5q-12 -16 -45 -45q16 -20 34 -43t9 -52h4q-6 -4 -6 -26q-6 -4 -5 -14.5t-7 -12.5l-14 -2q-2 -6 -20.5 -14t-12.5 -25q-6 -18 10.5 -29.5t16.5 -19.5q0 -6 -5 -16h-4 q-4 -8 -4 -49l35 -33q39 12 59 28q4 0 27 -12q14 -8 33 -4q0 -6 6 -6q14 0 16 2v4q4 -6 11 -6q4 0 15 6t19 6q43 14 54 62q16 -8 16 18v10h4q2 6 2 39q-25 6 -24 41q2 63 4 58q12 2 18 14q10 25 10 24v25q-2 -12 15 -16q12 -2 22 4q4 -18 6 -35q6 -23 25 -25q10 -18 16 -16 q0 -33 23 -55v-23q-6 2 -10 2q-8 0 -13.5 -12t-9.5 -12q-8 -16 -8 -29q0 -14 16.5 -35.5t16.5 -38.5q0 -12 -6 -28q-18 -12 -3 -78q4 -4 15 -4q-2 -86 18 -101q-10 -4 -20 -16q-25 -14 -21 -49q4 -4 27 -21q16 -12 16 -26q0 -8 -4 -19q-10 -6 -21.5 -29.5t-27.5 -27.5 q-4 -12 -21.5 -14.5t-21.5 -8.5q-25 20 -74 64q2 41 -6 127h-6q-18 98 -66 123q-12 6 -22 6q-14 0 -36.5 -12.5t-37.5 -12.5q-12 0 -24 4q-6 16 -35 17h-41q-10 -2 -10 -39q-10 0 -25.5 -12.5t-26.5 -8.5q-8 -12 -8 -92h-10q4 53 -4 150q6 2 6 16v23l-2 4q6 6 2 16 q0 18 -22 43l2 78q12 0 12 17.5t4 21.5h2q14 49 -18 88q-4 35 -21 51q2 12 2 23q0 43 -45 75q-25 18 -86 47q6 10 -16 11h-11q0 2 -34.5 15t-34.5 15q-53 -6 -80 60q-10 47 41 47q16 0 35 -4q6 -4 61 11t60 15q0 -2 4 -8q6 10 55 27l94 6q-2 -10 4 -10q4 -2 10 2h3 q25 -12 49 0v6h12v-6q4 -4 39 -4v-2q78 -12 252 12v4q12 -18 53 -18h64q2 -4 6 -7q14 0 16 5q14 -2 16 2q2 -4 11 -7h12q2 -4 4 -10q25 6 53.5 12.5t57.5 2.5q2 -4 8 -7h14q-6 -10 6 -10h13q10 -16 36 -10q25 -25 31 -25q4 0 10 2l54 -36q8 -8 18 -9q6 0 24.5 7.5t30.5 7.5 q8 0 17 -4q-2 -6 6 -17h4zM1159 139v-55h-6q2 -23 -9 -55.5t-11 -51.5q0 -10 2 -22q-8 4 -10.5 -6t-6.5 -15v-8q-20 -4 -33 -16h-131q-2 2 -13 11t-26 7q-2 6 -14 6h-20v5q-14 0 -45 6q-2 2 -5 6h-12q0 10 -4 14q-8 -14 -33 -14q-47 0 -41 2q0 10 -11 11t-11 5t2 8 q-2 4 -13.5 7.5t-9.5 11.5q-41 23 -88 0q2 -6 -8 -10t-10 -9q-16 0 -21 -4v-6q-10 2 -28.5 -2t-22.5 -4q-16 0 -20 16h-13q-2 4 -4 11q-10 -10 -32 -11h-39q0 10 -9.5 10.5t-9.5 4.5q-23 -4 -57 -23q-27 0 -29 41q-2 31 -2 62h-10v8q16 14 18 76q10 0 21.5 5t17.5 7l6 10 q6 -8 29 -59q16 -37 45 -47q23 -16 72 -2q6 -2 17 6t22 8q6 -18 22 -12q6 -2 19.5 -15.5t19.5 -13.5q4 2 6 4q14 -14 33 -10q4 4 4 10q6 -8 23 -2q4 16 37 21l51 4q-2 -6 4 -9q6 -2 14 3.5t115 25.5q0 14 14.5 24.5t16.5 12.5q14 10 14 39v51q4 2 6 6v15q10 -10 10 6 q0 8 12.5 22.5t12.5 24.5q0 6 -4 14l-6 51q10 -4 10 11q20 49 49 65q29 -6 58.5 -14t37.5 -33q-2 -10 -2 -18q0 -14 16.5 -35t14.5 -35h-2q-29 -107 10 -158zM195 53q-6 -4 -7 -37q4 -2 7 -12q-2 -6 -21 -33q-27 -10 -86 -16v-2q-2 8 -16 6h-23q-12 14 -39 14q0 6 -6 11h-8 q2 4 2 8q0 8 -12.5 16t-12.5 10h-10v21q27 12 88 35q12 -4 27 10q49 2 110 -14q0 -16 2 -17h5z" />
<glyph unicode="F" d="M1192 1063h-4q4 -76 2 -238q-4 -6 -20.5 -18t-16.5 -27q0 -6 2 -14q-8 -2 -6 -12v-19q-8 0 -8 -6v-10q-37 -31 -90 -23q-16 27 -64 68q-2 6 -17.5 16.5t-15.5 24.5l-6 57h-6v43q18 4 25 33q-4 51 -8.5 105.5t-34.5 70.5q-8 0 -22.5 8t-27.5 6q-16 12 -57 33q-31 4 -69 -4 q-53 -10 -64 -10q0 6 -14 6h-13v4q-23 0 -63 10q0 10 -4 11q-4 0 -4 -11q-6 2 -13 2q-12 0 -27.5 -12t-23.5 -12q-4 -8 -26.5 -10t-24.5 -21l-4 -65q-8 0 -12 -5q-2 -6 6 -16h6v-37q-14 4 -17.5 -10t-5.5 -16l-2 -21h-8q-6 -27 -2 -49h10v-10h-10q-2 -8 -4 -41 q-12 -10 -66 -8q0 8 -15 9t-26.5 14t-21.5 26q-4 33 -12 102q-12 6 -13 35q2 39 0 43q-4 18 -24 22q-10 14 -49 41q-29 18 -90 15q0 10 -11 10h-14q0 6 -12 6h-11q0 2 -2 5t-2 5q-2 -2 -6 -10q-4 6 -37 10q-25 4 -22 25v16q10 23 47 54q16 23 57 27.5t78 11.5v10h17v-10 q63 -12 122 -3l2 11h91q4 -12 27.5 -18.5t31.5 -16.5q31 10 88 8q66 0 90 4q10 4 66 2q45 -2 57 17h45q0 -18 39 -19q16 -2 39 -2q16 0 51 2t49 2q55 0 86 -20h37v-4q4 -4 39 -4q-4 -10 3 -14.5t15 -8.5q-2 14 -4 -51q0 -29 19 -37q-10 -2 -10 -14v-19q18 -45 16 -55z M842 866q4 -25 2 -39q-4 -27 -23 -24q-2 -14 -24.5 -32.5t-16.5 -37.5q25 -18 31 -71q8 -82 10 -91h-2q-2 -14 -8 -47h-4q-2 -35 -6 -69q0 -31 22 -54l-4 -61q-10 -2 -10 -14v-19q-6 0 -6 -10q-2 -14 2 -16h4q4 -25 -20.5 -39.5t-20.5 -34.5q-4 4 -8 6q-4 6 -6 -2l-21 -10 q4 16 -14.5 26.5t-18.5 20.5h-6q-8 14 -2 61q4 39 -16 49q0 66 -66 168q-8 12 -33.5 27.5t-35 33t-4.5 42.5q0 6 14 8t10 14l41 11q16 12 43 49q33 10 55 49h7q12 25 0 47h-7v27q6 2 12.5 13t12.5 38l47 47q6 -12 33 -29q20 -16 26 -37h11zM723 86l-2 -102q-6 2 -10 -5.5 t-6 -9.5q-39 -25 -74 -24q-16 0 -33 6q2 2 -1 6t-7 4q-10 16 -35 43q0 10 -4 14q-4 0 -10 -6v-10q-23 -12 -75 -22.5t-73 -20.5q-16 -2 -51 -5t-49 -7v-6h-45q0 8 -8 10h-17q-10 0 -12 7t-18 7h-15q0 4 -4 6q-37 -31 -127 -14q-20 8 -47 41q-4 6 -4 14q0 16 22 45 q37 37 78 29q33 10 101 27v2l6 -6q2 6 8 16q14 2 24.5 28.5t28.5 28.5q16 20 33.5 44t13.5 48q-4 10 -4 21q0 8 7.5 27.5t4.5 33.5h7q2 16 8 50q-31 14 -27 47q10 0 10 16q2 8 -2 18h-8v9q10 2 11 15t4 15q25 12 24 43q0 16 -4 19h-6l2 160q12 12 20 12q10 0 24.5 -16.5 t25.5 -20.5q0 -10 10 -16q14 -14 47 -37q-4 -14 11.5 -15.5t10.5 -11.5l29 -20q-14 -8 -18 -41t-23 -39q-4 -12 -10 -23q-6 -16 -2 -28q-16 4 -19.5 -10.5t-5.5 -16.5q-4 -10 -4 -21q0 -14 11.5 -41.5t9.5 -48.5h6v-20q-16 4 -19 -27l11 -100h6q0 -51 16 -62 q10 -4 22.5 -37.5t43.5 -25.5q2 -4 4 -10q4 0 10 6v10q47 20 51 49h53q31 0 33 -26q8 -11 31 -25z" />
<glyph unicode="G" d="M1231 516v-37q-16 0 -29.5 -22.5t-17.5 -24.5q-16 -14 -54 -31q-2 -12 -22.5 -25.5t-17.5 -27.5q-8 -2 -15 -12q0 -14 4 -17h11v-26q-12 2 -14.5 -10.5t-4.5 -14.5q6 -16 6 -32q0 -20 -12 -64.5t-8 -71.5l2 -26q-18 -23 -31 -64q-10 -4 -21.5 -22.5t-21.5 -20.5 q-2 -18 -24 -18q-47 2 -37 2q-4 8 -29 18.5t-25 26.5q-29 20 -47 16q-2 8 -12 11q-14 2 -16 -3q-18 -8 -38 -36.5t-61 -38.5l-67 -6v-7q-20 8 -75.5 12.5t-78.5 12.5v2q-10 -2 -16 -2q-20 0 -31.5 27.5t-21 33t-20.5 28t-28 22.5q-8 0 -16 -2q0 10 -14 10h-13q2 2 -4 6h-10 q-8 8 -16 37q-8 23 -23 28q-12 -4 -18 7.5t-13 11.5q-4 0 -10 -2q-8 18 -8 63q2 2 10 4q-27 23 -33 94.5t-26 94.5v33h4q6 10 6 20t-6 26.5t-6 26.5t4 21q6 0 7 11t7 11q-12 12 -19 47t-22 48q-2 8 -2 12q0 10 12.5 23.5t8.5 27.5q10 0 10 14q-10 6 -10 27v37h4q-2 10 -2 20 q0 23 23.5 53.5t19.5 57.5q12 4 14 21.5t4 33.5h2l8 58q10 0 14.5 18t13.5 23.5t44 42.5q27 31 59 32q8 6 17.5 14.5t7.5 22.5q16 -4 34.5 7.5t27.5 11.5v4q2 -6 18 -8.5t18 -8.5q0 6 13.5 7.5t9.5 5.5q6 -6 10 -7q2 2 4 41q0 29 21 33q2 2 10 2h14q4 4 2 15q55 -2 168 -2 q8 -14 27.5 -21.5t38.5 -13.5h20q2 -8 15 -8q16 2 20 0q-2 -4 2 -9q27 4 66 33l65 -2q4 -4 10 -6h11q4 -6 10 -10h10q12 -6 25.5 -23.5t23.5 -23.5q2 -18 -12 -41t-14 -37q0 -10 6 -23q23 -31 18 -71q-10 -2 -10 -15v-18q-6 0 -6 -15v-12q-6 6 -8 -4l8 -10q-8 0 -8 -6 q8 -16 8 -49q-2 -47 -2 -56q-20 -33 -45 -65h-21q-10 -2 -8 -15h-14v11q-6 4 -34 3t-34 11q-4 20 -10 42.5t-19.5 30t-25.5 14.5t-10 26q6 35 -21 69q-35 43 -37 58q-14 18 -43 53q-8 14 -16 47q-10 4 -27 41q-10 4 -21 19.5t-30 11.5q0 4 -2 8q-31 -23 -29 -41 q-27 4 -41 -12.5t-26 -30.5q-18 0 -47 -29t-58 -24v-9q-12 -18 -43 -41l-2 -59q-4 -4 -6 -10q-12 -4 -20 -47q-20 -6 -23.5 -44t-17.5 -46q-2 -10 -16.5 -23.5t-10.5 -30.5h-4q-4 -8 -4 -51h-4q-2 -6 -2 -49q-10 0 -9 -10.5t-12 -16.5q-2 -23 2 -63q-10 0 -10 -10 q16 -41 49 -129h6q-4 -18 4 -37q8 -25 9 -37q-10 -80 22 -86q0 4 0 -33q0 -20 15 -22q-2 -6 6 -33h12q-4 -27 23 -41l47 -4q16 -27 77 -82q6 -2 15 -2q8 0 21.5 6t21.5 6t16 -4q0 -4 6 -6h13v-4q12 -2 24 -2q27 0 88 45q10 14 10 43v47q6 0 7 14q31 35 65 119q6 0 10 4 q-6 10 -10 51q-4 35 -22 43q-12 41 -74 47q-2 49 -4 39q2 6 26 23q10 20 48 35.5t49 31.5q14 2 32.5 15.5t32.5 15.5h13q4 -6 14 -8h10q0 -8 12 -10h11q4 -4 10 -7q92 27 112 27t39 -4q2 -2 14.5 -12.5t24.5 -5.5q47 -41 49 -86q9 -11 17 -21zM289 207l-2 43 q-18 -18 -17 -27q10 4 12 -1z" />
<glyph unicode="H" d="M1284 1255v-26q-10 2 -12 -8.5t-6 -12.5q-25 -70 -88 -80h-13v5q-76 18 -116 -27q-14 -68 6 -168h6v-20q-10 2 -10 -25v-10h-4q-10 -18 -11 -56v-59h-8q-8 -74 6 -84v-33h-6q2 -12 2 -22q0 -23 -15.5 -54.5t-15.5 -46.5q0 -18 17 -36v-13q-18 -45 -15 -57q-10 0 -10 -14 q4 -10 8 -103q0 -27 9 -43q-8 -8 -15.5 -16t-3.5 -21q-4 -2 -6 -10q2 -12 10 -35.5t13 -36.5q20 -43 53 -41q2 -4 10 -6h14q8 -16 64 -18q2 -4 9 -5t15.5 -13.5t14.5 -14.5v-51q-18 -23 -64 -23l-37 -6q-2 2 -4 10q-49 -10 -131 -10l-135 2q0 10 -10 10h-10v5q-43 6 -62 20 q-18 27 -16 47q12 10 57 27q35 14 45 41q8 -4 31 18q-4 18 13.5 38t17.5 34q0 8 -2 16h2l8 160q25 4 24 29q8 55 -12 75q-8 -2 -11 3.5t-3 13.5q-14 47 -56 67v4q-16 2 -47 7v4l-159 4v4q-23 -2 -66 8t-72 6q0 4 -4 8l-14 -6q2 0 -2 6h-10q4 18 -11 41q4 -37 -12 -77 q-18 -47 -18 -68h-10l-9 -115q-2 2 -6 0q-4 -4 -4 -6q18 -109 8 -190h-4q-16 -76 10 -97l9 -2q0 -16 8 -16h12q2 -4 10 -6h15q0 -10 10 -10h20q18 -6 39 -31q-33 -72 -155 -78l-62 -2v4q-23 6 -47 0q-23 -4 -82 -4q-51 2 -80 -8q-2 10 -16 10h-27q6 8 -8 8q-16 8 -49 25v74 q10 -4 15 9t12 13q66 43 149 47v8q2 2 43 5q25 2 25 22q12 -4 28 21q-10 14 -14 55q4 6 15.5 15t11.5 18q0 6 -4 14h-9l2 59q14 4 17.5 22.5t5.5 35.5q-8 18 -8 57v57q10 10 10 19q0 4 -7 21.5t-3 31.5q10 2 12 12.5t6 10.5q-16 8 -16 20q0 2 2 10v13q0 10 -6 18q-8 2 -23 8 q0 10 -4 12h-10q-18 51 -23 119q4 14 -3 44t-7 40q0 20 14 35l2 27q12 2 15.5 28.5t17.5 28.5v16q8 0 8 4q-2 2 -6 3v10q6 -6 6 4q-6 0 -6 8v14q-2 6 -14 4v21q10 0 14 6q0 12 -16.5 28.5t-26.5 16.5q-14 23 -65 25h-80q-31 49 -31 69q0 12 7 24.5t24 12.5q6 0 18.5 -2 t16.5 -2q20 0 30 17q12 -2 29.5 4t26.5 6q8 0 16 -2q0 -8 12 -6h21q6 8 27.5 7t29.5 5v6q53 4 162 -2q8 -16 63 -23q-4 -10 6.5 -13t15.5 -3t14 -10t20 -8l-2 -62q-18 -2 -41 -22q-25 -2 -50.5 -31t-48.5 -29q-23 -31 -22 -100q0 -90 -2 -107q-25 -12 -14 -94q14 2 16 -8 l-2 -20q0 -12 8 -15q-6 -41 -45 -47q-10 -23 0 -37l16 6q-6 -8 4 -8h15l-2 -10q25 10 50.5 20.5t39.5 30.5l141 -2q8 -6 17.5 -13t23.5 -3q0 -2 2 -8q6 0 49 10q29 6 54 2q0 -2 2 -6q8 10 59 16q39 6 39 39q12 -2 13 9t7 11q-14 6 -28 45q4 10 -4.5 24.5t-6.5 23.5 q10 0 11 10v10q6 0 8 16q0 14 -13.5 37t-11.5 41q31 25 25 82q-31 41 -86 47q-4 8 -28.5 19.5t-22.5 32.5q-8 4 -27 40v31q8 0 8 6v11q35 0 54 32q14 -2 31.5 5.5t27.5 7.5t18 -2v-5q14 -4 29 -4q14 0 44 7.5t50 5.5v8q-4 -14 27 -14v-5q35 -2 69 -6q41 0 56 23h10 q-10 -14 12 -15h15q14 -10 57 -10q-4 -10 7 -13t13 -3q10 4 13.5 -8.5t13.5 -10.5z" />
<glyph unicode="I" d="M1030 1247q6 -47 -29 -76q-31 -20 -63 -43q-16 0 -47 5q0 6 -12 8q-8 -6 -37 -9.5t-33 -13.5q-16 4 -31 -4q-23 -12 -23.5 -14t-11 -13.5t-6.5 -25.5v-10q-4 -2 -6 -13v-14q-12 -4 -16 -27l-8 -358q-10 0 -13 -4q10 -8 13 -41q4 -39 8 -49q-6 8 -6 -2q-2 -12 10 -29.5 t12 -26.5q0 -8 -6 -14v-37h-4l-8 -74q-6 -6 -9.5 -31.5t-11.5 -31.5q-10 -33 0 -59q14 -14 39 -41t54.5 -53.5t66.5 -26.5q12 0 27 2v-4q4 -2 36 -6q23 -4 33 -17q10 4 14 -8l5 -12q25 -31 24 -33q0 -10 -14 -18q-4 2 -10 -3v-10q-10 -2 -28.5 -15t-35.5 -11v-7 q-16 4 -37 -6q-61 18 -123 2q-12 12 -57 4v-4q-4 8 -20 7h-27v8q-29 12 -76 8q-78 -8 -76 -8v-6q-37 -6 -110 -7q0 8 -15 9h-12v6q-23 12 -47 0v-6h-27q-12 4 -10 20q0 6 -11 18.5t-11 22.5q4 -2 8 -2t7 10t9 10q-6 0 -9 10.5t-15 8.5q-2 4 -2 10t14 14.5t16 18.5 q18 14 56 35q4 2 10 16h10q2 -10 14 -10h21q0 -4 6 -6h12q-4 -10 7 -10h14v-5q4 -2 39 -4q-6 -6 4 -6q23 10 46.5 22.5t27.5 37.5q6 -6 10 4q0 8 -6 10t-11.5 19.5t-11.5 19.5v49h2q4 6 4 41q16 10 9 76q-4 0 -7 8v12h2q27 94 -4 129q-14 2 -14 25h4q0 41 14 112v37h5 q14 53 -3 209q18 8 9 62q-12 10 -19.5 42.5t-12.5 42t-32.5 20.5t-27.5 32q-16 16 -37 18q6 0 -43 -4q-16 -20 -66 -20q-2 6 -8 8h-12q-6 16 -2 35q4 20 18 20q0 12 -2 26.5t-14 16.5l2 43q16 -2 37 10q4 -10 20 -10h29q-6 -6 4 -6q18 4 59 29q35 20 68 22l2 10 q25 -16 106 -18v-2q6 -4 41 -4q-8 -6 2 -6q14 0 41 18l90 -8v-2q6 -4 39 -4v-4l74 -4q0 -10 12 -11h21q2 -4 10 -6h12v-4q12 -2 37 -6q10 0 21.5 -15.5t19.5 -19.5z" />
<glyph unicode="J" d="M1190 1225q14 -12 14 -31q0 -35 -49 -72q-43 -18 -139 -32v8q-18 0 -49 2q-10 -20 -66 -31q-47 -10 -49 -45q-14 2 -16 -13.5t-9 -17.5v-14q-8 -6 -8 -24.5t-4 -22.5q-16 0 -10 -10v-11h-4l-10 -94q-6 -2 -11 -10q0 -6 4 -16h7q0 -47 16 -123h-4q-10 -18 -10 -52v-53h-7 q-10 -57 0 -114h9v-39h-9q-10 -66 2 -129h7v-45q-25 -8 -31 -39q-2 -6 -15.5 -19.5t-13.5 -25.5q0 -6 2 -13q-2 -20 -26 -45q-37 -88 -140 -104v-2l-10 6q0 -12 -15.5 -12t-13.5 -13q-4 2 -8 2q-8 0 -14 -11t-8 -11v-17q-20 -10 -68 -8h-72v2q-8 4 -55 4q2 4 -4 15 q-16 6 -24 22q-29 -12 -54 -12q-45 0 -84 45q-31 35 -61 72q2 25 -15.5 54.5t-19.5 47.5q-2 41 -8 117q6 2 10 10v14q14 0 21 17q10 25 10 24q16 0 25.5 21.5t19.5 21.5q6 0 16 -4q0 -4 6 -10q14 10 50 10h55q14 -2 28.5 -24.5t22.5 -26.5q31 -33 31 -129 q-4 -16 -27.5 -30.5t-25.5 -34.5q-14 -4 -15 -25q2 -31 0 -35q2 -2 15 -2q6 -18 26 -35q29 -27 33 -30h20v-7q18 -12 45 0v7h13q-2 -6 2 -8.5t13 -1.5t20.5 -11t15.5 -12q6 0 10 6q33 8 96 33v20h7q0 12 4 43q6 0 6 14q-4 8 4 12.5t10 8.5q2 25 5 52.5t22 37.5v14h4 q0 12 6 41h4q4 10 4 21q0 8 -6 24.5t-6 28.5q0 8 4 19h2q4 12 4 26q0 18 -8 48t-10 42q6 2 10 6v15q6 2 9 20.5t16 20.5q0 12 -5 37h-10l-2 217h15q6 20 -5 37h-10q-8 104 -29 147q0 2 -12 53q-6 33 -28 39q-35 29 -86 25q0 6 -15 6h-14q-2 4 -10 10q-10 2 -18.5 -6 t-18.5 -4q-4 8 -21.5 8t-23.5 4v8l-72 2q-2 8 -29 11q-8 0 -12 4q-14 68 5.5 76t66.5 12q25 4 57 33q39 0 68 22q63 -4 106 16v-8q90 2 273 -4v-8q33 0 77 -8l60 4v-4l149 -6q23 0 70 -41z" />
<glyph unicode="K" d="M1274 23q-2 -27 -25 -89q-12 4 -24 5q-12 0 -30.5 -5.5t-27.5 -5.5q-8 0 -12 2q-20 4 -41 -4q-27 -10 -31 -10v2q-6 4 -45 4v4q-16 2 -47 6q0 6 -12 9h-12q2 6 -15 6h-12v6q-74 0 -123 24q2 6 -4 11q-6 2 -12 0h-13v6q-23 -2 -61 6q0 4 -16 20v56q12 -8 12 16v10 q31 -2 37 2l16 12q17 13 17 27q0 6 -2 13q-8 10 -9 37v38q-4 16 -14 22.5t-16.5 27t-13.5 25.5t-9 44q-2 29 -24 29q-6 18 -11.5 40.5t-27.5 24.5q-18 20 -48 72q-8 4 -16 33q-6 23 -27 22q4 18 -8 28.5t-22 21.5h-8q-6 12 -12.5 24t-2.5 29q-27 12 -26 31q0 8 4 14t16 6 l8 94q8 -4 8 10v13q8 0 9.5 15t26 34.5t26.5 40.5q8 -6 8 12v14q10 -10 10 7v12q14 -2 30.5 9t33.5 9q10 4 10 25v31q4 8 19 22q2 12 8 37q-8 8 -14.5 16.5t-2.5 22.5h2l4 82q12 0 23.5 3t13.5 15q-4 0 76 19l8 16v-4q78 -10 154 0q35 -4 92 8q59 -25 119 -2q18 0 35 -14 q29 -23 30 -25h13q8 -20 8 -39q0 -25 -10 -43q-23 -33 -15 -32q-2 -6 -14 -7q-18 2 -23 0q4 -16 -12 -26t-16 -19q-74 -16 -117 13l-2 -7q-10 2 -23 3q-29 0 -65.5 -24t-56.5 -28q-18 -31 -70 -67q-14 -8 -41 -47q-23 -31 -47 -39q-2 -8 -13.5 -14.5t-13.5 -14.5 q-20 -25 -82 -55v-13q-4 -2 -10 -4q-4 -27 10 -67q16 -4 31 -23q18 -27 23 -30q4 -14 -11 -31q2 -20 17 -49q6 -16 16 -15q4 -6 27 -32q18 -18 18 -39q0 -10 -4 -23l4 -11t14 -9q4 0 5 -13q16 -4 34 -32q2 -16 19.5 -38t19.5 -38h13q2 -12 23.5 -30.5t21.5 -36t18 -29.5 q23 -20 27 -25q12 0 16 -16.5t16 -16.5q12 -14 56 -30q45 -2 123 6l4 -6q14 2 30 -11q35 -10 56 -49q8 -14 4 -67zM563 1186q-6 0 -6 -6v-11q-96 -16 -111 -14q-2 8 -12 6h-20q-4 0 -37 -10q-25 -8 -45 -2q-2 8 -11.5 9t-11.5 5q-12 0 -30.5 -11t-26.5 -11q-4 0 -8 4 q-2 -4 -27 -4q6 10 -8 10h-14q0 2 -2 6q-23 -8 -66 -24q2 -23 -3 -28t-30 -7q-18 -4 -33 20q-23 33 -32 39t-9 17q0 23 43 59q92 -25 150 -10v10q12 2 98 0q66 -2 90 20l121 -2q4 -14 23.5 -29.5t17.5 -35.5zM518 27q-4 -8 -30.5 -8.5t-28.5 -14.5q-8 -4 -53 -2 q-33 0 -37 -20h-50v8q-37 10 -67 0v-6q-23 0 -53.5 -8.5t-51.5 -8.5v-2q-10 23 -47 19q-47 -6 -61 2q0 4 -12.5 12t-12.5 16q0 6 4 15h2q-14 51 -12 61l51 33l47 -2q0 -10 3 -12q16 0 16 2q39 31 37 59h4q4 6 4 41q0 27 16 31v90q10 -4 11 10q0 8 -8.5 30.5t-8.5 30.5 q0 18 21 27q4 0 4 23h2q-2 23 9 57.5t11 52.5q0 12 -2 25q10 0 13 4q-16 12 -17 39q0 6 4 41q4 29 2 43h6q10 27 0 51q-16 23 -22 65q-8 8 -12 31q-6 31 -11.5 42t-5.5 24q0 16 16.5 42.5t16.5 47.5q0 14 -4 29q12 8 26.5 36.5t32.5 34.5q0 10 9 10q4 0 16 -4q10 -2 16 0 q4 -14 27.5 -34.5t23.5 -40.5q0 -8 -2 -17h7v-49q-27 -33 -35 -55q-6 -10 -6 -58q-31 -31 -23 -67q-27 -41 -27 -43q0 -10 25 -50t29 -59q25 4 61.5 34t65.5 30q12 0 22 -2l-4 -60q-8 0 -8 -10v-18q-6 -4 -18 -35q-8 -23 -25 -23q-10 2 -16 2q-14 0 -30 -15t-30 -15 q-4 -4 -4 -27q-6 0 -6 -16v-11q-29 -18 -25 -69q6 -2 9.5 -15.5t13.5 -11.5q-2 -8 -2 -16q0 -10 5 -24.5t5 -22.5t-2 -15h-2q-10 -74 4 -88q0 -6 6 -16q31 -20 45 -64q6 -23 37 -55q-2 -10 2 -10h12q0 -14 5 -17q25 14 59 5q12 -19 8 -39z" />
<glyph unicode="L" d="M1225 129h-4l-4 -70q-6 0 -9 -6q-2 -6 2 -10v-14q-2 0 -11 -12.5t-19 -10.5q-8 -10 -38 -17t-38 -22q-47 -8 -140.5 -7t-140.5 -7q6 10 -8 10h-14q-2 8 -13 8q-14 -2 -16 0q0 2 -8 11q-8 -8 -39 -11v4q-78 -2 -223 15l2 4q-25 2 -47 2q-43 0 -140 -21q-88 -20 -149 -14 q-2 10 -14 10h-19q-4 -4 -8 -10h-10v6q-12 0 -39 4q-2 0 -15.5 10.5t-23.5 6.5q-25 16 -19 75q2 23 39 89q31 -2 47 8v10q29 8 90.5 6t92.5 8q-2 6 5 9.5l11 5.5q4 16 -6 39q0 12 18 26q-2 18 2 49h5q-2 25 8 60h-4q-4 2 -4 16q4 4 8 4q-8 31 26 49q2 2 3 12.5t12 8.5v10 q0 12 8 12q4 20 -3 49t-5 48q-4 -2 -9.5 6t-5.5 16q0 12 15.5 27.5t15.5 30.5q0 8 -4 20h-18q-10 10 -31 59q-6 55 29 74q-6 33 -19 98q0 8 8 7q-2 8 -12 43q-8 29 -4 51q14 20 41 53v12q0 10 10 11v38q-6 -2 -10 -2q-6 0 -12.5 10.5t-11.5 10.5t-5 6h-14q-4 6 -16.5 5 t-12.5 1q-8 0 -8 10q-18 -2 -45 11v-6q-2 -2 -16 -3l-2 -8q-33 -10 -66 2q-2 6 -23 6q-8 2 -16 5q-27 -6 -49.5 9t-42.5 32l8 65q0 -10 8 -10q2 0 20.5 7t26.5 3q4 4 24.5 7t20.5 16q18 -4 46 8q23 -10 59 -8q41 0 63 14v6h76v-6q10 -2 37 -8q-4 -6 8 -6q16 0 19 2l43 4v-4 q96 -31 139 16l76 -2q0 -10 2 -12l14 12q-6 -12 21 -12q6 -2 16 6h-6v6h6q-8 -8 2 -14q10 0 10 8h-2v6h2q0 -14 10 -14q39 -16 60 -60q0 4 18 -47q0 -16 -23.5 -25.5t-25.5 -17.5q-14 -8 -53 -12v4q-68 10 -65 13t-3 7q-6 2 -12 0h-12q-4 8 -21.5 9.5t-21.5 5.5 q-16 -2 -35 -3t-23 -18q-14 -8 -6 -39q-10 -2 -10 -12v-20h-4q-8 -16 -2 -43q6 -29 4 -41h-2q-4 -4 -4 -39q-10 -2 -10 -17.5t-5 -19.5q-10 0 -10 -4q0 -14 4 -17h6q16 -61 -16 -65q-12 -162 -4 -326q4 0 4 -15.5t12 -10.5q-6 -25 13 -43q-14 -27 -15 -54q0 -20 12.5 -62 t12.5 -67q0 -20 -6 -39q25 -16 63 -57q2 -6 15.5 -7t13.5 -11l149 -9q2 -4 11 -6q14 4 106 13v10q31 4 54.5 42t41.5 46q6 4 9 14v12q8 6 8 29t4 31q18 6 18 63h2q4 31 10.5 62t28.5 43q45 20 86 10q39 -25 43 -96q8 -100 15 -117q8 -57 2 -172z" />
<glyph unicode="M" d="M1288 1241v-20q-2 -4 -33 -64q-6 -6 -23.5 -5t-17.5 -11q-88 2 -116 -51q-6 -35 -29 -95v-20q-10 0 -14 -6q0 -6 8 -13h6v-30q-14 8 -14 -17v-10q-6 0 -6 -14q2 -18 4 -21q4 -8 14 -8v-121h-8q-10 -53 0 -100h6v-39q-8 -4 -14 -14v-13q-6 2 -6.5 -8t-4.5 -12 q10 -6 11 -27v-30q2 -12 12 -17v-47q-12 0 -12 -2l12 -10q-10 0 -12 -8q2 -2 12 -2v-91h-8q-12 -31 0 -53h6q0 2 -2 -55q0 -35 22 -43q23 -23 23 -29q20 -4 63 -12q0 -6 7 -6q23 20 47 6l16 -10q8 -6 8 -15q0 -6 -3 -10t-5 -12q-4 -10 2 -14.5t14 -8.5h11q0 -18 2 -20h10 v-21q-10 2 -13 -8t-3 -12q-14 -23 -50 -35l-69 -23q-16 0 -44 16.5t-46 16.5q-14 0 -29 -6q-18 -12 -43 0l-74 -2q-4 2 -15 11.5t-26 6.5q-4 2 -10 7h-18q-4 4 -15 6h-10q-8 8 -38 13t-34 15q-4 -16 -41 -16q-16 -4 -53 -12q-6 -2 -14 -4q0 6 -13.5 9t-26.5 9t-11 17.5 t-4.5 18.5t-14.5 13q-8 -2 -22 15q-4 2 -4 10q2 10 0 12q-2 6 -13 4q-2 31 -16 86h-6q4 18 4 37q0 35 -17 78l-28 70q-4 8 -4 12q0 8 10 15t10 16q0 4 -6 14q-37 29 -41 153h-8q-4 6 -7 30t-16 28l2 74q8 -4 9.5 8t3.5 14q2 4 -6 37h-7q-4 8 -4 47q2 31 -14 37q0 10 -6 33 h-10q-16 37 -52 51q2 12 -13 21.5t-19 19.5q-14 -4 -19 -19q-6 -16 2 -28q10 0 18.5 -13.5t20.5 -11.5q16 -12 14 -33q0 -31 2 -36h-6q-4 -14 -4 -29q0 -18 9.5 -49t9.5 -43q2 -14 -4 -43q-8 -35 -9 -54q0 -12 2 -22q-10 -18 -36 -41q-4 -4 -5 -43q-12 4 -19 -9.5t-11 -13.5 l10 -20q6 -12 20 -10v-41q-6 4 -10 4l-10 -23q0 -20 7 -20t14.5 -12.5t17.5 -14.5q4 -27 27 -82q20 -47 20 -84q0 -16 -2 -32q18 -12 53 -50q2 -4 6 -8q-2 -12 2 -12q16 -4 22.5 -26.5t10.5 -26.5q0 -8 -6 -9h-14q-4 -2 -2 -12q-12 2 -23 2q-23 0 -54.5 -21.5t-60.5 -15.5 q-2 2 -4 11q-6 -10 -24 -11h-31q-2 4 -4 11q-49 -8 -94 -37v-2q-16 -2 -60 14q0 14 -4 16q-6 -2 -17 -14t-22 -8q0 4 -6 8t-8 8l-10 -4q6 20 -7.5 39t-11.5 33h-6v12q4 -2 10 4q-10 4 -10 13q0 6 8.5 16t8.5 14q14 10 116 49v7q23 2 56 22q-4 2 22 10v11q10 -4 15.5 3 t9.5 13q2 16 -16.5 24.5t-16.5 22.5v92q4 10 21.5 22.5t19.5 24.5q4 35 -2 78q-10 63 -10 72q-18 0 -19 16q0 37 2 29q14 -4 16.5 9t8.5 17q0 10 -11.5 29t-11.5 27q0 10 17 20q-25 80 -25 140q0 41 10 73q2 4 18.5 16.5t12.5 30.5q2 2 10 4q-14 55 -51 60q4 10 -6 37h-6 q-10 29 -17 94h-8v16q12 -6 13 6v15q14 -6 14 6v14q10 4 18 25.5t23 25.5v11q12 6 47 16v6h102q4 -10 35 -14q25 -4 25 -21q16 0 35 -22q-4 -16 6 -31v-12q-6 -4 -9 -14v-11q-2 -2 -10 -2v-14q-10 4 -22 -6q-4 -10 4 -18.5t8 -14.5h10q4 -25 33 -57q6 -12 6 -45 q-6 -2 -6 -27h-4q-14 -70 2 -98q14 -16 28.5 -31.5t10.5 -40.5h8q-2 -35 4 -100h8q0 -14 2 -17h11q8 -88 8 -280q-8 -2 -8 -15v-18q18 -2 19 -20.5t2 -36t15 -21.5l7 -22q16 10 26 8q0 -6 6 -6q6 -4 7 10v12q8 4 11 21.5t9 19.5l4 84q14 4 14 33q10 -4 12.5 6t3.5 15t9 15.5 t8 18.5q0 6 -2 10q14 6 15.5 30t3.5 44q-2 2 -9 4q8 6 5 23q-6 20 -3 33q2 6 17.5 22t13.5 35h6q4 6 2 53q-2 35 23 37q33 55 33 137q0 49 -15 86h-10v49q12 4 21.5 20.5t13.5 20.5q6 23 0 47h-10l2 54q10 0 12 2v14q33 10 39 16q20 10 22 33q10 -2 23 -2q10 0 53 6 q37 8 64 4q0 -10 14 -10q4 8 24.5 8t28.5 4v9q57 8 113 -2q-4 -10 20 -11h15q18 -18 49 -14q0 -35 2 -39h10zM950 463q-2 10 -9 33.5t-7 38.5q0 14 8 28h2q2 6 2 15q0 8 -5 21t-5 19q0 8 6 19h4v10h-4q-4 2 -4 15.5t-16 23.5l24 25q4 16 -6 37q-12 49 -74 83l-16 -20 q4 4 10 -4q-4 0 -10 -2v-8h4q-2 -18 5 -46t7 -42q0 -12 -4 -25h-4q4 -16 -10 -37v-10q0 -12 -6 -12l-4 -74h-7q0 -18 -4 -49h-4v-15q0 -12 -6 -10q2 -14 -10 -33v-14q-4 -8 -41 -45v-37h10q0 -2 10 -47q6 -27 -2 -49h-4q-2 -6 -2 -10q0 -6 6.5 -14.5t6.5 -14.5t-5 -12 q14 -6 15 -15q0 -6 -10.5 -19t-8.5 -20q-2 -20 16.5 -29t35.5 -18q68 23 84 60q0 10 10 16v10q10 66 6 74q4 2 8 2q4 41 -12 98q-10 0 -10 2l30 48v12q-4 2 -8 8q-2 15 8 33z" />
<glyph unicode="N" d="M1384 1266v-43l-32 -17q-18 -8 -19 -24q-4 -4 -16 -4h-17q-6 -2 -4 -13q-45 -2 -90 -6t-55 -35q-27 -10 -76 -30q0 -8 -13 -16.5t-13 -18.5q0 -4 4 -12h-4q-4 -20 -11 -64h-8q-8 -23 -6 -71t-4 -70q-8 0 -8 -13v-10h-2q0 -25 -7.5 -67.5t-7.5 -61.5q0 -25 9 -47v-12h-7 q-4 -6 -4 -41q14 -2 23 -51h-4q-10 -59 10 -70q-4 -12 5 -17.5t17 -11.5q-14 -10 -14 -37v-47q-10 0 -10 -2q12 -2 12 -22l-2 -33h-6q-10 -74 6 -84l-2 -53h-6l-12 -146q-6 -4 -31 -32q-16 -23 -39 -23q-12 -2 -34.5 -11t-35.5 -9q-14 0 -28 10q4 8 -6.5 15t-10.5 9 q-8 -4 -8 2q0 -2 2 11q0 6 -3 7t-38 28q2 31 -12 81q6 4 9 22.5t16 20.5q0 6 -11 7q2 8 2 14q0 12 -22.5 21.5t-20.5 29.5h-12q-10 25 -31 41q4 25 -4 55q-10 39 -12 52q-20 12 -16 20q18 2 32.5 17.5t32.5 15.5v10q6 -14 49 -22q18 -12 41 -2l4 -3q14 8 31 54q4 -2 10 2 q-18 55 -16 65h2l6 127q-2 2 27 11q-6 0 -9 28q-2 14 -18 12q-8 20 -18 68q-14 29 -12.5 97.5t-6.5 97.5h-8v24q14 -6 14 12q0 6 -6 15h-6q4 20 -4 39q-12 31 -12 32q-20 12 -42 24.5t-48 6.5q0 12 -20.5 14.5t-20.5 12.5q0 4 4 10q-16 4 -22.5 27.5t-14.5 27.5v58 q23 -2 49.5 16.5t38.5 22.5v6h61v-6q16 -8 33 -9q14 0 39 8.5t39 8.5q12 0 22 -4q0 -10 5 -13q6 -2 16 7v6q16 -2 43 7t45 5v-6q29 -8 78 -8h78v-6q23 -12 53 -3v9q4 0 41 2q29 4 43 0q23 -4 31 -21q10 2 18 -11t18 -13zM647 721q-10 0 -12 -6l-2 -10q-8 -4 -13.5 -21.5 t-9.5 -21.5q-16 4 -30 -11q-14 8 -37 25v20q10 0 10 6q0 2 -10 5q0 37 -17 38q-6 2 -16 16.5t-25 12.5q2 12 -26 12q-4 10 -25.5 9.5t-27.5 3.5q-2 12 -23 18t-25 19q-2 -6 -6 -21q-2 0 -18.5 -3t-16.5 -11q0 -6 5 -13q-2 -10 -18.5 -22t-18.5 -21q-10 0 -13 -12 q-2 -18 -6 -20v-8q-27 8 -31 43.5t-4 70.5q2 0 11 8q-25 51 -29 183q-14 8 -10 28q0 10 13 17.5t11 19.5q6 0 6 19q-4 25 -28 39l-35 2q0 6 -10 6h-13q0 10 -18 10q-6 0 -16 -6v-4q-35 23 -74 76l2 40q4 2 14.5 16.5t26.5 12.5q2 14 29 21l122 -4q0 -2 3 -9q25 8 61 6h70 q4 -14 27.5 -26t29.5 -21q0 -86 33 -96q-2 -6 6 -16h4q-4 -4 -18 -4q-16 2 -21 2q-8 -2 -6 -19q-10 -8 -33 -22q-12 -49 -2 -99h8l6 76l21 -2q0 -10 4 -12q2 2 2 16q20 -4 40.5 10.5t33.5 14.5q6 0 14 -2q12 -8 37 -21v-80q4 -51 37 -61q6 -4 11 -20.5t22 -14.5q-2 -4 6 -20 l16 6q4 -10 4 -19q0 -14 -15.5 -28.5t-15.5 -28.5q0 -8 3 -16q-10 2 -11 -11q4 -4 12.5 -25.5t22.5 -19.5q0 -6 2 -20zM721 563q-10 -4 -10 -14v-21q-2 -10 -13 -10h-32q-14 12 -41 35v14q10 0 14 2q-2 4 -2 9q0 6 11 8t11 4q12 -4 22.5 3t18.5 13q3 -14 21 -43zM553 66 q4 -8 4 -17q0 -10 -8 -33.5t-6 -38.5q-14 2 -37 -2q-10 0 -50 4.5t-63 4.5q-33 -2 -100.5 -15.5t-106.5 -13.5q-29 0 -55 4q-2 4 -10 6q-27 0 -49 49q-4 -8 -21 -8q-23 2 -24 0q0 8 -7 8l-20 -6v80h61q0 -8 7 -8q43 18 65 41q29 8 84 39v45q6 2 8 8v14q10 2 11 13v20 q-10 6 -11 29v37h6l7 84l6 2q-8 23 -6 24q6 0 6 9.5t4 11.5q12 10 26.5 21t14.5 32q35 -10 69 -68q-6 -25 14.5 -45t20.5 -32q0 -10 -6 -25q-16 -6 -16 -31q2 -47 2 -43q-10 0 -11 -16q0 -18 16.5 -41t20.5 -37q8 -6 70 -61q43 -39 84 -45zM362 858h-4l4 -8v8zM764 346h-6 v-43h6v43z" />
<glyph unicode="O" d="M1165 559q-6 0 -6 -12v-10q-8 -12 -15 -24.5t-3 -27.5q-8 -2 -8 -14q2 -20 2 -22q-8 -8 -15.5 -17.5t-3.5 -23.5h-4q-2 -27 -16 -84h-9q0 -47 -34 -107q-4 -4 -4 -11t-11.5 -15.5t-11.5 -14.5q0 -4 4 -10q-10 0 -10 -10v-21q-66 -68 -94 -88q-57 -39 -125 -41 q-2 -6 -23.5 -11t-17.5 -22q4 0 -27 -10v-6q-27 -8 -92 -16v-7h-12q-2 6 -11 11h-14v2q-70 12 -67 12v6q-20 6 -68 10q2 2 -2 9h-10q2 14 -15.5 15t-19.5 7h-19q-2 10 -13 11t-21 1q4 6 -11 7q-12 10 -39 24q0 6 -4 17h-10q-2 14 -27.5 30.5t-25.5 32.5q0 8 4 18 q-8 2 -13 15.5t-22 11.5q4 18 -2 35q-12 31 -14 33q-12 0 -18.5 24.5t-24.5 20.5q0 27 -2 30q-6 -2 -15 13q0 2 -2 8h-14v33q16 0 21 8q-2 8 -4.5 19.5t-16.5 7.5q0 20 -2 22h-4q8 2 8 16q-2 23 0 25q-2 4 -12 33q-8 20 -2 39l12 24q8 14 0 29q0 12 -6 29.5t-6 27.5 q0 8 2 19q16 8 16 39q0 57 -2 51q10 8 21 37q-2 18 -2 61q25 4 30 39v21q6 4 15.5 19t15.5 17q6 10 10 37q8 -2 8 10q2 23 29 51.5t33 47.5q18 2 31 20q16 27 24 33q2 14 27.5 30.5t34.5 33.5q4 -2 28 6v10q43 0 62 22q27 0 54.5 24t43.5 28l107 -2q-2 -6 12 -7h10 q0 -8 6 -10q4 0 10 2h15v-6l84 -4l12 -8q18 2 20 0q6 -10 30 -20.5t32 -18.5t78 -82q47 -49 55 -100h10q6 -51 27 -64h10q27 -45 33 -96l6 -57q-10 0 -10 -11v-20q-2 0 -8 -2q2 -10 12 -47q8 -29 4 -52h-6q-15 -69 18 -143zM1040 645q0 14 -14 23q-20 14 -22.5 20t-4.5 41 q0 25 13 39h-6q2 18 -21.5 38.5t-17.5 45.5q-10 0 -11 4q-20 47 11 72h-6q-2 2 -17 59q-61 18 -108 107q-4 6 -26 9t-24 15l-124 10v5l-11 -11q-6 8 -6 11q-29 4 -76 -9q-12 -10 -61 -22q-41 -8 -53 -27q-14 -35 -29 -41v-14q-25 -8 -29 -6q-31 -37 -69 -39 q-20 -10 -23.5 -39t-7.5 -55h-10v-11q0 -8 -6.5 -10t-10.5 -4q-14 -10 -26 -18q-14 -14 -8 -39q35 -35 26 -70q-8 -8 -10 -8l10 -21q-4 0 -10 -2q2 -35 43 -67q0 -8 6 -19q-2 -8 -3 -17t-11 -5v-15h6q6 -37 16 -108q14 -8 12 -46t9 -48q12 -23 35 -72q16 -4 32.5 -25.5 t28.5 -25.5q2 -2 2 -17q2 -2 4 -13t11.5 -9t11.5 -6t4 -17q14 0 26 -14q18 -25 20.5 -29t11.5 -5t11 -9q16 2 35 -8h21q2 -16 30.5 -19.5t32.5 -15.5h80v10q25 -4 45.5 19.5t36.5 23.5q14 14 18 13q0 31 23 65q4 2 33 12q23 8 22 27q0 8 6 10v15q2 23 15 20v12q0 4 8 6.5 t12 23t15 22.5q4 4 4 19t10 17q-6 66 2 189q20 18 63 53z" />
<glyph unicode="P" d="M1221 967h-4q-2 -8 -3 -45q-10 0 -14 -4v-13q-12 6 -20 6q-16 0 -31 -20q-18 -27 -21 -29q0 -16 13 -49q10 -25 6 -49q-10 0 -10 -13.5t-16.5 -27.5t-14.5 -27l-8 -59q-10 -2 -18.5 -21.5t-28.5 -13.5q-12 -2 -29.5 -12t-32.5 -10q-8 0 -13 3t-9 5h-15q-2 4 -4 10 q-14 -10 -26 -8v12q4 0 6 4q-10 6 -8 25q2 14 2 28q2 2 34 27q18 14 19 41q2 2 10 4v12q10 0 14 15q2 12 1 27.5t-7 97.5h-8q4 23 -4 47q-10 35 -10 45h-10q8 39 -15 47l-10 2q-18 14 -43 53q-41 27 -64 27q-14 0 -24 -8h-14q-8 6 -17.5 14t-21.5 4q-10 4 -29 16l-141 3 l-7 6q-2 0 -8 -4v-13q-16 -4 -16 -47q0 -18 -9.5 -21t-9.5 -20v-14q-2 -6 -14 -17.5t-12 -23.5q0 -6 2 -12q16 -10 31 -56q-14 0 -15 -6v-14q-8 0 -8 -8q-2 -4 0 -13q2 -12 2 -16q-10 -2 -11 -13.5t-1 -23.5q-29 -37 -29 -55q0 -8 2 -17q-10 0 -14 -2q12 -2 14 -20 q2 -29 2 -31q-31 -18 -26 -45q2 0 12 -16q8 -8 18 -8q6 0 11.5 1t5.5 17q0 -27 30 -29h54q12 2 30.5 13.5t30.5 13.5v-6q86 -10 105 8q84 -39 155 -31q0 -29 -28 -51q-39 -33 -45 -43q-16 -29 -72 -29q-92 4 -95 5.5t-3 7.5q-96 -27 -127 8q-29 6 -54 -23q-31 -37 -32 -94 q-10 -10 -33 -24q-4 -25 -6 -52q-2 -31 22 -32q14 -4 29 6h10v-51q2 -33 27 -35q-2 -20 22.5 -41t28.5 -37h6v-10q25 -8 78 -21q-6 -10 10 -12h14q0 -4 5.5 -5t13.5 -10.5t16 -9.5q4 0 8 2q4 -10 33 -20q23 -8 19 -29q-8 2 -19 -2v-10q-6 -6 -22 -4h-25q-12 -4 -10 -17 q-31 -14 -86 -20l-94 -8q-23 -6 -47.5 11t-36.5 17t-25 -8q-29 -16 -98 -35v3l-160 6v4q-14 0 -41 6q8 6 -6 6l-14 2q-2 2 -31 23q-18 14 -19 34h-8q16 53 43 64v8q10 -2 22.5 13.5t24.5 15.5q12 10 48 14q29 2 57 6v6q63 -6 92 23q16 2 20.5 26.5t12.5 30.5v15 q10 2 13 29.5t11 33.5q-14 16 -14 57q0 51 -2 62h-6q-18 104 -8 186q10 0 10 13v22q6 2 10 10q12 10 31 37q2 8 2 15q0 12 -15.5 25t-16.5 26.5t-3 15.5q-16 0 -19 27.5t-12 34.5l2 98q8 -4 11 2v12q-2 10 2 12v15q4 -4 10 2v14q10 -10 10 2q2 14 -21.5 26.5t-21.5 33.5 q-10 6 -22.5 29.5t-26.5 31.5q-4 0 -43 23q-25 14 -53 8q-6 0 -18.5 13t-28.5 7q6 14 -17 15h-12q-4 6 -28.5 8t-24.5 18q0 4 2 13l-6 51q8 0 23.5 15t33.5 13q2 14 14 15q4 0 16.5 -3t18.5 -3q4 0 8 2v-7q186 -12 187 -12v-4q6 -4 41 -4q2 -8 8 -10q4 0 13 2t12.5 3t3.5 5 q4 -4 8 -6q6 -6 10 2q14 16 61 16q57 -2 70 2v9l61 -3v-6q78 -10 93 6l223 -2q-2 -14 17.5 -14t23.5 -4v-2q6 -4 45 -4q12 -10 39 -25q0 4 0 -35q0 -23 14 -26v-14q2 0 18.5 -2.5t28.5 -2.5q2 -4 12 -6h11q-4 -12 -4 -22q0 -16 23.5 -29.5t23.5 -30.5q8 -25 30 -67 q8 -4 7 -21v-26z" />
<glyph unicode="Q" d="M1278 -158q-6 -2 -10 -20.5t-11 -20.5q-10 -82 -8 -100q-8 -2 -8 -6q-2 -4 0 -12q2 -10 2 -13q-12 -4 -19 -24.5t-12 -24.5q-14 -10 -28 -37q-23 -18 -78 -43q-27 -8 -109 -41q-12 -2 -26 -2q-33 0 -115 35q-23 4 -47.5 10t-26.5 31h-14q4 14 -3 27.5t-9 19.5h-13 q0 14 -14 28.5t-14 20.5q0 4 4 11q2 -16 2 110q0 45 -23 72q2 -2 7 2q0 14 -17 47q-10 2 -31 8v4q-45 8 -57 -4h-12v4q-6 4 -41 4v2q-61 8 -78 33q-8 16 -33 43q-20 4 -39.5 36t-38.5 36h-10q2 16 -2 18h-6q0 18 -19.5 45t-17.5 49q-2 2 -27 23q-18 14 -16 35v10q6 0 6 14 v11q10 0 10 10q0 16 -10 16h-10q-2 0 -14.5 9.5t-24.5 5.5q4 23 -5 56.5t-7 53.5h-4q8 6 8 25q-2 29 0 33q10 2 10 14v20q-35 8 -35 60q0 8 2 49q4 31 0 45q29 20 25 65q-6 12 -6 13q0 6 8 17t8 18q0 8 -6 16l-2 61q10 0 10 11q0 6 -8 16h-2q6 4 10 30.5t21 28.5q0 25 16 43 q20 29 25 39v41q-2 27 10 33q2 6 13 20.5t11 26.5q0 6 -2 12q4 14 29 31t33 23v14q20 2 31.5 26.5t31.5 26.5v11q57 -8 129 18q8 -10 31 -10h37v-4l121 -9q2 -10 17.5 -16t15.5 -16q14 0 25 -14.5t30 -10.5q6 -16 33 -41q39 -74 75 -96q-2 -6 -2 -12t7.5 -16.5t5.5 -20.5h14 q-4 -6 -4 -13q0 -8 14.5 -12t12.5 -14q8 2 10 -5t5 -12.5t3 -25t18 -17.5q4 -10 23 -116q-4 -4 -8 -11q2 -16 0 -18l16 -14v-189q-8 -6 -15 -12t-3 -18v-11q-10 -2 -11 -14v-18q10 -8 11 -29v-33q-29 -29 -15 -61l2 -64q-6 -10 -11 -19.5t-19 -6.5q-6 -12 -4 -37 q-29 -20 -35 -52q-6 -16 -27 -43q-2 -14 -6 -43q-8 0 -8 -14q0 -6 -9.5 -18.5t-7.5 -24.5h-4q-4 -8 -4 -47q-16 -20 -4 -57q10 -4 10 -56h-4q-4 -12 -4 -22t4 -28.5t4 -31.5q0 -10 -1 -16t-11 -20.5t-6 -28.5q12 -4 27.5 -25.5t40.5 -15.5q0 -12 2 -14q2 10 36 16q8 10 9 57 q-2 39 20 43q-2 8 8.5 16.5t5.5 18.5q6 -4 7 10q0 14 -2 17h-5v14q10 14 23.5 30.5t32.5 18.5q0 8 14 16.5t12 20.5h72q2 -8 21.5 -15t17.5 -26q18 -10 37 -65q8 -6 6 -25v-33zM969 557q-8 12 -27 39l-10 -8q-10 2 -4 8q-10 -2 -27 4q-10 33 10 59q-4 14 -8 48q2 2 10 4 q-2 12 7 26h-11q-37 51 -32 84q-10 2 -14.5 23.5t-8.5 25.5q-4 12 6 29v57q-16 10 -33.5 19.5t-21.5 30.5q-20 -6 -28.5 14t-13.5 23.5t-5 13.5q-18 -4 -32.5 11t-20.5 15h-11q-14 0 -14 11q-2 0 -12 -2h-13q-6 2 -6 10q-14 -6 -23.5 6t-15.5 12t-10 6h-45q-29 2 -37 -10 q-29 -8 -98 -76q-12 2 -19.5 -7t-15.5 -9v-14q4 -8 4 -15q0 -16 -23.5 -23t-27.5 -14q-43 -2 -43 -61q0 -10 2 -32.5t2 -33.5q0 -23 -6 -36h-4q6 -45 -25 -52q-2 -10 4 -18t2 -18h15q4 -2 4 -13q0 -14 -8 -14q4 -14 -11 -33l-4 -86h-4q-4 -10 -4 -57q0 -39 -16 -47 q12 -10 41 -23q4 -35 18 -72q14 -2 17.5 -19t5.5 -34l14 -2q2 -2 4 -10q12 2 29 -6q25 8 75 20q20 -4 42 9.5t32 15.5q12 14 39 20q39 10 47 13v-4q2 -4 2 -7l21 11q6 -27 6 -41q16 4 35 -11l12 11q0 -2 2 -5.5t2 -5.5q14 2 43 -4v-2q16 2 37 -8q25 0 50 -12l26 -12 q6 0 12 15t16 15q12 35 56 39v33q-2 16 -17 22v41q2 23 19 29v14q0 6 6 11v14q10 4 16.5 23.5t18.5 21.5zM256 821q-6 2 -8 -6v-12q-2 -8 -12 -4q-4 -10 4 -15.5t16 -9.5v47zM735 188h-6q-4 2 -4 19q-14 4 -23.5 29.5t-25.5 27.5q-4 4 -14 2h-15q-8 2 -6 13h-10q-2 2 -2 20 q-6 0 -15 6l-2 21q-20 -2 -51 -27t-61 -20q-6 -10 -28.5 -13.5t-28 -11.5t-5.5 -18q0 -12 5.5 -31t5.5 -29q0 -12 -5 -24q-14 -6 -15 -12.5t-5 -8.5v-20h12q4 -23 32 -28t52 -9v-4q18 2 51 -4v-3q10 -2 21 -4q12 0 14 11q16 2 37 -9h43q-2 12 10.5 19.5t10.5 21.5 q10 4 14 33t14 33v20z" />
<glyph unicode="R" d="M1245 49v-26q-16 0 -20 -26t-15 -30v-12q-27 0 -26 -10l-60 -6q-8 0 -18 11t-14 11q-6 0 -11 -6q-14 16 -55 18h-61q-31 4 -39 27q-18 6 -31 29q-25 37 -25 39v20q14 12 4 49q-8 6 -20 4q0 12 13.5 30.5t13.5 27.5q0 10 -13 20q-2 8 -20.5 21.5t-16.5 29.5h-6l2 56h7 q8 16 8 34q0 33 -31 76h-6q-2 27 -3 55.5t-24 36.5h-10q0 8 -12 9h-11q-6 12 -21 16t-32 6q2 4 0 8q-2 2 -6 2h-12q-2 6 -8 9h-13q-2 8 -12 9t-10 7q-6 -4 -4 -6q-4 2 -6 4q-6 4 -11 -2v-2q-2 6 -32 6q-2 -2 -5 -6q-23 6 -49 6q-16 0 -112 -19q-8 -25 -15 -47q-8 -29 -4 -55 h-4q-14 -94 2 -141v-15h-2q-2 -6 -20 -81q-10 -2 -10.5 -13.5t-2.5 -19.5q8 -12 14.5 -26.5t2.5 -31.5q-4 -2 -11.5 -4t-5.5 -8q-4 -10 6.5 -17t10.5 -10q4 -8 19.5 -8t17.5 -6q14 16 55 14q76 -2 67 -2q2 -12 20.5 -18t18.5 -16q0 -6 -4 -17q12 -4 15 -14v-23 q-23 -6 -54 -24q-39 -27 -63 -21v4q-20 6 -37 7q-29 0 -69 -29t-70 -29q-20 0 -43 10v5l-58 4q-2 6 -14 6h-22q0 10 -9.5 11t-23 11.5t-23.5 10.5q0 -2 0 55q-2 33 21 41q12 0 14 4v12q33 2 98 10q2 0 18.5 6.5t16.5 22.5q2 -2 6 4q-16 18 -16 96q20 27 18 54q-16 2 -16 26 q0 33 -4 39q-8 86 14 103h4q6 14 2 39q-4 35 -4 36q6 -2 6 11v14q16 6 19 33v47q-6 4 -10 59q0 12 -2 19l-5 41h5q2 6 4 47q-23 6 -25 35l-2 47q0 41 -22 110l-13 -10q-20 23 -49 10q29 63 29 80q0 14 -4 29q-33 29 -103 67q2 10 -6 20.5t-8 20.5q-4 -2 -6 -2q-6 0 -8 10.5 t-9 12.5v6q10 0 11 4v12q14 4 41 27q23 -4 65 2v10h10q-2 -8 2.5 -12t10.5 -2q16 0 18 4v10l62 -2q4 -27 36 -26q76 0 64 4q2 -14 22 -15h33q16 12 70 25l2 10q31 -4 78 2q55 6 73 6v-2q12 -6 27 -6q10 0 30.5 5t35.5 5q12 0 24 -2v-4l70 -8q-6 -8 8 -16h20q-6 -6 5 -6l10 6 q0 -6 6 -6h10q31 -33 49 -27q-4 -8 13 -8q68 -14 125 -113l14 -2q8 -49 14 -158q27 -49 19 -88q-4 -2 -4 -11t-10.5 -17.5t-12.5 -10.5q4 -33 -21.5 -64.5t-31.5 -48t-29 -24.5q-35 -12 -38 -15t-24.5 -14.5t-19.5 -29.5q-14 0 -18 -15q-2 -10 0 -26q-2 -6 8 -27h8 q-10 -53 23 -80q-8 -45 26 -69h11q8 -37 18 -117h10q0 -55 8 -82h7q4 -16 24 -41q0 -8 12 -16h11q10 -2 23 -18.5t30 -14.5q0 -14 19.5 -14t22.5 -4.5t28 -22.5q14 -12 14 -35h14zM915 905l-2 51l-18 -20h4q8 -6 -4 -12q8 0 8 -9q-4 -2 -8 -2v-6q-2 -4 -16 -4l-7 64 q-8 12 -8 20q0 12 22.5 22.5t22.5 26.5q-4 37 -28 54v-5q-2 -4 -17 -2q-2 2 -4 7q-16 -6 -22.5 9t-12.5 17q-16 2 -34 -10q-6 0 -7 10h-10q-16 12 -39 41l-129 -2q2 -10 -4 -12h-16q-8 0 -13 -4q-4 6 -14 4h-14q-6 2 -4 12q-35 0 -86 14q0 -10 -19 -10q-10 -18 -22 -59 q8 -14 8 -29q0 -16 -16.5 -43t-18.5 -35t-8 -14v-10q0 -14 -6 -15q2 -14 -11 -32l-2 -93q-2 -12 -16 -30q12 -31 39 -97q4 0 28.5 -6t37.5 -6q16 0 22 8q16 -4 41 -20q37 18 106 31q100 20 113 24q2 -2 4 -8q25 4 66 23q8 16 33 32q35 23 36 27q18 14 45 45v18q-4 10 -22 27 l10 18z" />
<glyph unicode="S" d="M1036 1159l-2 -125h-4q-2 -8 -4 -41q-10 -4 -13 -26.5t-9 -28.5v-23q-10 0 -8.5 -9t-5.5 -14t-7 -7l-76 2q10 8 -6 10h-14q-8 51 -66 98h-16q-2 8 -14 9q-18 -2 -21 0q-4 8 -14 8h-17q-10 0 -10 12q-18 6 -52 30.5t-60.5 30t-28.5 6.5t-8 7h-11l-14 14l-49 -6v-8h-21v8 q-31 10 -59 0v-6q-6 -8 -30.5 -12.5t-28.5 -14.5q-16 -8 -17 -10q-2 -10 -17.5 -22.5t-21.5 -15.5t-9 -17.5t-9 -16.5q8 -10 16 -21.5t4 -27.5q-25 -12 -24 -33q-12 4 -13 -20v-12h-8q-2 -6 -2 -39q8 -14 45 -31q-6 -31 13 -49v-10q-2 -2 -11 -5q0 14 -8 11q-8 -27 -26 -23 l-5 -4q-4 25 -28 59q-18 12 -58 31q-29 10 -38 59.5t-29 61.5q2 8 2 18t-5 27.5t-5 28.5q0 8 2 18q8 0 8 5t16.5 13.5t12.5 24.5v12q10 12 28 37q31 10 37 15q20 12 23 30q-6 12 -7 13q2 25 29 32q35 12 41 21q20 4 64 35q37 25 71 22q12 -2 25 15l55 -2q0 -2 4 -7 q14 8 47 7q45 -2 52 0q10 -12 35.5 -21.5t33.5 -13.5q10 -16 35 -13h10q2 -4 4 -10q4 10 17 8q23 0 22 0q0 -8 15 -10h12q2 -4 10 -6h12q23 -29 60 -14q8 -2 20 4q4 27 37 39q14 4 24.5 -5.5t20.5 -9.5q-2 -25 14.5 -48.5t32.5 -43.5zM590 672l-6 -10q-6 0 -12.5 12t-20.5 8 v6h16q-4 -10 8.5 -11t14.5 -5zM508 682q-10 -14 -39 -14q-53 2 -47 2q0 4 -27 14q0 6 -8 10h-14v2q-12 2 -39 9v10q8 2 8 12v21q2 8 13.5 7t25.5 6t22 5q10 -14 32 -21.5t40 -13.5q0 -6 8 -6q27 -29 25 -43zM1135 252q-10 4 -14.5 -1t-7.5 -10t-3 -34q2 -18 -12 -21 q0 -6 -13.5 -16t-7.5 -23q-6 -4 -9 -24.5t-13 -20.5q-2 -10 -15.5 -18t-15.5 -14q-23 -10 -47.5 -19.5t-32.5 -34.5q-23 4 -44 -21.5t-40 -25.5q-6 0 -16 2v-6q-31 -10 -99 -16v-8q-49 -10 -159 -9q-2 6 -25 7q-10 0 -14 4q-16 18 -86 26h-12q-2 10 -24 10.5t-24 7.5t-9 7 t-23.5 10t-32.5 6q-16 10 -34.5 21.5t-20.5 31.5h-11q4 4 -2 11q-4 -6 -27.5 -18.5t-23.5 -30.5h-12q-25 49 -25 65q0 14 8 25q6 4 13.5 8t3.5 14q-27 0 -27 23q0 4 -12 4v72q12 8 20 30q10 31 15 37q2 14 -5.5 36.5t-7.5 27.5q0 4 2 8v16h5q2 16 8 49l6 6v11q4 -2 37 -2 q31 -41 28 -74q16 -16 33 -49q39 -53 45 -62q23 -35 33 -69h12q0 -10 4 -11h9q4 -16 18 -19t29 -3q6 -10 26.5 -22.5t24.5 -28.5q16 4 20 -11l74 -6q0 -2 2 -8l14 8q4 -4 9.5 -7t9.5 -7q4 8 20 6h27q0 -2 2 -6q78 14 127 68q6 2 26.5 13t37.5 9v10q37 10 49 19q25 14 26 43 q-10 18 -10 49q0 12 2 35.5t2 38.5q0 25 -8 43h-10l4 8q0 6 -7 13t-5 16q-20 4 -64 4q-29 39 -57 77q-37 45 -84 46q-20 0 -45 -11q2 14 -13 17q-20 2 -24 4q-16 51 -12 67q14 14 104 19q31 0 45 12q33 -4 88 6q8 0 14.5 -13t18.5 -11q2 -20 25.5 -35t27.5 -25 q10 -16 35 -57q2 8 13.5 11t11.5 16h18q-2 -8 2 -13q4 -4 12 0q10 2 11.5 -6t1.5 -14q25 -31 51 -62q25 -37 22 -77q18 -20 19 -72q-4 -41 -6 -82zM242 123l-4 31q4 -10 -2.5 -15.5t-14.5 -1.5z" />
<glyph unicode="T" d="M1161 1227q-10 -6 -10 -45h-4q-2 -8 -4 -47q-2 -2 -10 -5q10 -12 10 -36v-43h-4l-6 -84q-2 -2 -11.5 -19.5t-3.5 -29.5l-10 -5q2 -2 10 -32q-10 4 -10 -9v-12q-6 -2 -8 -6v-14q-12 4 -19.5 -9.5t-13.5 -13.5v-6l-31 29q-2 -8 -16 -6t-14 -7q-23 18 -19 54q10 0 10 14 q-23 53 -22 57q0 8 2 19q12 2 12 18q-2 27 0 27q-4 14 -20.5 33.5t-20.5 33.5q-2 0 -10 15.5t-18 13.5q0 -2 -11 18h-20v3l-90 6v6q-76 8 -90 -6q-6 2 -11 2q-4 0 -14 -29v-141h-8q-12 -35 -8 -92q6 -94 6 -95h8q14 -57 4 -173.5t8 -174.5h6v-53q-6 -2 -10 -10v-15 q-33 -27 -8 -86q2 -2 5 -11t11 -7q4 -8 2 -59q0 -37 21 -48h20v-6q27 -4 117 -6q4 -4 14 -6h11q12 -8 51 -57q20 -25 4 -68q-23 -16 -29 -37q-10 -12 -37 -35q-4 4 -55 9q-12 0 -20 4v8q-80 10 -90 -6q0 6 -9 10q-2 -4 -2 -10h-8q0 6 -2 10q-2 -14 -20 -12l-31 2v8 q-6 2 -47 2q-10 14 -39 14q-23 -2 -43 -2q-10 -10 -33 -10h-39q0 16 -23.5 27.5t-25.5 27.5q-14 -2 -26.5 14.5t-26.5 16.5q0 10 -15 10q-6 -4 -12 11q-4 0 -14 6l2 6q10 18 39 47q23 -2 47 11.5t37 15.5v-9q8 -2 53 -4q18 12 35.5 27.5t15.5 36.5q10 6 10 26.5t5 26.5h6 q12 33 2 68h-8l6 114q10 0 10 15v20q-4 4 -14 4l2 53q12 -6 12 11v14h4q4 27 -2 72q-6 47 0 75h4q10 39 6 105q-4 106 -4 108h-4q8 4 8 11q0 4 -8 14t-6 21h-6v81q25 25 20 58q-8 6 -51 51q-33 33 -68 33q-8 0 -20 -2q0 2 -4 6q-18 -14 -60 -45q-35 6 -47 -31t-34 -35 q-2 -6 -13 -26q-8 -12 -4 -29q-14 2 -20 -8q-10 -16 -15 -17q-2 -23 5.5 -54.5t5.5 -53.5q-10 -2 -11 -15v-18q6 -6 9 -6q-2 -14 -15.5 -23.5t-23.5 -17.5h-35q0 2 -16.5 14.5t-16.5 24.5q0 8 4 16q-18 8 -33 60q33 27 33 57h10q2 4 9 29q2 16 16 20h20q0 -6 7 -6 q12 4 30 18q-2 2 -14 23q-10 14 -27 12q-16 14 -49 47q-10 14 -10 47q2 53 2 54q8 2 8 12v18q2 10 12 11q78 41 123 41q14 0 31 -2v-5q6 -4 47 -4q2 -4 4 -10q16 18 60 17q66 -2 69 0v-5q25 -4 50.5 -10t37.5 -20q74 -8 123 24h47v-6q18 -4 48 4t40 8q20 0 37 -14 q12 -4 27 -4q16 0 54 10t63 10q16 0 34 -4q-2 -8 29 -8q2 -10 12 -10h21q4 -4 10 -6q43 -12 47 -45zM285 76v-15l-6 17z" />
<glyph unicode="U" d="M1247 1237v-88q-8 -18 -35 -39q0 -8 -15 -10t-13 -13q-37 0 -45 -16v-8q-4 2 -9 2q-8 0 -15 -10.5t-13 -10.5q4 -18 -25 -36l-4 -131h-4q0 -12 -6 -43q-16 -8 -16 -41q2 -63 2 -56h-7q-4 -33 -4 -65q0 -59 31 -258v-11q-10 -2 -10 -14v-18q-2 -4 -9.5 -13.5t-7.5 -15.5 t9 -12v-37h-4q-2 -6 -5 -45q-10 0 -10 -15v-10h-2q6 -31 -17.5 -57.5t-21.5 -52.5q-10 2 -13 -14.5t-17 -14.5q-18 -8 -48 -33q-68 -20 -88 -49q-20 -10 -53 -35q-16 4 -31 -2q-29 -12 -30 -12q4 -8 -2 -10q-4 -4 -11 0q-25 -8 -51 -15v-6q-4 12 -24 12l-35 -2v5 q-10 4 -49 4q-29 0 -35 16h-15q-2 12 -2 23q0 20 19 36q29 27 33 31t28 4q18 0 21 12q20 0 24 5v2q70 -10 90 -11q51 0 68 27q45 0 80 55q33 49 33 101v32h4q6 20 6 41q0 20 -13.5 57.5t-13.5 57.5t8 43q18 10 19 45v55q0 6 9 17.5t9 19.5q0 6 -2 12.5t-10 13.5t-8 13 q0 4 4 6t6 19q-10 20 -6 88q2 61 -16 84v31q0 20 14 22q16 84 -29 131q4 16 -4 40t-8 30q-31 14 -43 22q-20 16 -27 35q2 8 2 17q0 12 -12 28.5t-12 22.5q0 8 12 16q0 29 25 27q0 8 14 8q8 0 8 6v-4q31 -8 68 -2q35 8 67 14v-4q66 8 213 8q4 -4 15 -6h14q-6 -10 8.5 -10 t24.5 -18.5t18 -22.5zM418 1112q-10 -14 -39 -47v-12h-4l-8 -101h-11q-2 -10 -4 -51h-2q-2 -6 -8 -49q-2 -31 -16 -37v-14q-4 -2 -11 -4v-13q-14 2 -30 -22v-8q-10 2 -17.5 17t-19.5 13q0 41 2 148q-14 0 -14 16.5t-17 14.5q6 14 6 28q0 18 -21.5 44t-23.5 46q-10 20 -30 17 q2 10 -7.5 11t-11.5 5q-35 -20 -84 -2q-23 10 -88 84q-4 63 98 86q80 16 115 6q12 -20 64 -14v-6q27 2 67 -11q2 -2 35 -12q20 -8 22 -26q4 2 13 -13q-2 -10 10 -13t12 -11q18 2 22.5 -8.5t2.5 -32.5q-4 -23 -2 -29zM465 72q-2 -4 -14.5 -4t-10.5 -13h-37q0 10 -2 15 q-4 -14 -26 -15q-43 0 -37 2q0 8 -12.5 14.5t-14.5 8.5h-8q4 6 4 12q0 10 -26 29h-11q0 18 -17 43.5t-15 46.5q-8 43 -2 104q8 90 8 105q0 39 -8 69q8 2 10 15v20q14 4 30.5 29t28.5 31l4 16q8 2 13.5 -10t19.5 -6l-6 -72q-12 -2 -15.5 -23.5t-9.5 -25.5q8 -2 8 -14v-21 q2 -8 11 -8q4 0 12 2q-4 -6 -4 -12t6 -14.5t6 -14.5q0 -4 -2 -10h-4q-8 -20 -2 -49q8 -39 8 -48h10q-4 -41 23 -79q35 -51 39 -68h10q4 -29 6 -35q4 -16 21 -20h6z" />
<glyph unicode="V" d="M1260 1122l-41 -41q-25 -25 -54 -24v-6q-57 8 -110 -33v-14q-4 -12 -25 -29q6 -29 -14.5 -53.5t-14.5 -49.5h-2q-2 -18 -8 -53q-4 -2 -6 -6v-14q-6 -2 -8 -6v-15q-10 0 -10 -10v-20q-31 -37 -25 -74q-12 -4 -14 -27q-16 -4 -19 -35q-2 -41 -6 -45q-8 -16 -31 -37 q-12 -45 -25 -92t-42 -69l-2 -31q-2 0 -6 -31q0 -6 -4 -10q-18 -2 -22.5 -34t-18.5 -36v-51h-4q-2 -14 -7 -41q-8 -12 -24 -33v-14q-8 -2 -8 -12q2 -18 0 -21q-8 -6 -33 -51q-18 -14 -41 -57q-25 4 -47.5 -2t-40.5 -13h-10q2 14 -25 50l2 61q8 -4 11 4t5 10q-2 10 -5 20.5 t-15 6.5q-2 10 -15.5 22.5t-17.5 22.5l2 100q8 2 8 7l-7 6t-5 12h-10q-2 6 -33 22q0 -4 0 37q0 18 -14 23q4 12 4 22q0 35 -37 58q0 6 2 100q2 59 -27 84q-4 18 -2 117q25 0 31 4v2q8 -14 33 -31q6 -23 14 -45q6 -29 2 -53h-4q-14 -49 21 -78q8 -6 84 -53q0 -14 2 -14h10 v-21h-10q-6 -29 0 -51h10q-4 -6 -4 -12q0 -10 14 -17.5t17 -11.5q2 6 19 9t17 15q-23 39 9 60q25 -6 28.5 24.5t7.5 32.5q14 20 0 41h-6q-2 10 -2 19q0 18 20.5 38.5t20.5 38.5q0 12 -6 29q12 6 18.5 9t6.5 46q0 31 28 23q25 18 25 96h10q6 33 2 66q-29 -18 -37 0 q0 -8 -9 -18.5t-5 -22.5q-6 -2 -8 -6q-16 -35 -31 -35q-2 0 -2 -19h-4q-4 -6 -4 -41q-8 2 -8 11v16q-2 8 -13 6q2 10 -2 29h-10v20q14 12 14 64q10 -2 11.5 8t5.5 12q25 0 55 19q6 -2 10 -2q8 0 19.5 10t21.5 8q0 -6 0 43q0 27 -12 33q4 16 -12 22q-23 10 -24 17.5t-16.5 26 t-8.5 38.5q4 2 10 4q-2 6 -19 29q-14 16 -14 29q0 12 14 22q0 29 22.5 41.5t45.5 22.5q2 16 32.5 19t35.5 16q12 -18 81 -9v7h52v-7q43 -8 123 -10q96 0 127 -4l2 -6h14l27 -19q20 -29 20 -61q0 -35 -20 -74zM647 795v-13l-4 13h4zM524 1221q0 -6 -8 -17.5t-8 -21.5 q-8 2 -13.5 -8.5t-7.5 -12.5q-37 8 -88 -28q-8 -4 -16 -9.5t-6 -17.5h-10q-6 -29 -2 -57h10q-4 -31 24 -58l-2 -10q-10 -16 -37 -41h5v-16h-5q6 12 -10 14q-6 0 -16 -8v-6q-37 31 -41 61q-45 33 -55 57q-14 14 -21.5 52.5t-19.5 50.5q-4 16 -31 18q-37 4 -43 6 q-14 14 -30.5 31t-12.5 37q4 -8 18 -6h23q27 4 72 33q4 6 25.5 6t27.5 2l139 -4v-4q16 -6 49 -4h51q39 -6 39 -39zM641 690zM612 543v-4v4zM332 799v-15l-2 19zM612 492l-12 6l10 14q0 -6 2 -20z" />
<glyph unicode="W" d="M1384 1204l-45 -49q-35 -27 -100 -55q0 8 -4 10q-33 -23 -92 -72q2 -14 -7.5 -32.5t-7.5 -32.5q-4 -2 -18 -33q-10 -20 -29 -22q-10 -8 -28 -23q-2 -23 -19 -51q-2 -4 -2 -25q2 -2 10 -2q-2 -29 13 -33q-8 -8 -11 -28q-2 -29 -6 -33t-8 -14v-11h-2l-12 -131 q-23 -12 -23 -32h-8q-12 -25 0 -50h6q-2 -10 -2 -20q0 -12 5 -31.5t5 -32.5q0 -8 -2 -18h-4q0 -45 -30 -98l-7 -99h-4q-2 -8 -4 -53h-2q-4 -4 -4 -39h-6q-4 -4 -4 -39q-10 -2 -13.5 -26.5t-23.5 -18.5q0 -31 -23 -30q0 -10 -8 -13q-14 -2 -16 -4q-45 -4 -55 -45q-2 8 -15 8 q-20 -2 -22 0q2 6 -6 33q-27 33 -19 66q-20 20 -33 86h7q6 10 6 22q0 10 -6.5 31.5t-6.5 34.5q0 8 2 16q-29 23 -22 64l12 18q8 10 4 25q8 0 6 12v20q10 -6 11 6q-4 4 -6 25q0 14 -17 14q0 6 -6 17h-4q8 14 24 39q-4 12 -10 24.5t-18 12.5q-4 12 5 24t9 19q0 6 -4 12 q-12 14 -27 47q0 10 15.5 19.5t17.5 15.5q8 0 15 8q4 8 -4.5 15t-8.5 12q-16 0 -37 12q-4 -2 -4 -6h-8v26h12q6 4 2 11l-4 8h-10q-4 8 -4 43q0 27 -10.5 31t-26.5 16t-35 10q-20 6 -51 33q-6 10 -4 51q0 31 -23 35q2 14 -4 29.5t-6 23.5t2 17q18 35 6 55l-12 14q-6 8 -16 6 q-2 12 -19 39l-57 4v11q-4 6 -29 -3v-8l-10 11q-2 0 -2 -13q-12 -2 -24.5 -12t-20.5 -10q-6 0 -16 4q-10 -8 -13 -29v-31q8 -6 6 -24q-2 -25 0 -29q-16 -10 -10 -39q2 -8 2 -53q-2 -33 19 -39v-41q-10 2 -13.5 -10t-7.5 -14q8 0 8 -9v-12q2 -6 13 -4q8 -51 14 -158h10v-18 l-10 6q-27 -16 -14 -55q6 0 11 -7.5t13 -3.5l-2 -24q4 12 -8 24q-6 -23 -25 -22v45q0 29 -13 39t-40 35l-4 33l8 6q-27 78 -55 204q4 4 4 9q0 6 -9 21.5t-9 25.5q-8 2 -16.5 12t-14.5 12q-4 12 -8 26.5t-21 16.5q2 37 -33 58q-53 31 -57 39h-14q0 6 -9.5 7t-9.5 5 q-43 57 -39 119h-4q10 23 31 43q18 0 46 14t46 14q12 0 27 -4v-2q14 -6 29 -6q12 0 32.5 5t32.5 5q10 0 21 -2v-4q18 -4 114 -4q4 -4 33 -25q18 -12 23 -32h6q2 -10 6 -13l9 8q9 7 15 5q-2 6 -2 10t25 29q10 6 86 8q23 0 37 8q2 -4 2 -10q98 16 113 14v-2q55 -16 81 2 q4 -12 26 -19.5t28 -21.5q4 2 10 2q4 0 29 -24q2 6 19 13t19 21q2 4 14 5l11 2q4 -6 8 -2t8 6h84q49 0 74 14h10v-4q41 -4 109 0q74 6 111 2v-4q20 -10 53 -10zM530 434h-6l-6 -72q-10 4 -12 -7t-6 -13q0 -14 8 -34.5t8 -26.5q-10 2 -12 -9v-16q-2 -6 6 -16h6v-7 q-14 0 -14 -16q0 -23 -2 -27q-8 0 -8 -6v-10q-10 2 -11.5 -9t-5.5 -13v-13q-8 -2 -8 -8q-2 -4 0 -14t2 -15q18 -90 -12 -108h-33q-18 4 -12 24q-4 2 -13 2q2 4 2 9q0 4 -10 7t-12 9q-10 -4 -16.5 4t-10.5 8l2 80q6 -6 9.5 1t1.5 16q0 10 -5 12q-6 23 -34 53q-4 6 -18.5 26.5 t-14.5 37.5q0 8 4 18q6 2 6 14v19q8 18 37 39q0 -10 12.5 -13.5t22.5 -5.5q18 2 36.5 4t22.5 19q-4 14 13.5 30.5t17.5 24.5q0 4 -2 10l-2 127q4 2 6 11v12q16 0 20 6v20q8 -12 33 -30q-2 -33 4 -99zM950 967q0 4 -10 51q-6 33 -25 47q-10 14 -30.5 36.5t-46.5 37.5h-13 q-8 2 -10 10q-6 0 -16 -10q-14 4 -25 4q-20 0 -24 -23v-39q-2 -37 -31 -34q-4 -18 6 -46q0 -10 -6 -4l-2 -12q8 -18 22 -57q-8 -10 -22 -35l2 -47q4 -47 26 -60q2 -8 3 -16q0 -16 -13 -31q-18 -20 -20 -27t-2 -14q0 -8 5 -20t5 -19q0 -6 -2 -14q18 2 51 -22q10 -10 10 -8.5 t2 -34.5q0 -23 -12 -27q10 2 13 -9.5t10 -13.5q20 -6 53 2q23 0 24.5 26t4.5 48q0 8 2 15h10v10q0 29 2 41q6 23 20 28v43q0 29 13 41q0 14 8 15q0 16 4 45h4v14q0 8 10 8v15q-20 14 -20 39q0 22 20 47z" />
<glyph unicode="X" d="M1259.5 -5q-4.5 -28 -24.5 -28q4 -12 -10.5 -15t-16.5 -7h-14q-6 14 -29 10q-41 -6 -39 -7t-8 -4t-6 -12h-151q4 14 -27 15q-12 0 -12 -4v-9h-99q4 14 -18 15h-14q-29 14 -27 37q0 10 -18.5 19t-16.5 28h-8q-8 57 12.5 56t21.5 5t13 10.5t14 8.5q23 37 15 53 q-39 68 -43 123h-6q-8 18 -37 41q-10 14 -25 61q-8 41 -31 53l-14 10q-14 11 -12 23q-6 8 -15 4l-14 -6v-6h-8q0 8 -2 8q-4 0 -4 -22q-10 0 -11 -11v-20q-14 -8 -20 -33q-10 -39 -11 -40t-10.5 -4t-5.5 -11q-6 -2 -59 -2q-35 0 -35 -29v-29q-14 2 -31 -22v-14q-10 4 -10 -11 v-12q-8 -6 -8 -27v-30q6 -20 35 -50t35 -55h10v-51q-12 -8 -84 -31v-8h-19v8q-10 0 -36.5 4.5t-40.5 4.5q-27 0 -39 -15l-107 2q0 8 -10 11q-14 0 -16 -5v-6q-23 0 -60 -12q-16 8 -31.5 17.5t-19.5 25.5h-12q-4 4 -4 26.5t-13 24.5v33q12 0 15.5 19.5t19.5 13.5q8 4 121 12 q76 6 84 61q18 4 42 25t26 23q14 14 16 36q6 10 39 35q27 18 31 41q18 -4 24 17q2 18 -10 37.5t-12 31.5q2 0 6 4v15q12 6 21.5 29.5t15.5 29.5q2 29 36.5 64.5t38.5 68.5q10 0 10.5 23.5t4.5 29.5h6q4 14 4 31q0 51 -37 80q-12 4 -19 27.5t-24 27.5l-12 2q4 8 -7.5 9.5 t-13.5 3.5q4 25 -16 45q-27 25 -29 37q-10 4 -9 27.5t-11 25.5q-4 20 -34 42.5t-36 41.5q-2 4 -28 26q-18 16 -13 43q-10 0 -20 5.5t-29 3.5q-6 -6 -55 -7q-4 -2 -8 -2q-6 0 -17.5 15.5t-27.5 13.5q0 70 -7 80q23 25 64 22q41 -2 63 -22q-2 -8 7 -16h4q2 2 4 2v14 q45 18 73 14q-6 -8 11 -10h12q6 -2 12 -6h19q2 -4 12 -6q14 2 45 14q25 10 45 10q12 0 25 -4q-6 -8 10 -8q8 0 17.5 -13.5t21.5 -11.5q6 -12 22 -30q0 -12 -12 -22.5t-14 -14.5q-16 -23 -41 -82q-10 -8 -4 -23q10 -27 10 -28h10q-4 -18 3 -33.5t14 -30.5q12 -4 24 -24 q16 -27 25.5 -33t15.5 -30.5t23 -26.5q4 -2 24 -5q14 6 28.5 29t20.5 29q-2 6 4.5 8t6.5 4q2 16 24.5 31.5t22.5 32.5h4q4 6 4 41q20 35 8 69q-6 27 -12 56.5t-31 37.5q-6 12 -6 23q0 12 19.5 26.5t23.5 26.5q25 0 27 4v2q2 -6 30 -6q0 -16 2 -16q4 14 23 14h31q16 2 22 19 l244 -5q-4 -10 8 -10h14q2 -4 6 -6h15q0 -10 12 -10h10q2 0 19 -12q10 -8 22 -2q4 -8 23.5 -18.5t19.5 -20.5q0 -8 -4 -19q-10 0 -12 -6v-16q0 -10 -6 -15v-12q-18 -14 -39 -53q-16 -4 -31.5 -9.5t-19.5 -17.5h-37q0 10 -4 14q-31 -12 -64 -22q-39 -14 -53 -39 q-20 -12 -45 -40t-39 -38q-37 -23 -55 -61q-33 -6 -55.5 -50t-55.5 -51l-12 9q-4 -20 -8 -41t-17 -29l-43 -6q-2 -37 2 -45q2 10 15 10q23 0 22 0v-31q-12 -4 -16 -26q8 -12 18 -25.5t27 -7.5q2 -10 5 -19.5t15 -7.5h11q0 -23 2 -24h8q6 -8 14 -64q8 -39 37 -43 q-4 -23 20.5 -44t26.5 -40q6 2 8 -6t4 -14q6 -12 50 -56q33 -33 36 -63q10 -2 29 -6q-4 -12 9.5 -13t15.5 -4q10 -8 39 -18v-2q33 0 90 -12q0 -10 14 -11h12q2 -4 11 -6q20 -20 69 -45q29 -43 29 -53q0 -8 -4 -14t-8.5 -34zM444 1268l-4 6l4 -19v13z" />
<glyph unicode="Y" d="M1309 1167q-6 -16 -37 -59q-12 -4 -80 -10q-59 -4 -70 -19q-61 -14 -125 -75q-6 -14 -39.5 -42t-31.5 -59h-6q-4 -4 -9 -49q-4 -29 -26 -31l-2 -20q-6 -8 -12.5 -17.5t-14.5 -7.5q-14 -6 -25.5 -30.5t-15.5 -28.5q-18 -6 -30.5 -36t-26.5 -38q0 -10 -14.5 -24.5 t-10.5 -32.5q-2 2 -6 0q-4 -4 -4 -6v-15q-6 -2 -8 -6v-14q-12 -14 -25.5 -30.5t-11.5 -39.5q-12 -4 -16 -22q-4 -27 -5 -29q-6 -14 -6 -29q0 -14 7.5 -39.5t7.5 -40.5q0 -16 -7 -32h-4q-4 -12 -4 -23q0 -23 23 -59v-43q-10 4 -10 -21q0 -14 4 -16h6q8 -27 78 -41v-4 q49 -8 59 -8q6 -12 32.5 -15.5t33.5 -15.5l-3 -72q-2 0 -6 -2v-14q0 12 -16 12q-25 0 -29 2q-6 -4 -6 -12h-53q0 12 -14 12q-6 0 -17 -6v-6h-71v8q-74 10 -148 0v-6h-51q0 10 -4 14q0 -14 -17 -14q-35 0 -30 2q4 10 -5.5 11t-17.5 1t-18 -6v-6h-21q2 10 -8 12h-20 q-12 0 -15.5 5.5t-9.5 7.5h-12q2 2 -1 6t-8 4h-12v67q74 29 101 29q12 0 24 -4l4 -6q6 0 6 6q4 -6 45 -6q4 4 35 8t29 25h6q25 49 18 141q12 -2 15.5 14.5t9.5 18.5q0 49 -2 59q2 51 -8 154l-10 2q0 41 -23 69q4 35 -15.5 56.5t-37.5 40.5q-4 14 -7 30.5t-24 12.5 q-6 8 -9 37.5t-13 37.5q-4 18 -27 47t-23 54q-4 10 -32 37q-25 20 -19 49h-10q6 23 -7.5 36t-41.5 29q-2 14 -19.5 34t-21.5 26q-27 12 -66 18q2 12 -12 14q-20 2 -24.5 3.5t-20.5 15.5t-35 8q0 8 -18.5 10t-34.5 25q8 39 -23 92q29 47 119 47q29 0 62 -6q-4 -6 10 -6t17 3 t89 3v-4q14 -2 50 3t53 5q43 0 63 -20h21q-4 -10 8 -9.5t19.5 -7.5t13.5 -14q-2 -18 21.5 -40t23.5 -38q0 -10 -6 -24q-10 0 -11 -11v-12q-16 0 -65 -47v-17h-4q-4 -14 -4 -28q0 12 18 -70q-4 -4 -4 -10q0 4 22 -43l11 -2q6 -4 9 -30.5t13 -33.5q4 -4 9.5 -24.5t21.5 -20.5 l6 -20q-20 -27 -6 -57q12 -4 25 -46q10 -33 38 -24q0 -4 2 -10q18 23 41 75q8 4 10.5 20.5t6.5 19.5t29 28q0 31 31.5 64.5t27.5 70.5q10 0 10 12v11q10 4 10 35q10 2 19.5 26.5t21.5 28.5v20q10 -4 11 11q-2 20 -26 39.5t-28 35.5q-6 -6 -2 -10q-8 6 -17 13.5t-22 2.5 q-10 27 -6 56q12 4 20.5 29.5t29 25.5t67.5 21q12 -12 16 -7q33 4 72 4q35 0 133 -8q84 -8 129 -4q0 -2 43 -15t55 -46q21 -25 9 -60z" />
<glyph unicode="Z" d="M1128 131h-2q-6 -82 -75 -149q-4 0 -33 -7v-6q-23 2 -72 -16v-10h-55v10q-6 4 -41 4v4l-82 10q2 6 -5 8.5t-11 4.5l-25 2q-2 2 -2 8q-6 -6 -26.5 -8t-20.5 -15l-80 2q-4 10 -30.5 14.5t-32.5 8.5q-10 -8 -44 -7t-40 -16q-37 -4 -54 -24h-49q-33 0 -37 16 q-14 2 -33.5 15.5t-39.5 9.5q-10 6 -21.5 13t-28.5 3q0 10 -10 10h-10v4q-6 4 -43 5q8 18 8 57q-2 55 0 63q10 16 39 45q12 6 21 37q6 -2 11 5.5t7 7.5q35 31 57 67q8 -2 18 9l11 10q0 14 12.5 21t7.5 20q23 10 45 59q20 43 50 51v8q18 0 24 9v20q6 4 14.5 26.5t22.5 26.5 q14 14 37 47q14 16 29.5 36t38.5 26q8 23 47 65q35 35 34 74q16 8 17 41q0 41 4 49q14 4 41 39q8 2 16 14v13q6 2 8 6q0 16 -3 19t-5 16q6 2 8 6v14q10 -2 11 10v19q4 2 6 10q2 20 -16.5 30.5t-36.5 20.5q-23 -2 -35 28t-27 32q0 8 -4 10q-14 -29 -37 -29v-10 q-8 -2 -25.5 -12.5t-33.5 -7.5q-10 6 -25 6q-14 0 -47 -8.5t-49 -10.5v-6h-6q-18 25 -64 10v-8q-10 0 -10 -16q-2 -10 5 -18.5t5 -18.5h-8q-4 -33 -10 -63.5t-31 -43.5q-4 -27 -9 -52t-22 -38q-6 -4 -43 -2q4 20 -17 38t-21 32q0 10 6 22q10 -4 13 9.5t3 15.5q4 6 -8 27h-8 q-2 14 -4 31.5t-19 17.5q-14 53 -12 67q2 -2 6 0q4 4 4 6v15q27 -2 27 16v39q16 6 47 23q12 8 26 32q18 2 38 20.5t30 22.5q4 16 31 17h43q-4 -10 6 -10h14v-5q4 -2 39 -4v-2l84 -8q-4 -6 10 -6q25 -8 70 -29q10 27 70.5 29t76.5 18q16 2 170 0q-2 -6 13 -6h14q0 -10 12 -10 h11q0 -6 14 -6l8 -2q0 -6 8 -6h11q2 -6 2 -31t12 -27v-49q-12 2 -13 -14.5t-3 -18.5q-2 -20 -32 -44.5t-26 -51.5q-6 -4 -10 -22.5t-18 -16.5q-23 -18 -58 -59q0 -27 -40 -55.5t-40 -57.5q-43 -31 -61 -67q-10 2 -14.5 -10.5t-8.5 -12.5q-51 0 -55 -26v-33q-8 2 -9 -8.5 t-3 -12.5v-12q-23 0 -31 -23q-10 -31 -16 -34q-16 -37 -66 -95q-29 -18 -55 -36q-31 -25 -35 -58q-10 2 -13 -5t-7 -7v-12q-14 2 -19 -7q-2 -2 0 -16t-2 -18v-11q-10 0 -10 -12v-10q-43 -25 -47 -80h-4q-2 -18 -9 -53q8 -8 17.5 -16.5t23.5 -4.5q2 -4 13 -6h14v-8 q4 -2 43 -2q-6 -8 4 -8q10 8 39 8q41 -2 47 -2q0 -6 6 -6q25 8 68 6q66 -2 76 -2v-2q82 -20 110 24q16 4 32.5 20.5t30 21.5t22.5 31t24 34v10q6 2 6 12v21q0 6 -8 24.5t-8 28.5q0 12 10 23v14q8 6 13 28.5t17 26.5q14 -2 23.5 10.5t19.5 10.5q8 10 36 8t32 10 q29 -29 27 -47h6q-2 -18 -2 -37q0 -29 10 -96q10 -59 6 -100q14 -4 14 -27q0 -45 -2 -39z" />
<glyph unicode="[" d="M1063 1597q-8 -20 -19 -38q-12 -31 -6 -31q10 0 11 -15q-16 4 -38 -14t-34 -18t-23 22q8 2 -51 2q-27 0 -37 -26q-18 -4 -47 0q-39 6 -47 6q-33 0 -49 -33q-27 20 -98 23q-86 4 -105 10l-55 -25l4 -20l-8 2l-2 -12h-8q-27 0 -48 34l-6 -43q16 -18 17 -45q0 -14 -8.5 -48 t-4.5 -52q-16 -8 -16 -31t14.5 -63.5t14.5 -61.5q0 -16 -6 -33l12 -26l-47 -37q23 -51 -4 -70q0 -18 14 -50t16 -46q-18 14 -37 14q-10 0 -14 -16q25 -49 25 -94q0 -31 14 -47q-4 -10 3 -29.5t7 -28.5q0 -14 -35 -34q2 -39 27 -107q-10 -10 -10 -22q0 -10 14.5 -25.5 t14.5 -24.5q0 -10 -23 -14l-31 31l-22 -12l16 -31q2 -20 15.5 -54t13.5 -53q0 -12 -4 -22q16 -14 16 -31q0 -10 -9 -33.5t-9 -36.5l26 -145l-2 -90q12 0 28.5 -21.5t29.5 -21.5q14 0 20 33.5t10 33.5q12 0 18.5 -26.5t18.5 -26.5q14 0 62 39l43 -35q25 23 43 23q16 0 20 -17 l31 -24q53 0 69 33q39 -47 72 -37l8 22q14 -18 52 -23t51 -18v-14q-4 -47 26 -51l25 14q-8 -20 -18 -39q-12 -31 -7 -30q10 0 11 -15q-16 4 -38 -14.5t-34 -18.5t-23 23q8 2 -51 2q-27 0 -37 -27q-18 -4 -47 0q-39 6 -47 7q-33 0 -49 -33q-27 20 -98 22q-86 4 -105 11 l-57 -27l-4 -29h-6q-14 0 -28.5 17.5t-25.5 17.5q-8 0 -20 -10q-6 8 -26.5 6t-35.5 18l-34 -6q-16 10 -24.5 43t-20.5 43q2 25 6 46.5t35 27.5q-2 4 -19.5 18.5t-17.5 24.5q0 70 37 106q2 53 -21 101q31 41 31 76q0 6 -2 18v16q0 20 10 39q-29 39 0 56l-16 47q18 25 18 61 q0 47 -22 86q27 43 24 113l-2 33q-10 6 -17.5 92t-2.5 104q-16 8 -17 29q0 23 9.5 74t9.5 77q0 20 -4 37q12 27 8 140q8 12 8 24q0 4 -37 109q16 16 16 43q0 10 -3 32.5t-3 32.5q0 14 4 25l-10 41q6 14 4 61q0 39 21 55l-6 48l41 49l43 -4q0 -23 20 -38.5t41 -29.5 q27 12 51 47q14 0 30.5 -21.5t29.5 -21.5q14 0 20 34t10 34q12 0 18.5 -26.5t18.5 -26.5q14 0 62 38l43 -34q25 23 43 22q16 0 20 -16l31 -25q53 0 69 33q39 -47 72 -37l8 23q14 -18 52 -23.5t51 -17.5v-15q-4 -47 26 -51z" />
<glyph unicode="]" d="M1042 -203q-12 -10 -20 -43t-25 -43l-34 6q-14 -20 -35 -18t-27 -6q-12 10 -22 10t-24.5 -17.5t-27.5 -17.5h-6l-4 29l-57 27q-27 -18 -96 -21q-84 -4 -107 -12q-14 33 -51 33q-12 0 -37 -4.5t-35 -4.5l-22 2q-10 27 -33 27l-53 -2q-10 -23 -23 -23q-12 0 -33.5 18.5 t-38.5 14.5q0 10 5 15l10 2q0 14 -10 34q-16 25 -19 33l23 -14q37 4 28 65q12 12 50 17.5t51 23.5l10 -22h14q25 0 56 37q16 -33 69 -33l33 24q4 16 18 17q20 0 45 -23l41 35q49 -39 64 -39q16 0 25.5 25.5t11.5 25.5t9 -32.5t23 -32.5q8 0 25.5 21.5t30.5 21.5l-2 90 q16 16 16 78q0 29 -4 78t-4 57q0 18 16 33q-4 10 -4 22q0 18 13.5 52t13.5 55l18 31l-22 12l-31 -31q-23 4 -23 16q0 8 15.5 23.5t15.5 26.5q0 10 -12 20q12 20 27 107q-35 20 -35 39q0 8 7 25.5t3 27.5q12 14 16 65t23 76q-4 16 -19 16q-16 0 -32 -14q14 31 30 96 q-27 18 -6 70l-47 37l14 26q-6 16 -6 33q0 20 14.5 61.5t14.5 63.5q0 23 -16 31q4 18 -4.5 53t-8.5 47q0 27 17 45l-6 43q-20 -35 -50 -34h-6q4 6 -4 10t-8 8q0 6 6 12l-55 25q-27 -18 -96 -21q-84 -4 -107 -12q-14 33 -51 33q-12 0 -37 -4t-35 -4l-22 2q-10 27 -33 26 l-53 -2q-10 -23 -23 -22q-12 0 -33.5 18.5t-38.5 13.5q0 10 5 15l10 2q0 14 -10 35q-16 25 -19 32l23 -14q37 4 28 66q12 12 50 17t51 24l10 -23h14q25 0 56 37q16 -33 69 -33l33 25q4 16 18 16q20 0 45 -22l41 34q49 -39 64 -38q16 0 25.5 25.5t11.5 25.5t9 -33t24 -33 q8 0 25.5 21.5t29.5 21.5q27 -35 53 -47q20 14 41 29.5t21 38.5l40 4l43 -49l-6 -48q20 -16 23 -77q4 -53 -8 -80q4 -10 4 -25q0 -10 -4 -32.5t-4 -32.5q0 -27 18 -43q-37 -104 -37 -111q0 -10 8 -22q-2 6 -4 -70q-2 -43 13 -70q-4 -18 -5 -39q0 -27 9.5 -79t9.5 -76 q0 -14 -17 -23q4 -18 -3 -104t-19 -92v-41q-2 -61 25 -105q-23 -41 -23 -86q0 -37 16 -61l-14 -47q29 -16 -2 -56q12 -18 12 -39q0 -6 -2 -16v-18q0 -35 31 -76q-23 -45 -21 -94v-7q37 -37 37 -106q0 -10 -17 -24.5t-20 -18.5q31 -6 35 -27.5t6 -46.5z" />
<glyph unicode="_" d="M1352 -336v-41q-10 0 -15 -4q14 -12 15 -39q0 -57 -2 -49q-4 -4 -16.5 -29.5t-26.5 -27.5q-20 -12 -66 -13q-53 0 -67 -2v-6q-74 4 -209 -8v2q-18 6 -37 6q-14 0 -42 -5t-42 -5q-12 0 -25 2q0 4 -6 10q-12 -8 -50 -8t-46 -16q-2 12 -21 12q-25 2 -28 4v4q-35 14 -72 -6 q-117 8 -152 -2v-10h-45v10q-111 18 -223 4v-10h-67q-8 20 -39 16q-37 -6 -50 2l-8 13q-8 12 -20 8q0 18 -19.5 38.5t-19.5 39.5q0 6 2 16q-4 4 -14 4l8 84q2 10 15 16.5t16.5 14.5t27 11t27.5 15q20 -6 43.5 9.5t44.5 9.5q2 -4 12 -6h10q0 -4 9 -11q10 10 26 9q2 -2 2 -11 l4 4q51 -2 152 13q4 -8 10 -11h17q14 2 18 3v-7q23 -4 47 -4q27 0 73 7.5t68 9.5v-4l162 -5v-8q51 2 146 -4q102 -6 143 -6q100 0 168 23v4h16q-6 -8 4 -9l17 9q10 -23 61 -29q-4 -10 7.5 -13t13.5 -3h10q0 -2 2 -9h14q0 -10 2 -12h15z" />
<glyph unicode="`" d="M938 1210q0 -10 -14.5 -19t-16.5 -17q-16 -8 -16 -31q-2 -33 -4 -39q-6 4 -15 4q-8 0 -22 -6t-21 -6q-16 0 -18 24q-8 2 -24.5 10.5t-24.5 8.5q-12 0 -23 -11q-16 0 -43.5 16.5t-44.5 16.5q-14 0 -30 -14q-4 8 -82 47t-82 39q-14 0 -31 -8l-12 -21q-14 0 -21.5 20.5 t-19.5 20.5q-6 0 -13 -2q-23 37 -38 37q-6 0 -16.5 2t-14.5 2q-8 12 -7 41t-3 37q14 31 28.5 59.5t55.5 28.5q8 0 20 8t21 8q6 0 18 -7t20 -7l19 4q10 16 29 17q8 0 17 -25t17 -25q6 0 19 11q6 35 20 34q4 -4 2 -18q2 -4 4 -19.5t15 -17.5q31 18 41 19q6 0 10 -5 q16 -37 20 -36q2 0 13.5 3t25.5 3t15 -25q0 -12 16 -22q-12 -4 41 -4q12 0 23 10q4 -4 16 -25.5t27 -21.5l12 12q4 -16 35.5 -32.5t31.5 -24.5t-5 -21.5t-5 -21.5q0 -10 12 -17q6 8 15 8q4 0 8 -2z" />
<glyph unicode="a" d="M1247 94q-20 -16 -102 -98q-2 -8 -15 -10q-20 -4 -22 -4q-10 0 -10 -5q-18 -18 -78 -24q0 6 -14 6h-13v4q-29 0 -49 10q-35 20 -41 23q-4 10 -35 33q-41 8 -92 -31q-31 -2 -69 -23q-20 -8 -89 -16q-53 -4 -73 -25q-23 2 -53 -10q-6 8 -35 8q-12 0 -21 2q0 8 -10 9h-12 q0 6 -15 6q-6 0 -17 9t-17 9t-11 -2q-4 8 -19.5 10t-19.5 5q0 10 -4 10h-12q4 18 -7 27.5t-24 17.5q-4 20 -38.5 25.5t-39.5 29.5h-12q-2 8 -11 26.5t-9 33.5q0 -10 -19 126h-6q2 8 0 28t0 26q4 14 21 14q4 2 4 12q41 12 69 99q12 2 15 28q10 4 19 23.5t13 23.5q29 4 39 39 q-14 18 -30.5 37t-40.5 27q-4 2 -8.5 16.5t-16.5 12.5q-12 33 -33 40v89q6 2 9 10v12q16 35 45 39q20 10 47 47q63 -2 82 35q16 8 53 8t49 4q23 4 53 35q25 -18 72 -18q12 0 37.5 2t38.5 2q49 0 73 -21h35q2 -8 8 -10h13q10 2 14 2q12 -10 47 -27q-4 -12 14 -18h7 q0 -10 4 -10q33 -20 39 -43q4 -4 16 -15q6 -6 16 -4q-4 -18 17.5 -37.5t17.5 -38.5q16 -8 21 -6q-4 -27 -4 -53q0 -39 9 -105.5t11 -99.5h-4q-6 -14 -6 -30q0 -10 5 -33t5 -35q0 -10 -2 -18q-2 0 -10 -9q8 -6 8 -26v-21q-2 -12 -2 -18q0 -33 22 -33q10 0 27 6q53 51 123 41 q8 0 12 -13t15 -9q6 -12 8 -41t15 -48.5t3 -99.5zM823 682q0 12 -11 30.5t-11 28.5q-29 33 -123 41v2l-12 2v-4q-47 -10 -146 -14q2 -6 -2 -12t-4 -8q-18 -2 -27.5 -15.5t-19.5 -27.5q-2 -6 0 -29t0 -31q-4 -14 -25 -12q-10 -25 -38.5 -38t-57.5 -28v-18h14q2 -4 2 -10 q14 0 72 10q43 8 78 4q6 -12 20.5 -4t22.5 -2q8 2 23 18q43 8 131 25q27 14 84 37q8 12 22 43q0 12 8 12zM772 360q0 10 -17.5 14.5t-21.5 12.5q-23 6 -51 -2q-37 -8 -43 -8q-16 0 -31 10q-37 -18 -92 -12v-6q-2 -6 -16 -7q-6 -12 -35 -11t-31 -17q-27 -2 -59.5 -33 t-63.5 -29v-10q-2 -2 -16 -2l-2 -67q0 -16 41 -46l125 -4q4 -25 22 -20q0 -2 10.5 -6t6.5 -11q12 0 18 -4q0 12 11.5 19.5t13.5 15.5q35 16 108 43q20 -6 42 11.5t38 17.5l6 65q12 12 31 39v15q0 12 6 12v20z" />
<glyph unicode="b" d="M1067 428q-20 -29 -41 -96q-8 -2 -6 -13v-18t6 -6q-14 -8 -16 -37q2 -25 2 -49q-10 -2 -11 -14v-21q-6 -2 -8 -8q-6 -27 -32 -49q-39 -35 -46 -41q2 -20 -21.5 -30.5t-25.5 -22.5q-14 0 -28 -13v-4h-9q-2 2 -2 6q-4 0 -8 -6q-8 10 -18 6q0 -10 -17.5 -21t-17.5 -24 q-39 0 -117 -8v-8q0 10 -10 12h-18q-10 0 -15 6l-8 6h-8q4 12 -19 15q-6 0 -16 -4v-11q0 10 -10 13q-16 2 -19 4l-14 2q-4 4 -12 6h-10q-23 23 -62 16q-35 -18 -94 -28h-4q-10 8 -19 4h-12v22q6 -2 10 2t2 13q0 12 -2 12l-10 2q4 12 4 25q0 25 -28.5 52t-28.5 50h-6 q8 2 6 12l-6 68q12 -6 16 1t2 19q-2 6 -12 37q-8 23 -4 43q14 8 14 21q0 8 -11 29.5t-9 37.5q4 4 8 11q-2 18 0 22q4 -2 10 2q-10 10 -10 39t-4 39h-2v10h2q12 37 2 74q-2 80 -8 237h-11q2 88 -8 105q-4 20 2 80q4 51 -8 80q-2 2 -6 4q0 10 -2 12q-39 0 -117 4v4q-6 4 -41 4 v4q-16 2 -33.5 7.5t-23.5 19.5q-6 4 -6 21q2 23 0 26q8 0 8 12q-6 10 7 14.5t13 10.5q18 0 56 11.5t61 8.5q4 -2 63 17q6 8 25 8q27 -2 29 -2v-2q6 -4 47 -4q2 0 18 -14q10 -6 25 -5q6 -8 28.5 -17t28.5 -24q-8 -39 13.5 -88t21.5 -73q0 -20 -5 -39t-9 -53q-6 4 -9 -13 q8 -23 33 -55q61 -14 109 20l233 -2q2 -12 17.5 -19t15.5 -20q14 -14 47 -22q45 -12 49 -14q-2 -12 11.5 -17.5t15.5 -10.5t8 -20.5t16.5 -14.5t10.5 -5v-14q2 -6 12 -2q4 -20 33 -72q23 -41 22 -76q2 -111 25 -162q0 -31 4 -36q-8 -8 -4 -17q4 -4 6 -4zM920 467q2 74 -5 90 q-20 4 -22 26.5t-4 43.5q0 31 -21 39q-29 16 -45 63q-10 -4 -13 9l-3 14q-14 18 -47 45h-12q-6 2 -9 10q-6 0 -61 10q-37 8 -68 4q-4 -8 -20 -6h-27q-6 -14 -29.5 -29.5t-25.5 -30t-8 -14.5q-4 -10 2 -17t4 -15q-16 -35 -49 -97q-14 -4 -19 -30q-6 -33 -12 -39v-11 q0 -6 -6 -14v-8q-2 -14 -14 -31q-20 -23 -21 -22q0 -8 -6 -15q-8 -96 24 -133v2q2 4 17 4q14 0 14 -8q10 4 20.5 -5t18.5 -7q37 -88 96 -168q14 0 28.5 -13.5t20.5 -15.5v8q6 -2 17 3v6q37 4 98 16q4 14 21 21q27 8 30 12q12 55 80 110q4 0 5 9.5t10 9.5q2 10 2 18 q0 10 -5.5 27.5t-5.5 26.5q0 10 7 22h2q4 20 34 66q1 8 7 14zM346 457h-4v-35h2z" />
<glyph unicode="c" d="M1065 709v-54q-10 0 -10 -16v-10q-6 -2 -8 -8q4 -12 -7.5 -13.5t-11.5 -3.5q-4 -31 -63 -59q-2 -4 -21 -4v4q-12 4 -22 4q-8 0 -23.5 -4t-26.5 -4q-6 0 -14 2q-18 4 -43 32q-8 -4 -13 3.5t-7 7.5q0 20 -14.5 48t-14.5 46h4q4 16 4 33q0 45 -43 86q-18 -2 -45 8t-39 10 t-24 -4q-27 -2 -62 -18q-16 -4 -32.5 -7.5t-20.5 -19.5q-27 -16 -47 -59q-8 -18 -29 -54q-43 -35 -51 -75q-8 -2 -8 -13q2 -18 0 -20h-2q-10 -96 8 -109q-8 -14 -8 -43q2 -41 0 -47q14 -12 32 -39q14 -2 20.5 -15t12.5 -15q6 -16 43 -58q29 -33 23 -69q-4 2 -10 -5l30 -38 q51 -10 70 2q4 16 40 19t42 13q37 0 65 31q39 45 52 51q16 27 55 78q8 18 39 39q51 31 63 31h-2v6h2q18 -29 37 -25q-4 -8 16 -10h11q-2 -12 6 -18.5t16 -10.5h10q-4 -20 3.5 -43.5t5.5 -35.5q6 -8 6 -17q0 -8 -7.5 -20.5t-9.5 -17.5t-20 -11t-12 -25q-6 0 -9 -6v-12 q-2 2 -5 -1t-3 -7q2 -2 2 -6t-8 -8.5t-8 -8.5q-18 -2 -41 -30.5t-45 -26.5q-16 -12 -41 -37q-20 -10 -65.5 -11t-63.5 -11q-14 -35 -90 -35v4q-23 2 -46.5 7t-33.5 24h-10v2q-27 -2 -70 10q-33 10 -39 51t-8 82q-4 0 -10 -2v-14q-18 4 -60 4q4 18 -14 23t-18 14l-33 4 q-2 4 -4 10h-13q-8 18 -41 47q0 25 -30.5 48.5t-30.5 51.5q-12 10 -12 39v49q10 -4 10 11v14h4l4 80q8 6 14.5 29.5t8.5 29.5q10 0 10 10v19q-8 0 -8 8v12q0 8 -10 6v31q18 12 24 43q14 8 15 45t8 47q18 25 63 60q23 8 46.5 16t31.5 25q12 -2 25.5 15.5t29.5 14.5 q16 16 51 31q29 10 58 21l12 -6q6 31 49 30h25q16 -2 24 -2q29 0 41 12l84 -4q6 -6 62 -45q16 6 24 -8t17 -14q4 0 12 2q20 -20 55 -33q14 -23 66 -59q0 -33 18 -72q15 -28 31 -59z" />
<glyph unicode="d" d="M1243 68v-54q-29 -12 -86 -28q-68 2 -201 -9q8 6 -8 7l-14 2q-4 0 -19.5 10t-29.5 6v4q-8 2 -49 2q0 10 -11 10h-14q0 2 -2 9q-23 -18 -78 -34t-76 -28l-41 -10v-6q-10 -10 -34 -10q-20 2 -41 4q6 6 -11 6h-12q-23 23 -58.5 31t-84.5 63q-29 18 -62 14q-6 10 -31.5 14.5 t-27.5 16.5q2 6 -6 10t-8 11h-7q-6 10 -6 26q0 12 4 37t4 35q0 37 -43 31q-8 12 -30 28q6 14 2 82q-4 53 22 66q4 10 4 80q0 53 31 59q-4 8 7.5 16.5t11.5 10.5q-2 4 -15 8q-6 23 16.5 37t22.5 30q0 8 -4 21q-10 16 -41 41v10q18 8 51 35q2 12 6 33q20 -4 32.5 16t19 27.5 t13.5 18.5t3 28q27 8 68 43q14 0 16 2v10q31 2 74 23q20 0 65 18q4 -10 31 -10q2 2 4 10q12 -10 45 -20q2 -18 27 -19q18 0 37 2q0 -6 6 -6l10 6q10 -27 39 -26q10 0 31.5 4t31.5 4q12 0 21 -4l6 36q8 2 8 15q-2 20 0 22h2q16 45 6 107q-20 4 -47 33q2 6 2 10q0 6 -10 14 t-10 17q-12 0 -37 4q-6 10 -43 10q-6 12 -26.5 20.5t-26.5 16.5l33 51q23 23 61 20v7q4 -2 8 -2t11.5 8t17.5 4v-6l82 -4q6 -14 29.5 -22.5t29.5 -18.5q-6 -31 13.5 -72t19.5 -55q0 -23 -19 -43q-6 -16 -13 -36t-3 -36l16 -14q-10 -4 -10 -19v-24l27 -11q2 -25 -2 -69 q-2 -55 -2 -70q0 -68 24 -96v-57q-10 0 -10 -7v-14q-2 0 -8 -2q2 -10 12 -27.5t8 -31.5q-10 0 -13 -9.5t-7 -11.5q6 -4 7 -18.5t9 -18.5v-14q-6 2 -10 -2q8 -8 11 -34t16 -30q-2 12 -4 -100q-2 -57 14 -92h10q-4 -37 55 -74q51 14 74 -14q18 -45 51 -53q6 -12 13.5 -26.5 t19.5 -14.5zM846 649q-6 12 -12.5 24.5t-20.5 10.5q-10 35 -76 74q-4 12 -21.5 23.5t-21.5 23.5l-155 2v-8q-53 -14 -131 -90q2 -18 -10.5 -35t-14.5 -29q-8 0 -19.5 -9t-19.5 -9q-4 0 -10 2v-13q4 -29 24 -73q4 -10 4 -17q0 -10 -8 -22l-10 -15q-4 -20 4 -43q12 -29 12 -34 q-2 -4 -6 -6v-76q-2 -16 15.5 -27.5t19.5 -26.5q8 -2 23 -40q14 -2 28.5 -20.5t34.5 -20.5q27 -49 62 -50q16 8 53 19q6 8 45 47q0 10 8 23.5t8 25.5q12 -4 24.5 10.5t22.5 14.5q6 0 13 -2q0 8 4 22q8 -6 6 -31v-34q6 -14 22 -15h35v15q2 2 13 2q-6 63 18 86q12 6 11 18 t9 12l5 66h2v14q29 23 28 64q0 20 -11 71t-7 76z" />
<glyph unicode="e" d="M1079 215q-6 0 -8 -14.5t-32.5 -39t-28.5 -52.5q-2 -2 -9 -3l-2 -14q-10 4 -17 -8t-21 -10q-2 -14 -19.5 -22.5t-21.5 -18.5q-27 -4 -66 -28.5t-72 -27.5q-35 -10 -114 -24q-4 6 -27 8q0 8 -12 8q-6 0 -13 -2v-6h-14q-2 10 -14 10h-21q-6 2 -10 6h-18v5q-14 0 -39 6 q0 6 -15 6q-20 6 -48.5 32.5t-43.5 32.5q-6 4 -9 22.5t-13 18.5q-6 27 -29 41.5t-45 26.5q-10 8 -29 27q-8 4 -12 20t-14 16q6 29 -15.5 55.5t-21.5 49.5q4 49 -12 135q-2 2 -5 25q0 10 -8 12q12 12 6 35q10 -4 9.5 6t11.5 16l6 56q6 2 9 19t16 19v33h2l8 68q16 0 15 9 t14.5 15.5t15.5 14.5q45 18 49 78q2 4 15.5 9t9.5 19q8 -2 8 4v13q2 8 10 6q2 2 14 12q6 6 2 16q39 16 121 37v11q10 -2 21 -3q10 -2 12 9q2 -6 27 -6v-11q33 -12 67 0h-2v11h2q4 -12 30 -15.5t30 -19.5l8 10q2 -10 14 -10h19q4 8 21 8t22 2q2 -2 24 -14q14 -8 15.5 -21.5 t19.5 -18.5t16 -20q8 2 18.5 -6t18.5 -6q10 -20 45 -39q4 -20 31 -47q4 -16 7 -26.5t16 -14.5q14 -14 28.5 -27.5t9.5 -36.5q6 -104 29 -143q2 -16 -7 -34.5t-11 -26.5q-23 -35 -101 -39q-92 -6 -114 -17q0 6 -14.5 7.5t-16.5 3.5q-47 -20 -70 -19q-14 0 -45 2q4 8 -10 8 q-8 -6 -74 -6q-8 16 -30 23q-14 2 -48 0q-33 -2 -43 -2q0 -23 -28 -23q-14 0 -43 -6v-6q-18 4 -35 -18v-9q-6 0 -10 -6q8 -6 11 -42t24 -40q0 -33 24 -63q33 -37 39 -53q-8 -4 -8 -7q0 -4 7 -11t3 -11l131 2v6q16 10 27 10q10 0 27.5 -17.5t39.5 -17.5q0 -10 2 -12 q6 8 30 15.5t30 23.5q18 2 47 26.5t51 26.5q6 12 27.5 24.5t27.5 31.5q12 4 18.5 16t12.5 25q4 -6 57 -7q0 -10 11 -10h8q4 -2 37 -26h12q0 -4 10 -31q6 -17 2 -35zM860 653q10 31 -8 58q-10 0 -10 4q4 8 4 14q0 12 -18.5 22.5t-20.5 16.5q-2 0 -12 -2q-8 -2 -13 0 q-8 0 -8 8q-39 10 -49 53h-12q-4 2 -4 7h-13q-12 0 -10 10q-6 -2 -45 -2q-27 0 -33 -11q-33 4 -64.5 -9t-62.5 -25q-23 -12 -18 -29q-23 -23 -31 -20q-14 -23 -39 -70q10 -29 29 -33q10 0 10 -10l84 -4q10 -4 29 -17h10q12 0 12 -10q14 -6 24.5 9.5t18.5 15.5q29 18 72 12 q6 -10 31.5 -13t48.5 -7v-3l37 3q16 0 33.5 14t27.5 18z" />
<glyph unicode="f" d="M1257 1122h-4l-6 -84q-6 -4 -8 -10q-20 -18 -57 -61l-2 -13q-4 0 -35 -10q-20 -8 -39 -2q-2 8 -14 6h-21q2 8 -10 8q-12 -8 -43 -6q-4 6 -26.5 16.5t-24.5 26.5q-33 25 -93 74q6 23 -22 43q-25 0 -61.5 -15.5t-57.5 -19.5q-2 -6 -25.5 -13t-19.5 -24q-6 -14 -6 -28 q0 -12 7 -35t7 -35q39 -23 117 -4v12q4 -10 18 -10h21q16 -14 49 -10q-2 -12 16.5 -13.5t22.5 -3.5q0 -8 13.5 -17t13.5 -20q0 -6 -4 -14q-23 -23 -25 -53q-39 0 -117 -8v-6q-33 0 -67.5 -2.5t-48.5 -16.5v-16q-10 0 -13 -2q0 -14 2 -17h11q-12 -6 -15 -59q0 -12 -2 -18h-4 q-2 -14 -6 -39q-10 0 -10 -5q0 -14 2 -16h8q-14 -12 -10 -18q0 -4 10 -4l-2 -72q-10 4 -10 -19q0 -14 4 -16h6q2 -12 9 -33.5t7 -33.5l8 -3v-22h-10q-2 -8 -4 -64q-8 0 -12 -4v-10q-6 -2 -10 -12q0 -14 4 -17h6q8 -6 11 -32.5t13 -32.5q-6 -51 19 -62q12 -4 80 3v8l12 -2v-6 l123 -11q0 -27 11 -27.5t18.5 -18t17.5 -19.5q4 -10 4 -17q0 -14 -14.5 -26.5t-16.5 -22.5q-86 -37 -110 -37q-10 2 -37 -4t-43 -6q-10 0 -21 2q10 8 -6 10h-12q-2 0 -4 7l-17 -7v2q-25 2 -73 21q0 14 -4 16q-2 -10 -15 -10q-10 2 -10 10l-6 6q2 -25 -31 -36h-28v2 q-53 16 -99 -19q-18 0 -22 -2l-58 -2q-20 6 -59 23q-27 29 -21 84q10 8 17 28l10 37q10 12 43 17q43 2 51 4v8q10 -4 18.5 2t16.5 12v8q10 -2 14 6v7q8 0 9 2q6 10 32.5 22t26.5 33q0 8 -2 18q-23 2 -34 16.5t-21 26.5v39q29 23 53 33q2 0 2 16q-6 6 -6 11v12q2 2 10 20 q8 12 4 29q4 4 -2 21q-10 25 -12 26.5t-8 3.5q8 8 8 15q0 4 -6 19t-2 28h4q2 14 6 39q8 0 8 14t-22.5 33.5t-22.5 36.5q0 10 6 24q8 2 6 13v18q-6 25 -49 29q-51 4 -59 12l-31 6q2 4 -2 8h-12q-2 10 -17 17q-20 8 -22 10v41q0 27 12 33q43 27 115 20q35 -20 65 -6 q25 12 21 61q-14 6 -39 29v23q8 -2 11 8t5 12q10 18 37 57q16 33 45 43q0 12 16.5 22.5t16.5 22.5q29 16 94 48q27 12 70 53q29 4 131 0q84 -2 131 10v8l27 -2v-6q4 -2 34 -2q4 -8 19 -10h20q8 -14 32 -30.5t28 -25t12 -9.5t16 -3q-2 -6 7.5 -13t23.5 -28q2 -6 11 -34t5 -48 z" />
<glyph unicode="g" d="M1176 750q-6 -18 -27 -35q-29 -25 -33 -27h-84q0 6 -6 6l-10 -6q-2 8 -15 8q-18 -2 -20 0q-18 -4 -24.5 -26.5t-16.5 -26.5q-2 -12 -4 -74q-10 0 -10 -12v-10q-6 0 -6 -17v-14q-4 -2 -7 -8v-14q-4 0 -10 -2v-13q-14 0 -19 -12t-12 -25q8 -4 9 -18q-2 -23 -2 -27 q-2 -12 -20.5 -20t-14.5 -25q-16 -18 -41 -65q-35 6 -70 -11q-49 -25 -57 -26l-78 -6v-2q-20 4 -49 26q-8 -2 -17.5 7.5t-21.5 5.5q-10 14 -34.5 13t-43.5 -1q-104 0 -137 -62q-6 -18 11.5 -28t17.5 -19l10 11q0 -6 10 -11q10 0 12 4v7q4 0 107 -2q70 0 96 26l49 -2v-8 q68 -12 135 -2v10h37q-2 -8 0 -12q4 -4 13 -2h10q0 -2 2 -6q8 0 8 6q20 -10 29 -6q0 6 8 6h14q8 2 6 12h45v-10q8 -4 43 -4q4 -12 33 -13q-2 -12 12.5 -15t16.5 -9q12 -20 25.5 -42t37.5 -20q4 -6 35 -24q23 -12 19 -35q8 -4 8 6h8q-6 -16 -6 -35q0 -16 5 -44.5t5 -45.5 q0 -14 -4 -30q-6 0 -6 -11v-12q-4 -4 -6 -10v-13q-20 -20 -33 -59q-4 -2 -25 -12q-12 -6 -12 -19q-10 -18 -39 -39v-6q-47 4 -65 -22q-14 -4 -28.5 -7t-14.5 -16q-20 -2 -76 -20q-43 -14 -80 -10q-16 -10 -58 -16.5t-57 -18.5q-12 8 -43 8q-39 0 -51 2v4q-16 0 -45 4v2 q-8 4 -49 4v6q-14 0 -43 5v4q-6 2 -45 2q-18 16 -66 30q4 12 -10 18.5t-14 14.5l-90 47q0 18 -4 23q-10 4 -24.5 24.5t-33.5 20.5q0 16 -2 19t-4 14q4 6 6 12v18q10 0 10 13v12q4 2 7 6q-6 20 -12.5 40.5t-2.5 41.5q10 20 43 55q8 20 0 43q-8 14 -33 35q-6 12 -8 43 q6 6 12.5 11t4.5 18q4 2 6 10v12h6q8 63 -6 86q8 2 10 13v20q2 8 10 8q2 8 17 33q8 14 4 35q12 0 12 4q18 8 25 33q10 -4 11 8t5 14q-4 2 -4 20.5t-12 18.5q-6 35 -7 98q2 92 3 107q16 2 25 29.5t24 27.5q20 31 43.5 64t54.5 43q16 20 59 49q27 20 60 25q18 -4 39 10h12v-4 q25 -12 43 0v2q27 -12 100 -6q0 -10 13 -11h14q25 -4 63 -20q47 -10 97 -2q-2 8 8 10t14 6q33 10 101 29v-6q4 -4 38 -4q4 -10 28 -16.5t28 -22.5q8 -4 21.5 -19.5t29.5 -11.5q20 -23 27 -74q6 -44 -2 -71zM776 528q4 18 -8 45q27 106 -6 144q-2 2 -12 24q-6 14 -18.5 14.5 t-8.5 10.5q-25 2 -57 25q-16 -2 -50 2v4q-12 2 -90 -6v-7q-8 -6 -30 -6q-33 -12 -56 -45q-25 -14 -24 -69q0 -76 -2 -82h-4l2 -37q-2 -18 18.5 -32.5t20.5 -29.5q6 -6 17 -20t17 -19q35 -8 93 -4q66 4 90 2q18 8 53 31q4 18 22 31zM979 -72q-4 0 -8 17.5t-19 15.5 q-2 8 -18 19q-2 18 -43 49h-12q-12 2 -11 10l-67 4v4q-10 -2 -66 6v10h-41v-8q-33 -12 -59 0v11q-23 0 -27 -15h-159q-68 -35 -87 -35q-10 0 -20 2v-8q-23 -18 -39 -53q-27 -47 -31 -55q14 -20 50 -37q45 -20 57 -31q2 -10 14.5 -18.5t14.5 -14.5q31 -6 86 -6h34q63 0 95 -6 q18 10 57 10l63 -2q0 12 18.5 11t20.5 6q8 -4 15 -4q16 0 24 21.5t23 21.5q6 0 14 -3q12 18 56 26.5t57 19.5v12q2 2 8 4v16z" />
<glyph unicode="h" d="M1221 158q0 -16 8 -43t8 -37q0 -16 -12 -27q-4 -16 -31 -24q-33 -10 -41 -19l-49 -28v4q-12 2 -23 2q-12 0 -42.5 -9.5t-53.5 -3.5q-45 14 -55 13q0 2 -4 6q-2 -6 -45 -8v2q-14 0 -39 2q0 6 -6 4q-6 -6 -27 -8h-33q-18 18 -63 41q-23 41 -21 63q8 0 13.5 14.5t17.5 16.5 l35 39q63 10 78 57q37 35 36 66q0 10 -6 24t-22 45q33 43 10 94q16 16 12 27h6q-2 14 0 45q8 2 7 12q-2 16 -2 21h4l2 80q0 2 6 4q-8 12 -15.5 24.5t-5.5 28.5q4 2 11 4q-8 29 -17.5 62.5t-38.5 40.5q4 8 -3 11t-17 3h-8q-2 2 -9 6q0 -2 -2 -6q-12 4 -34 4q-8 14 -64 12v2 q-4 4 -41 2q0 8 -4 23q-10 -2 -10 -10l2 -15q-14 -2 -26.5 -16t-22.5 -27q4 -16 -2 -30q-10 -20 -11.5 -23.5t-15.5 -32.5q-6 -16 -31 -18l2 -10q-14 4 -28.5 -5.5t-18.5 -9.5q-27 -25 -28 -59q-8 -4 -6.5 -22.5t-4.5 -21.5t-13 -16.5t-17 -13.5q-8 -31 -15 -61 q-12 -33 -37 -45q-8 -31 -8 -33q51 -6 66 -41l2 -12h-6q4 -25 -6 -66q-2 -12 5 -23.5t3 -23.5q-14 0 -4 -10q-2 -6 -10.5 -21.5t-4.5 -29.5q8 -6 56 -4q2 -6 6 -9h14q-2 -10 6 -12q2 0 17 2q10 0 15 -4t11 -4q33 -12 39 -25q14 2 22.5 -10t14.5 -12q23 -61 -21 -74 q-39 -33 -108 -31v6q-37 0 -72 -2q-45 -2 -61 -18q-6 6 -23 4q-23 -2 -26 0q-4 8 -17 8l-18 -2q-6 -6 -4 -10q-10 10 -33 25q0 12 -6 32q-4 -6 -2 -24.5t-8.5 -18.5t-25.5 -6t-32 -4q-16 6 -43 33q-10 2 -22.5 6t-14.5 18q-4 -2 -6 -10t-12 -4h-6q10 29 43 88q27 10 65 43 q8 0 9 4v6q37 2 47 5q29 4 39 20v39q14 0 6 12v12h6q-2 16 0 50q14 10 12 61q6 0 6 14l-2 13q4 0 6 4q-41 72 -34 123q-2 2 -7.5 4t-3.5 8l-2 12h6q0 12 2 39q8 0 7 12q-2 14 -2 17q-8 2 -9 12q2 16 0 21h4q2 16 -4 106q10 0 11 12l-2 13h4v53q0 2 9 14.5t3 24.5q10 0 8 10 q-4 14 0 18q0 18 -20.5 38t-20.5 40q0 8 4 21q-14 10 -23 44t-22 46l-45 20q0 6 -4 15l-10 10l-41 27q-35 39 -39 110l-6 -2q-4 8 -4 12q0 8 18.5 10.5t22.5 10.5q61 12 127 16l2 -6q4 -4 32.5 -3t69.5 -17l10 2q4 -14 33 -13q4 -8 29 -30q18 -14 18 -35q0 -8 -4 -19 q-8 0 -8 -12v-10q-12 -2 -10 -31q-2 -12 8 -47h8v-18q-8 -6 -12 -27l-4 -29q-2 -6 2 -57q2 -35 -21 -41v-12q-4 -2 -6 -6q6 -10 12 -66q4 -41 33 -41q0 -2 8 -16q18 -2 31 12q20 27 21 27q10 45 108 82l-2 10l27 2q0 -12 4 -12h12q2 -10 8 -13q2 0 9.5 7.5t13.5 7.5 q4 0 8 -2q0 14 4 41q31 23 123 32q14 8 37 4q37 -8 41 -8q-4 -25 10 -28q8 -4 33 0q25 2 35 -2q29 -6 42 -53.5t35 -55.5q0 -4 13 -43h6l4 -55q-6 -2 -10 -13q2 -14 4 -14l8 2l2 -68q-10 0 -10 -8q2 14 2 -14q0 -8 4 -16h8l2 -35h-8q2 -16 0 -45q-4 -35 -4 -43q0 -39 22 -56 q0 -10 9 -22h4q-8 -27 -6 -70q4 -72 4 -71q43 -39 80 -35q0 -12 14 -10q16 4 20 0h15q2 -4 8 -9h14q0 -8 4 -8h9q0 -8 4 -18z" />
<glyph unicode="i" d="M766 1214q-27 -18 -21 -69q-10 -4 -15 -21.5t-13 -17.5q-14 -25 -58 -25q-14 0 -44.5 3t-45.5 3q6 6 -10 7q-12 10 -43 24l2 115l6 29q2 10 15 10q0 16 20.5 31.5t22.5 31.5l69 -2q2 -4 13 -6h14q12 -14 39 -41q2 -2 35 -29q20 -18 14 -43zM1008 72q-8 -2 -9 -15 q0 -12 9 -14q-8 -2 -11 -27q0 -12 -8 -12q-4 0 -8 2q-6 -12 -26.5 -18t-24.5 -13q-63 0 -99 -12q-4 8 -21 7t-22 5q-31 -2 -63 -6q-41 0 -51 21q-27 10 -79 7t-77 5q4 6 -3 10t-7 6q-4 -4 -14 -6h-17q-6 -2 -6 -10q-27 2 -51 -12q-33 -20 -41 -23v4q-8 2 -45 4q-29 2 -37 17 q-10 2 -21.5 24.5t-17.5 28.5q8 14 23 45l2 37q8 -10 8 6v12q14 8 80 7q39 -25 39 -48q12 0 26 -12q0 -35 4 -39l9 -2q2 51 28 74q18 0 49 18q4 8 4 21q0 8 -4 24.5t-4 22.5q0 18 25 29q-23 78 -15 141q6 -2 7 14v8h4q6 16 0 64q-6 37 14 53q-2 8 16 27q8 74 -8 110 q2 -2 10 5v12q6 -4 13 2q8 14 10 14q0 23 -3 48.5t-30 19.5q-2 2 -22 2q4 10 -6.5 12t-14.5 6q-25 27 -94 64q0 10 -10 16q-8 -2 -17.5 6t-17.5 6q0 20 -4 25h-12q-4 6 -30 13t-20 30q10 6 43 6q2 -6 25 -6q-4 -12 4 -16t17 0l14 -2q-8 -6 2 -7q10 12 21.5 25.5t31.5 11.5 q10 -4 24.5 4.5t18.5 8.5t6 -5h33v-4l68 -2q0 -4 2 -10q14 0 16 6l43 2q0 -2 6 -10l10 10q0 -2 11 -32h6q16 -66 6 -136l-8 -12q2 -16 0 -18q6 -4 9 -25.5t13 -24.5v-43h-6q-2 -25 -10 -84q-8 -51 -8 -79q0 -41 12 -74q-14 -10 -14 -37v-45q12 -12 12 -41q-2 -39 0 -45 q-14 -6 -14 -27v-32q29 -25 39 -31q20 -14 43 -17v-4q92 -12 143 2q0 -6 13.5 -6t13.5 -12q41 -18 41 -37q0 -6 -3 -14q1 -2 7 -4zM584 614h-6v-8h6v8z" />
<glyph unicode="j" d="M762 1210l-8 -18q0 -6 10 -6q-12 0 -10 -18.5t-2 -21.5t-7 -9q-4 -12 -9 -26.5t-21 -16.5q-10 -25 -45 -57.5t-43 -51.5q33 -10 45 -16q20 -12 33 -35q6 -2 18 -13.5t25 -11.5q8 -16 15 -32.5t5 -34.5h-2q-4 -8 0 -49l-6 -2q-2 -8 -2 -19q0 -12 9 -39.5t7 -46.5 q-10 0 -8 -12v-12l-2 -3q-6 -25 2 -61q10 -45 10 -59q-8 -2 -6 -13q2 -16 2 -18h-2q-4 -16 -4 -33q0 -25 11 -74t9 -79q-8 -2 -8 -11v-12h-2q-2 -6 0 -39q-14 0 -6 -14l2 -10q-10 -4 -8 -17v-18q-6 0 -4 -17v-12h-2q-4 -14 -4 -31q0 -20 10 -62t8 -69q-8 -4 -8 -16 q2 -18 2 -19q-12 -20 -6 -51q-6 -2 -10 -10v-12q-12 -14 -7 -41q-27 -31 -20 -49q-16 -12 -35 -45q-14 -6 -35 -25q-27 2 -43 -18.5t-30 -36.5q-2 6 -16.5 5t-18.5 1q-51 -45 -129 -41v2q-27 4 -86 6q0 10 -10.5 7t-24.5 11.5t-33 10.5q-6 18 -39 49t-37 59q-2 18 -24 33 q-31 20 -35 25q2 12 -2 38.5t-4 38.5q0 29 20 39q-2 8 9.5 21.5t11.5 19.5t-9.5 12.5t-21.5 20.5h-12q-2 4 -2 8q0 6 11 14.5t11 16.5q8 2 17 14q16 2 42.5 27t53.5 25q8 0 21.5 -4.5t24.5 -36t26 -35.5q6 -27 18 -84h4q-6 -2 -4 -25q-4 -2 -10 -4q2 -4 4 -10q-2 0 -2 -8 q10 -4 14 -14.5t10 -12.5q-4 -14 -20 -27q6 0 9 -11t7 -11q2 0 6 2q6 -8 31 -12q12 -4 23 -4q16 0 51 12t61 8q0 -2 4 -6q2 6 19.5 12t15.5 21q18 18 27 59l-2 37q6 2 10 29l6 2q0 33 -8 129q8 4 9 15t5 13t6 9q0 6 -4 14h-6l-8 90q10 4 11 28.5t7.5 27.5t4.5 24 q-12 20 -31 33l-2 30h6q-6 23 5 57.5t11 45.5q0 23 -18 39q0 -8 -6 65q-4 41 10 58q6 27 -12 45q-16 12 -35 26q-4 -4 -8 -4t-6 10.5t-9 10.5q-27 6 -71 4l-76 -6q4 8 -6 9t-13 5q-4 -2 -16 8q-2 2 -33 10l-20 23q6 0 4 14q8 8 10 35q8 2 29 43q8 -2 18 4l56 6v-2q8 -2 51 0 q0 -8 10 -8q20 2 21 2q2 8 17 9t19 5q35 6 52 13q29 6 43 20q-12 35 -32 44t-50 38q-14 12 -41 21q-10 16 -15 49q16 10 13 63q4 2 8 33q4 -2 10 4v8q6 -6 10 4q12 10 27 31q14 10 14 14v13q20 -4 31 12q4 -6 30.5 -7t28.5 -14q10 2 18.5 -9t20.5 -7q2 -10 4 -12h13 q4 -6 24.5 -21.5t18.5 -40.5h6z" />
<glyph unicode="k" d="M1192 819v-10q-12 -14 -24.5 -28.5t-30.5 -18.5q0 -16 -17.5 -17.5t-31 -1.5t-13.5 -4v-6q-106 -8 -108 -8q-55 -10 -76 -47q-35 -4 -66 -45q-39 -51 -51 -60l-43 -43q4 -37 25 -100q25 -8 48 -46t48 -44q16 -8 22.5 -40t20.5 -40q0 -12 13.5 -28.5t15.5 -26.5h10 q-8 -27 24 -45l99 -4q16 -27 51 -27q16 -10 35 -39h10q0 -12 7 -39.5t7 -40.5q0 -23 -18 -35q-47 -29 -143 -32q-150 -8 -158 -9q-4 0 -20.5 9.5t-30.5 7.5q-4 6 -17 6h-18q-2 6 -15.5 7t-19.5 3t-20 19q-29 0 -70 8q-27 -18 -84 -9t-82 -5l-123 -3v3q-25 4 -50.5 6 t-37.5 18q-2 10 -20 14l-19 5v-7q-12 6 -16 -7t-17 -7l-18 -22q-4 6 -27 6q-6 0 -6 -6q0 25 -31 26h-14q2 8 -2 12q-4 -2 -8 -2t-6 10.5t-4 10.5q-2 10 12 22.5t10 28.5q12 4 12 39q4 -2 29 6v6l117 -2q0 -8 2 -8q18 12 18 53v68h2q2 14 8.5 39.5t22.5 56.5q-8 0 -8 16 q0 10 -8 13q29 20 28 74q0 20 -5 62t-5 58h2q8 16 2 41q-8 27 -6 41l-6 2q8 2 8 29q4 4 5 13.5t5 11.5q-2 14 -47 114q2 2 13 23q6 12 -2 22l-2 35q10 2 10 12v21q2 4 2 8q0 6 -13.5 23.5t-13.5 29.5v60q0 35 -22 43q4 8 -5.5 13t-9.5 11q-23 31 -49 25q-2 -10 -14 -10 t-14 -4q-6 4 -23 4q0 10 -8 10h-15q0 6 -10 8t-10 8q6 0 6 25q16 2 20.5 20.5t8.5 36.5q14 6 29.5 30.5t31.5 31.5l78 -2v-2l82 -5q0 -10 16 -10h13q2 -6 10 -6h12q6 -8 22.5 -20.5t22.5 -18.5q-4 -18 20.5 -25.5t26.5 -13.5l-2 -131q-16 2 -16 -26q0 18 -2 -56 q0 -33 18 -43l-2 -20q-25 -12 -24 -31h-6q2 -66 -19 -188v-62h-4q-10 -37 14 -110q35 -4 56 26q25 39 39 44t43 40q27 27 53 31q23 20 26 29q14 16 17 36q-2 6 -23 33q-12 18 -12 37q0 10 4 21l8 16q0 4 15 24q23 6 69 27q0 10 6 10q-4 0 17 0q10 0 12 9q2 -6 27 -7 q0 -2 2 -8q6 8 25.5 7t25.5 3q49 -4 113 11q80 16 106 18v4q16 -12 64 -22q0 -10 10 -11h18q25 -31 19 -79q0 -14 2 -17h10zM633 193q-16 0 -16.5 21.5t-1.5 25.5t-23 49q-4 0 -4 14q-20 16 -56 49q-33 6 -59 -30q-10 0 -17 -11.5t-14 -11.5l-2 -68h6q14 -12 15 -12 q-2 -2 -9.5 -12t-13.5 -4l-2 -13q0 -14 -8 -10v-10q2 -2 6 -4q6 -12 2 -31q4 2 10 8q2 -6 7 -14q33 0 45 -12h12q6 0 6 -11h57v7q2 2 17 2q25 0 22 -9q19 11 21 87z" />
<glyph unicode="l" d="M1055 59q12 -55 -7.5 -58t-45 -20.5t-44.5 -19.5h-141q0 6 -10 6h-14q-2 6 -11.5 8t-11.5 9q-10 0 -29.5 -7.5t-29.5 -7.5q-12 0 -23 8q-37 2 -96 -8h-14v4q-16 2 -46 7q-2 2 -4 6q-16 0 -50 -11.5t-56 -9.5q-12 16 -64 17q-8 -8 -33.5 -8.5t-35.5 -4.5v-4h-13 q-10 37 -45 47q-6 16 -26 41v103q47 4 67 24q16 0 64 21h8v-6q84 -20 115 28q12 20 12 76q10 16 31 45q12 18 0 37h-6l2 80q18 6 39 39q2 -2 6 4l-15 26q35 33 35 39q0 8 -6 17q-47 82 -51 162h-6v20q29 29 10 76q0 4 -8 4v47q29 23 24 82q-6 0 -9 14.5t-15 12.5 q2 14 -5.5 30.5t-7.5 28.5q-12 8 -20 29.5t-18.5 25.5t-63.5 6q6 12 -16 13q-6 0 -17 -2v-11h-6q4 12 -16 15h-10q-4 6 -27 6q-8 0 -9 6t-11.5 9t-12.5 5q-8 4 -8 23v26q-4 16 -25 15q0 14 -2 16h-10v21q8 -4 12 0t2 12v10q6 2 56 2q33 0 43 23q20 20 63 20q0 -10 15 -10h8 q16 -16 51 -10v-10l141 -7q4 -8 23 -8h4q14 0 20 -4q12 -10 25.5 -20.5t13.5 -24.5q16 -31 17 -90q0 68 -2 -98q-6 -2 -7 -13q14 -33 9 -77q-2 -31 -4 -64q-2 -41 16 -55v-19h-6q-12 -49 -2 -96h6v-59q-10 -10 -14 -39q-4 -35 -11 -45q-18 -6 -32 -35q6 -6 8 -27.5t14 -23.5 q-4 -18 4 -39q10 -29 12 -33q-27 -51 -2 -104q-8 0 -6 -13v-20q0 -18 23 -43q-2 -6 -2 -15q0 -16 26 -45q6 8 26.5 8.5t27.5 4.5v4h14v-4q14 -6 31 -6q12 0 36.5 5t38.5 5q12 0 23 -2v-4q4 -2 49 -2q2 -8 6 -11h15q37 -16 45 -55q-2 -23 2 -70z" />
<glyph unicode="m" d="M1282 -4q-4 -14 -21.5 -27.5t-19.5 -23.5q-25 0 -29 -4v-4l-12 2q-2 6 -16 6h-23q-2 14 -24 14q-31 -2 -33 0q2 -16 -8 -20h-23q-16 2 -20 -2q-12 0 -35 2q-2 2 -4 8h-13q4 10 -7 11t-13 5q-8 -2 -14 14q-25 -2 -76 -6q-6 12 -12.5 26.5t-20.5 14.5q0 20 -4 21h-4 q12 23 43 71q25 10 47 25q25 4 29 33v53q-2 2 -13 2v111q16 4 17 34q2 23 2 48q6 -4 6 10v14q8 8 15.5 16.5t2.5 24.5q6 -4 7 17q-2 12 -18.5 39.5t-16.5 46.5q0 14 6 30q6 0 6 17l2 14q10 -6 10 10v15q6 -8 6 6v14q4 2 5 8l-25 47q4 20 -18 33q-31 14 -35 23q-14 0 -15 -4 v-5q-4 4 -8 7q-6 4 -8 -2v-11q-25 -8 -74 -30q0 -4 -8 -14.5t-8 -16.5q0 -4 4 -10q-18 -4 -22.5 -21.5t-6.5 -36.5q-6 4 -7 -7t-10 -23.5t-7 -24.5q-12 -10 -21 -33l-12 -39q-10 -4 -16 -26q-4 -43 6 -117h-4q-6 -23 -5 -64t-4 -59q10 -14 11 -49v-24.5v-22.5q0 -63 39 -70 q2 -8 16 -25.5t14 -35.5h4q-6 -18 -24 -47q-10 2 -29 -4v-7q-2 10 -26 11q-2 2 -5 6q-20 -8 -61 -23q-6 8 -25 8q-29 -2 -32 0q-2 2 -4 11l-17 -11v7q-25 6 -49 0v-7q-6 8 -31.5 15.5t-29.5 23.5q4 6 20 29q14 16 14 35q0 8 -2 18q0 2 56 43q-2 12 9 25.5t11 15.5 q0 8 -14 15v24q8 -2 13 7l5 10q0 51 -16 61v29q14 -6 14 16q2 6 -4 16h-10v39q8 -4 12 2q4 14 6 15v26h4q2 6 4 41h11q4 29 0 64h-11v20q10 0 15 2q-14 8 -15 37q0 53 0 45h11q0 14 4 39t4 35q0 23 -16 33q-2 6 -13 28q-6 14 -12 24.5t-19.5 15.5t-25.5 5q-29 0 -67 -38.5 t-76 -32.5q-2 4 -3 10q-16 -18 -31.5 -38.5t-15.5 -45.5h-10q-2 -6 -2 -41h-4q-12 -25 0 -49q0 -4 2 -12q-4 -20 -27 -50l-2 -20h-6q-2 -215 19 -215v-14q-10 -2 -14.5 -26t-6.5 -26q0 -25 19 -57q-6 -23 12 -40t18 -25q18 2 58 -39q8 -20 6 -66q-18 -16 -58 -51l-81 2 q-8 10 -37 14q-35 4 -43 11q-4 -8 -21 -9q-25 2 -26 2v4q-6 2 -41 3q-2 4 -4 10q-8 -10 -31 -8h-35q-2 10 -26.5 31.5t-24.5 31.5q0 14 24 25q16 8 21.5 45t32.5 37q27 10 56.5 20t29.5 41q2 10 -7.5 35.5t-9.5 38.5q0 20 25 28v15h6q6 25 6 51q0 23 -6 68t-6 67q0 18 2 37 q4 0 10 2l-4 8q-4 14 -4 39q0 12 2 37v37q0 57 -33 72q0 29 -33 55q-8 14 -34.5 34.5t-34.5 41.5q4 12 23.5 25.5t25.5 21.5q55 23 117 16q-2 -6 16 -6q8 -4 16.5 3t18.5 3q4 -6 14 -8h15q16 -12 43 -57h10q0 -8 6 -9q2 8 20.5 8.5t18.5 10.5q0 4 -4 12l33 51q4 6 26.5 9.5 t24.5 15.5q25 -2 63.5 4t55.5 6q16 0 30 -2v-4q53 -8 70 -8q0 -10 2 -13q27 -10 31 -38q18 -8 49 -21q31 2 70.5 26.5t60.5 30.5q0 2 6 13q20 -2 49 7t47 9v8l92 -2q-2 -8 1.5 -12t9.5 -2h14q12 -12 41 -35q-4 -27 15.5 -42t37.5 -26q16 -121 17 -100q0 -20 -4 -37h-5 q-10 -43 -2 -102q10 -84 11 -96q0 -37 -15 -70q-4 -41 3.5 -87t13.5 -87h6v-10q-6 -4 -10 -15q0 -16 4 -16h6q2 -20 22 -43q16 -57 72 -80q-6 -20 8 -53q14 -39 15 -49q-1 -19 -21 -33z" />
<glyph unicode="n" d="M1180 100q23 -63 -9 -92q-10 0 -10 -4v-14q-16 0 -18 -2v-8l-129 2q-10 -25 -41 -23q-8 0 -19 -8v-6h-71v8q-39 4 -109 18q-18 12 -59 35l2 47q10 -10 10 10q-2 8 10 15q10 0 12.5 5t15.5 9t13 12q0 6 -4 11q29 27 56.5 56.5t25.5 76.5q6 -4 6 8q-8 12 -6 41v45 q14 0 16 16.5t9 18.5q-4 31 -17 67q10 0 10 15v14q6 -4 7 12l2 15h2q14 18 0 45q-2 0 -2 20h4q10 23 0 51h-4q8 23 8 50q0 55 -31 84q-10 43 -41 51l-12 14h-10v8l-152 4q2 2 -2 7q-2 -8 -16 -7q-18 2 -23 0q-4 -8 -4 -51q-6 8 -7 -3t-18.5 -17t-19.5 -21q-12 -14 -45 -43 l-21 -12q-12 -6 -10 -18l-8 -2q-8 -3 -6 -9q-10 -4 -21 -47q-33 -27 -28 -72q-10 2 -10 -6q-2 -2 0 -16q2 -10 -3 -12l-2 -13q-2 -2 -10 -4q10 -6 10 -22v-29q-23 -37 -16 -55h-4q-8 -16 -8 -31q0 -14 10 -37.5t10 -40.5q0 -10 -4 -20q-6 2 -6 -15v-14q-4 -4 -4 -10 t11 -27.5t9 -38.5q-4 4 -10 -2q4 -23 35 -22q51 0 49 0q6 -8 41 -27v-65q-8 -2 -8 -15q2 -18 0 -20q-10 -2 -60 -2q-39 0 -55 -13h-43q2 12 -2 13q-10 -14 -47 -13.5t-45 -5.5q-4 8 -21 8q-25 -2 -28 -2v13l-103 6q8 8 -2 8h-10q0 10 -8 27l-2 69q10 0 10 13v10q12 0 14 4 v10q10 6 36 5t36 5v7q12 -12 17 -11q16 16 16 45q0 12 -4 38t-4 36q0 27 14 41l6 143q4 2 6 9q-2 20 -10 59t-12 59h4l4 97h6q4 8 3 36.5t11 30.5q23 39 23 58q0 10 -4 22q-2 2 -8 23q-4 14 -19 14q0 25 -14 25h-6q-14 10 -41 34h-25v11q12 0 15 4v12h49q-4 -2 0 -6 q4 -2 6 0h14q-4 -6 2 -10q8 0 16.5 13t16.5 13q4 0 12 -4v-4q12 -4 23 -4q12 0 32.5 8t26.5 10q29 -25 33 -96l10 10q0 -10 15 -10q25 8 65 29q4 0 4 8q2 -4 6 -8q6 -4 11 4v4h14q-8 -8 2 -8q18 10 37.5 22.5t25.5 32.5q27 16 31 33q8 4 49 4q33 -2 43 12q29 0 29 10h64 q27 -4 61 -22l123 -8q0 -6 8 -6h10q12 -27 26.5 -54.5t37.5 -36.5q-4 -53 8 -151h8l-2 -84q-18 -8 -16 -51l2 -398q12 2 14 -13t8 -15t11 4q10 -18 40.5 -34.5t38.5 -31.5h11z" />
<glyph unicode="o" d="M1102 426q14 -29 -15 -74q-39 -25 -32 -94q-2 0 -6 -4q0 -16 2 -16h4q-27 -33 -72 -103q-2 -6 -23.5 -15t-15.5 -30q-18 -23 -67 -59q-10 -18 -48 -32.5t-47 -35.5q-53 -14 -73 -10q-2 8 -17.5 8t-17.5 2q-2 -10 -13.5 -10t-9.5 -10h-94v8q-59 4 -76 8q-37 6 -57 29h-21 q-2 2 -32 20q-20 14 -25 33q-20 14 -67 82q-6 14 -30 45t-26 57q-8 4 -30 64q-10 2 -11 16q2 20 0 25q2 33 4 63q0 39 -18 53l2 64q14 0 14 18.5t4 22.5v14h2l5 70q16 0 18 8q-2 2 14 10l4 84l11 -8q16 4 16 25q-2 18 -2 34q6 2 8 9v14q27 8 49 41q10 2 14.5 25.5t14.5 25.5 q6 23 43 31t43 29q47 2 139 20q6 12 37 12q39 0 47 4q35 4 80 -10t72 -12q-4 -10 10 -10q8 0 20.5 -8.5t22.5 -6.5q0 -12 11.5 -11t22.5 -11t21 -10q8 -27 56 -72q39 -41 41 -80q33 -57 47 -125q0 -12 9 -34.5t5 -39.5q-10 0 -10 -14q-2 -12 7 -19.5t17 -15.5l9 -78h8 q0 -16 2 -16zM893 543q4 14 4 24q0 14 -14.5 40t-10.5 48q-8 -2 -9 6.5t-3 8.5q-8 4 -9 16t-9 12q-10 33 -11 33q-47 16 -73 53h-13q-4 0 -4 11h-14q-2 2 -4 10h-25q-14 0 -35.5 16.5t-39.5 16.5q-20 -12 -79 -18.5t-77 -24.5q-14 -2 -29.5 -20.5t-34.5 -14.5v-8 q-4 -2 -23.5 -4.5t-28.5 -25t-15 -26.5h8q2 -2 2 -14q0 -25 -10 -20v-35h6q4 -2 4 -19q2 -4 -2 -10q-4 -4 -8 0v-51q-23 -23 -23 -45q0 -12 9 -33q10 -29 12 -39h6q6 -18 5 -56t5 -57q14 -29 41 -94q37 -6 66 -26q4 -20 45 -56q59 -6 88 23q20 -20 31.5 -19.5t11.5 -5.5 q41 0 88 31q59 41 82 49q-8 35 17.5 57.5t49.5 42.5q-4 68 13 201h4v12q0 13 6 11z" />
<glyph unicode="p" d="M1057 494h-2l-8 -103h-5l-4 -102q-6 -8 -14 -18.5t-4 -22.5q-4 -2 -3 -13.5t-10.5 -12.5t-13.5 -3q-10 -59 -10 -55q-10 -16 -35 -37l-35 -33q-35 -20 -75 -59q-57 -53 -72 -66q-10 -18 -43 -18q-70 2 -55 2q-2 4 -4 10l-13 -10v4l-133 14q-2 10 -14 9.5t-18.5 3.5 t-26 19t-35.5 15q-8 0 -21 -4q-29 -10 -24 -26q-2 0 -10 -8q8 -8 15 -17.5t1 -23.5q-23 -10 -16 -33q-4 -55 67 -113q78 25 109 -8h16q12 -10 41 -25q-2 -70 19 -77h6v-21q-14 -2 -21.5 -20.5t-9.5 -20.5q-8 8 -27 2q-18 -6 -30 -2q-2 8 -15 8h-18q6 6 12 12.5t4 18.5 q16 0 17 2q-2 12 -15 29l-22 22q-2 -4 -10 -4h-13q-4 0 0 -8h-10q-4 -6 -4 -14q0 -14 10 -28.5t21 -29.5q-29 -6 -56 -12q-33 -8 -61 -4q-2 4 -4 10q-6 -10 -25 -10l-33 2v6q-12 0 -41 4q-4 0 -20 15.5t-37 9.5q0 2 -2 6q-8 0 -8 -4q-10 -25 -31 -25q-2 0 -28 6q-23 4 -39 0 q-8 18 -37 19h-47q-4 12 -17 41l6 6q-8 0 -8 18q0 10 -8 13q23 53 61 53q12 0 27 -4q-6 -6 4 -6q2 8 16.5 8t20.5 6t27.5 13t27.5 20q2 2 29 12q18 8 18 25q55 53 68 141q-23 12 -25 47q-4 45 -8 55q10 0 10 15v10h3q4 4 4 39q-6 8 -13.5 15t-19.5 7v60q16 0 16 10v10 q2 12 17 21q20 16 22 16q4 16 -6 35h-14q4 12 -4.5 24.5t-8.5 22.5q-8 4 -20 4q-8 20 -6 62v67q8 4 8 8q0 2 -7 13.5t-3 19.5q-27 84 -21 146q10 6 19 67q6 0 8 14q-14 35 -55 93q-2 -4 -11 -5q-12 2 -14 3q-4 -2 -2 -13l-37 2q-6 8 -37 12.5t-41 12.5q0 10 -4 10h-10v33 q31 8 90 22q0 -6 2 -6l14 6v-2q18 -14 45 -2v4l7 -6q6 8 24 6q29 -2 33 0q0 -2 4 -8q0 8 15.5 7t17.5 12q6 -18 49 -35q37 -14 33 -45q6 0 8 -9.5t8 -9.5q2 0 6 2v-8q6 0 22.5 -4t24.5 -4q25 0 19 29q-16 74 26 82h25q16 -2 16 12q20 -2 49 5t41 7q14 0 27 -4h12v-2 q27 -8 119 -8q18 -12 47 -49q41 -41 78 -37q2 -2 19 -29q10 -16 8 -37q8 -25 26 -24q0 -14 4 -17q6 -10 14.5 -20t22.5 -8q-4 -41 30 -98.5t30 -102.5zM903 420h-2q2 10 2 20q0 20 -12 51t-12 50q0 16 6 34h6l-6 27q-8 68 -29 133q-10 -2 -13 12.5t-12 14.5q-4 0 -8 -2 q-4 16 -28.5 28.5t-28.5 30.5q-25 4 -45 31q-31 2 -84 -6q-12 -16 -45 -21q-39 -4 -51 -12q-2 2 -2 10l-60 4q-10 -10 -41 -20v-10q4 -4 5 -22.5t12 -18.5l-11 -11q2 -10 -10 -19t-10 -17q0 -14 -10 -15q-4 -10 4 -18t6 -15q0 -18 -10 -14q4 -16 -6 -37l-2 -10 q0 -20 -11 -10v-10q0 -18 -6 -17v-14q0 -12 -6 -10q-12 -31 -23 -101h-6v-14q-10 -12 -21 -25.5t-28 -15.5v-21q8 2 21 -2q-2 -18 8 -22q6 -2 26 0q18 2 27 -2v-10h12q47 -25 52 -52q-2 -39 27.5 -59t56.5 -37q6 -12 26.5 -24.5t24.5 -16.5l39 2q12 12 24 13q8 0 24.5 -11.5 t28.5 -11.5q10 0 23 6q25 14 74 47q4 20 33.5 34.5t27.5 41.5q2 10 12 18q-4 20 4.5 53t6.5 52q16 6 15 18.5t5 12.5v10z" />
<glyph unicode="q" d="M1217 -305q-8 -4 -9 -19q2 -16 0 -18l-6 -4v-14q-33 2 -37 -2q-37 6 -92 -9q-63 -14 -86 -14q-16 0 -33 4q6 8 -4 8q-41 -20 -69 -14q-12 0 -15.5 16.5t-11.5 16.5q-4 0 -10 -4q-23 -14 -39 -15q-12 0 -37 9.5t-45 9.5q-2 14 -17.5 43.5t-15.5 44.5q0 20 21 33 q4 6 25.5 9t25.5 13h6q2 -6 12 -10h11q0 -10 4 -12q0 6 9 7t11 5l12 -4q8 23 39 53q2 20 -6 49t-4 49q23 29 10 74q-76 23 -82 23q-10 0 -20 -3q-18 -23 -55 -45q-57 -31 -60 -34h-8q0 12 -17.5 12t-20.5 7t-15 5h-21l2 4l-73 4q-2 10 -15 11h-20q-2 8 -15 8q-16 -2 -18 0 q-6 -6 -4 -8q-2 10 -22.5 9t-20.5 7q0 4 4 12q-10 2 -25 27q-10 18 -32 14q-2 10 -21.5 14.5t-17.5 22.5q-14 -2 -16.5 9.5t-4.5 23.5q0 6 -4 10h-10l2 51q12 -6 12 21q0 10 -2 12h-10q0 31 -10 35h-13q4 20 -12 41.5t-14 38.5q6 -6 6 4q-10 12 -17.5 53t-18.5 58.5t-9 58.5 q2 57 0 65h4q4 4 4 43q14 6 15.5 29t3.5 45q12 6 19 35t24 35q-4 14 12 25.5t12 27.5q12 4 15.5 29.5t15.5 29.5q6 0 10 9q2 8 0 16q25 -4 46.5 16.5t35.5 22.5v6q43 6 59 27q25 8 82 8l6 10h127v-8q25 -12 54 0v6q0 -8 26 -10q8 -6 37 -9t31 -14.5t16.5 -12.5t10.5 -11 q4 -8 8 -4q12 6 12 8v6q41 4 64 27q59 8 63 -19q23 -25 76 -57q2 -10 12 -47q8 -27 4 -52h-6q8 -57 -6 -178v-8q-2 0 -6 -4q8 -23 6 -92q-2 -78 2 -103q8 -49 -4 -120q-8 -2 -8 -15v-18q8 -10 6 -33v-39h-4q-8 -47 -2 -108q8 -51 14 -103q-33 -16 -29 -59l51 -82v-23 q-2 0 -6 -2l-4 -2q8 -2 17.5 -15t17.5 -13q6 0 14 4q0 8 7 24q14 -12 36 -8q0 -35 21 -47h14q0 -6 8.5 -20.5t4.5 -28.5zM842 469q8 37 -19 78q0 37 -22 84q-14 2 -20.5 32.5t-22.5 30.5q-31 35 -101 88q-6 2 -12 9q-63 16 -82 -17q-16 -6 -33.5 -13t-35.5 -3v-10 q-2 -2 -19 -3v-14q-12 -18 -41 -47v-12q0 -6 -6 -6q4 -16 -6 -33t-10 -21q2 -31 -13 -82h-10q-35 -4 -35 -51q0 -8 2 -22v-25q0 -18 -4 -29h-4q-2 -23 -16 -47q-23 -37 -25 -39q0 -12 -10 -6q-4 -18 17.5 -34.5t21.5 -30.5q0 -8 -6 -19q16 10 59 -2q14 0 14 -12q4 0 8.5 -6 t8.5 -6t6 2q4 -4 13.5 -6t6.5 -13h11q27 0 49 -24q29 -31 41 -37q49 0 59 16q-6 0 68 -4q39 -2 53 17q2 2 16 4q8 2 7.5 10t5.5 12q0 20 10 62q4 14 20 39v10q2 6 8.5 12t6.5 20.5t10 16.5q-2 8 -2 14q0 14 14.5 32.5t14.5 31.5q0 8 -5.5 20.5t-5.5 18.5q1 10 15 14z" />
<glyph unicode="r" d="M1130 842l-2 -127q-10 2 -10 -21l-22.5 -31.5t-30.5 -15.5q-8 2 -18 -6v-6h-60q2 10 -4 12h-14q-8 0 -13 6h-12q0 6 -14 6h-10q2 10 -10.5 14.5t-12.5 6.5q-29 31 -86 92h-27q0 6 -2 10q-10 0 -14 -4v-6q-39 -4 -61 -27q-45 -10 -64 -18q-35 -16 -43 -47q-18 -8 -14 -33 q4 -33 -4 -45h-2q-4 -4 -5 -39q-10 4 -10 -6v-14q-6 -2 -8 -11q8 -16 8 -51q-2 -51 -4 -56t-4 -11q-6 -14 -13 -27.5t-5 -30.5q18 -8 16 -51q-14 4 -17 -10t-6 -16q2 -14 26 -34t24 -40q23 0 22 -23l80 -4q4 -6 14 -8h13v-6q41 2 100 -14q12 0 18 -13q12 -18 13 -18 q-2 -6 8 -49l14 6v-15q-14 0 -25.5 -23.5t-21.5 -25.5v-14q-33 -4 -47 -23q-207 2 -299 -12q-10 -6 -18 -6t-31 7t-41 3v6q-51 8 -70 -6h-14l2 6q-25 2 -49.5 5.5t-34.5 17.5h-16q-6 2 -13 6q-12 0 -14 4l-4 84l8 6q-4 10 10.5 12.5t12.5 14.5q35 0 84 22q27 2 53 7.5 t35 27.5q20 10 10 99q-14 4 -14 18q0 4 6 27q4 20 0 30h6l8 142q10 -4 10 12q-10 16 -10 47l2 53h6q-4 10 -4 19q0 18 20.5 38.5t18.5 43.5q-12 12 -23.5 26.5t-29.5 14.5q4 31 -20.5 44t-49.5 23q0 6 -10 6h-14q-6 2 -20.5 15.5t-33.5 9.5q-14 12 -29.5 27.5t-9.5 42.5 q35 20 68 38q43 23 80 27v-2q10 -6 51 -6q33 2 39 -17h18q-2 -10 13 -10h10q0 -6 16 -6q8 -2 23.5 -16.5t28.5 -14.5q6 0 16 2q-2 -12 6 -12q14 10 31 39q98 10 133 37l29 29h16q8 2 6 14l107 -2v-6l69 -13q4 -4 15 -6h10v-10q25 -4 48.5 -9t23.5 -32q43 -14 47 -43 q0 -10 6 -10h6q0 -18 4 -21h10q0 -23 2 -26h8z" />
<glyph unicode="s" d="M1083 154q-16 -25 -24 -48q-4 -4 -33 -38q-16 -23 -41 -27q-31 -31 -57 -31q-18 -2 -66 -39q-37 -37 -131 -37q18 0 -133 9q-23 8 -55 41q-6 2 -54 30q-33 20 -57 21q-20 0 -37.5 -14.5t-35 -34t-42.5 -17.5q0 16 -26.5 20.5t-22.5 28.5h-6q0 14 -4 17h-10q2 27 -2 31 q-8 16 -37 43q0 16 -16.5 39.5t-18.5 41.5q0 27 -6 76q39 18 53 51q-8 27 21 48q12 2 27.5 22.5t33.5 18.5q4 10 28.5 13t24.5 13q0 4 -4 10h-10q-14 16 -47 56h-10q0 6 -11 6q-23 20 -51 65q-16 10 -16 43v52q-4 16 -17 22v45h5q2 14 6 41q8 -4 8 17.5t31.5 42t29.5 47.5 q2 0 37 39q20 25 53 18q43 18 121 63q4 -8 15 -10h22q16 2 23 2v-2q66 -16 102 2q12 -10 47 -22q0 -12 18.5 -13.5t22.5 -3.5q0 -8 6 -8q4 -2 11 0h14q0 -12 4 -12q12 0 12 2q14 23 107 12q18 -10 41 0v4q8 0 16 -11t12 -11t11 14q2 -6 22 -24q14 -14 10 -33q10 -8 13 -70 q2 -29 18 -35q-2 -12 -10 -38.5t-8 -39.5q0 -14 6 -28q-6 -20 -27 -49q-25 -4 -35 0q-20 8 -30 10q0 6 -15 6q-18 10 -38.5 20.5t-25.5 29t-67 73.5h-18q0 6 -15 6h-10q2 10 -12 10h-14v4q-27 2 -86 19q0 10 -9 12q-14 4 -18 8q-53 6 -86 -26v-6q-27 -12 -70 -48 q-2 -6 -26 -30q-16 -20 -17 -35q0 -14 9 -27h8q-2 -14 11 -22t15 -11h27q-4 -10 10 -10h15v-4q4 -2 40 -4v-2q39 -14 62 -12v-6q35 -12 68 0h-3v6h3q0 -10 4 -11q31 25 92 11q0 -8 8 -11h12q10 -23 45 -14q0 -10 2 -14q10 0 11.5 8t11.5 4v-6l84 -10q4 -6 12 -8.5 t18.5 -22.5t28.5 -18q20 -45 60 -64q0 -31 4 -33h10l2 -192q18 -33 16 -51zM928 340h-8q-8 29 -11 27q-41 10 -84 43q0 -6 -4 -11q-57 -4 -86 25h-16q-14 2 -19 2q-6 -2 -6 -12q-6 2 -12 2q-12 0 -27.5 -10.5t-25.5 -10.5q-6 0 -6 6h-19q-12 0 -12 11l-55 -6 q-8 4 -18.5 -4.5t-12.5 -8.5q-4 0 -10 10h-11q-14 0 -14 11h-94l-2 -27q25 -16 51 -76q25 -8 33 -52t30 -52q0 -12 16.5 -19.5t18.5 -15.5q29 -6 35 -25q14 -4 55 -34q31 -23 68 -17v-4q29 -4 57.5 3t55.5 14q-2 18 22.5 29.5t28.5 17.5q23 0 28 26q12 2 15 23q2 18 -4 33 q10 14 41 30z" />
<glyph unicode="t" d="M1096 250q-6 -8 -13.5 -17.5t-3.5 -23.5h-4q-2 -23 -20 -57v-11q-10 -4 -10.5 -18t-4.5 -19q-33 -20 -47 -59q-10 0 -14 -4v-10q-10 0 -10 -2v-9q-8 -6 -25 -4q-23 2 -26 0q-10 -2 -11 -18q-4 0 -12 -6v-6q-29 2 -61 -11q-43 -14 -58 -16l-74 -8v-4q-4 8 -18 8 q-16 -2 -18 -2q-23 23 -62 29q0 6 -12 6h-10q-20 10 -58 41q-33 43 -110 86q4 10 -3.5 18t-2.5 19h4q4 14 4 28q0 10 -4 31.5t-4 34.5q0 10 2 20q8 2 6 15v18h6q10 45 -6 57v15q20 29 18 41h4q4 18 4 37q0 14 -6 53q-6 33 -4 57h-4v14q8 -8 8 2q-8 4 -8 19q2 23 4 25t4 10 v10h4q6 16 6 31q0 16 -15 41.5t-15 44.5q0 14 6 28q-10 10 -33 11h-39q-2 8 -14 8h-23q-6 16 -59 16q-18 10 -47 35q0 16 -16.5 40t-16.5 42q14 0 16 2q6 10 23.5 16.5t24.5 14.5q23 4 61 18q18 -6 41 -6q55 0 100 39q-27 109 -26 125q0 23 4 43q6 4 8 14v15q14 23 53 63 q2 14 23.5 21.5t25.5 17.5q12 4 25 4q31 0 51 -45q6 -18 25 -41q16 -45 8 -156q-4 0 -10 -2v-14q-8 -2 -11 -10q-4 -16 14.5 -20.5t22.5 -10.5h11q0 -12 25.5 -11t29.5 -3v-6q8 -4 55 -5q0 -8 4 -8q4 -2 13 0q10 2 12 2q2 -10 14 -10h21v-4l67 -4q2 -4 13 -6h10q0 -18 6 -35 q6 -23 6 -33h21q4 -12 4 -18q0 -14 -18.5 -26.5t-20.5 -27.5l-6 9q-8 -10 -31 -11q-31 2 -37 0l-70 -8q-41 -4 -57 -20q-59 -14 -76 -68q-10 2 -14 -10t-12 -12v-54q-10 0 -11 -4q0 -12 2 -14h9l-2 -141q-8 0 -11 -11q0 -16 2 -16h9q-2 -18 7 -43t5 -41q-10 -125 22 -147 q-4 -25 19 -39q16 -8 35 -17q20 8 79 11q-6 -8 5 -9q14 23 47 64q27 16 26 53q10 14 31 47q14 4 34.5 27.5t45.5 19.5v11q31 -4 74 6q27 -20 32 -74q7 -45 13 -88z" />
<glyph unicode="u" d="M1204 104q10 -78 -20 -84q-6 -6 -17 -38q-6 -25 -28 -25q-14 -14 -54 -14q-72 2 -61 2v4q-10 4 -53 4q-35 0 -45 16h-11q-12 33 -32 41l-31 8q-4 2 -18.5 14.5t-24.5 12.5q-6 0 -12 -4q0 10 -2 10q-6 -10 -26.5 -18t-25.5 -15q-33 0 -81 -25.5t-87 -23.5q0 4 -2 4 q-4 0 -28 -12q-16 -6 -33 0q-2 0 -4 6q-2 -8 -17.5 -8t-15.5 -8q-12 8 -45 8t-43 2q0 8 -14 8h-11v2q-6 4 -47 4q2 2 0 7q-4 4 -6 4q-4 -2 -8 -2t-8 7t-8 5q6 16 -9.5 22.5t-13.5 16.5q-4 2 -26 33q0 25 -5 28h-2v13q8 2 9 12q0 10 -2 18q2 10 14 11q2 4 4 40 q-6 2 -13.5 5.5t-4.5 11.5v10q18 8 18 72h4q2 20 6 63q-12 -2 -20 9.5t-17 9.5q0 16 -12 10q0 18 -4 20l-2 60q2 0 6 4v14h10q6 23 0 53h-10q2 12 -2 15l-4 47q6 2 8 6q0 16 -4 18q0 18 -18 41v27q12 0 12 10q0 4 -6 13h-6q-18 70 -84 96q2 10 -7.5 14t-9.5 10 q-31 16 -47 66h-31q0 6 -4 10l15 6q20 0 24 4q12 8 37 33q31 0 47 23h45v-6q27 -2 78 -19q6 -29 33 -24q29 -29 47 -25q2 -6 8 -10h12q12 -31 41 -88q-33 -37 -24 -74q-10 -2 -10 -12v-19l-9 -6q8 0 9 -12q-2 -16 -3.5 -18.5t-5.5 -4.5v-14q-25 -6 -20 -43q6 -47 -2 -61 q-12 -2 -12 -21q0 -25 -5 -29q-27 -35 -24 -45q-8 2 -8 -10t-9 -10q18 -47 39 -43q45 -57 37 -117q-18 -2 -18 -27q2 -35 0 -36q20 -27 74 -62l69 -4q0 -2 2 -8l15 6l2 -6l14 6v-2q4 -4 41 -4v-6q12 -8 24 -8q18 0 42 18t36 23q16 14 34 31.5t18 41.5q6 6 14 13.5t6 15.5 q8 0 35 24v72h4l4 68q10 10 20 37q27 20 18 70t5 75q-10 12 -6 59q2 41 -17 54q-39 41 -124 108q-8 74 -7 86q2 10 27 24.5t25 35.5q23 14 118 36v-4l86 -4q0 -10 13 -10h10q4 -4 14 -6h13q4 -8 30 -12q20 -4 21 -21q16 -8 16 -37v-47q4 -25 23 -31v-47q-4 -4 -6 -10 q8 -12 6 -41q-2 -39 0 -45q-6 -2 -9 -12v-15h-4q-2 -37 -6 -110h-4q-4 -16 -4 -35q0 -14 4 -44t4 -46q0 -14 -2 -29q-8 -6 -8 -24q2 -27 0 -29h-2q-12 -70 14 -123q18 -14 40 -28.5t48 -10.5q2 -10 17.5 -16t15.5 -17q10 -4 20.5 -23.5t26.5 -19.5z" />
<glyph unicode="v" d="M1249 934v-35q-2 -4 4 -35q4 -27 -8 -37q-6 -16 -51 -47q-29 0 -33 -2v-8q-125 8 -164 -47q-2 -14 -19 -35.5t-13 -44.5q-6 -2 -9 -10v-10q-10 0 -10 -19v-14h-4q8 -37 -22.5 -71t-32.5 -56q-14 2 -20.5 -13.5t-12.5 -15.5q-12 -27 0 -47h10v-43q-14 -10 -22 -43t-21 -41 q-23 -23 -30 -65q-10 -12 -25 -41q-8 -18 -29 -43q2 -27 -18.5 -41.5t-20.5 -30.5q0 -6 2 -14q0 -14 -17 -27.5t-15 -30.5q-2 0 -12.5 -4t-6.5 -12q-27 -14 -121 -6q-2 12 -28 43q-20 25 -15 53h-6q-10 20 -12 59q-4 55 -4 64h-8q-4 45 -27 63q-10 61 -20 88q-16 43 -52 64 q-2 6 -2 39q0 25 -14 28q0 20 -4 23h-2v14q4 2 6 6v15h12q6 25 0 51h-10v78q16 0 18 4v6q23 6 37.5 -12.5t26.5 -34.5q0 -16 4 -18q2 2 2 14h12q0 -8 17.5 -16.5t13.5 -26.5q2 0 7 -11.5t16 -7.5q0 -2 22 -102q16 -61 39 -94h33q0 -12 2 -15q12 12 29 39q10 -6 18 11v20 q12 0 12 12v21q14 16 33 57h4q6 12 6 27q0 10 -5 28.5t-5 26.5q0 18 23 29q31 2 32.5 38t3.5 68q12 -2 13.5 12.5t5.5 16.5q0 -4 -10 39l-39 41q-14 6 -47 49q-27 35 -56 35q-12 0 -26 -4v-19q-14 -18 -49 -39q-2 0 -23 -14q-10 -8 -25 -4q-20 14 -38 27q-25 12 -52 10 q-35 -49 -8 -131q-20 -25 -57 -19q-23 6 -25 44t-28 40q0 6 -3 11q-20 4 -39.5 38.5t-46.5 36.5v17q4 6 15.5 7t11.5 5v6q37 4 77 6t52 37v14q31 23 57 35v-8q6 -2 50 -4q0 -6 18 -6h14v-4q16 -6 58.5 -6t58.5 -11q12 -2 23 -2q14 0 39.5 8.5t42.5 8.5q23 -6 45 15.5 t45 14.5l340 -6q0 -8 6 -10q4 0 10 2h10v-8q8 -2 43 -2q4 -6 14.5 -7t18.5 -14q8 -18 10 -20z" />
<glyph unicode="w" d="M1303 881l-3 -25q-10 0 -12 -4q-8 -20 -42 -39.5t-44 -36.5q-39 -20 -41 -65v-15h-4q-6 -10 -6 -22q0 -10 5 -26.5t5 -26.5t-4 -23q-4 0 -8 -2v-10q-29 -35 -27 -60h-4l-10 -86q-12 -23 -39 -57q-14 -10 -15 -41t-5 -39h-11q-8 -35 -4 -63h13l-3 -43q-14 4 -16 -21v-12 q-10 -10 -17 -30.5t-15.5 -31t-8.5 -57.5q-2 -33 -24 -33q-4 -8 -7 -43q-6 0 -8 -6v-14q-20 -2 -22 -4q-10 -4 -15 -15l-8 15q-8 -4 -8 -15q-8 -4 -12 -4q-6 0 -11.5 17.5t-21.5 13.5q-4 4 -13.5 24.5t-29.5 20.5q-25 16 -28 78.5t-25 81.5q2 6 -9 14q-27 14 -32 62 q-8 8 -8 28q0 8 2 26.5t2 29.5q0 37 -37 36q-2 -10 -15.5 -17t-9.5 -19h-12q-2 -8 -4 -43q-10 4 -12.5 -6.5t-6.5 -12.5l-2 -14h-2q-20 -51 0 -74v-14q-10 -2 -8 -13q0 -16 -2 -18q-12 -10 -25.5 -22.5t-11.5 -32.5q-18 -20 -35 -62q6 -20 -6 -33q-14 -18 -16 -28l-82 4 q0 8 -16 35q-14 20 -11 43q-4 0 -9 -7.5t-13 -3.5q0 10 -8 19q-12 -2 -19 14q0 8 -2 13h-10q16 2 18 45q-20 16 -18 34q-4 18 -23 48q-31 6 -35 6q-18 6 -24 20q-12 20 -8 70q2 57 -2 76q-8 2 -14.5 20t-14.5 23q6 33 -27.5 55t-33.5 43q0 12 5 28.5t5 32.5q0 23 -21 74 q-20 43 -12 82q8 6 2 18q-8 18 -8 27q-8 6 -16.5 23.5t-16.5 23.5q2 25 -2 29h-6q0 6 -6 14q-14 0 -15 -2v-4q-4 4 -8 6q-6 4 -10 -2v-4q-4 14 -27.5 20.5t-25.5 24.5h-10q0 8 -9 18q0 6 -2 19q25 12 82 31q12 10 47 16t45 18v-4l127 -8q0 -12 17 -12q16 0 18 6v4 q2 -10 14 -12h23q10 0 20.5 -15.5t24.5 -11.5q2 -8 8 -10q4 -2 13 0q10 2 14 3t4 5l10 -8q55 41 94 41q14 0 31 -4q0 -10 11.5 -11t21.5 -1q-6 -6 4 -7q29 6 79 4t75 3q27 2 180 -3q113 -2 178 19q8 -2 32.5 -5t37.5 -3v-2q4 -4 34 -6q0 -10 19 -11q14 -2 16 2v6 q4 -2 12.5 -11t16.5 -9q4 0 10 2v-35q3 -20 15 -24zM946 616q0 10 -4 28t-4 28q0 14 8 27.5t8 25.5q0 14 -32.5 38.5t-34.5 47.5q-4 -10 -15 -10q-23 2 -22 2q2 -10 -4 -25q-14 -23 -49 -61q4 -14 18 -46t14 -53q0 -18 -10 -38h-4v-15q0 -14 -8 -14q-2 -8 -2 -16 q0 -25 29.5 -44.5t35.5 -33.5l21 4q10 12 21.5 25.5t5.5 35.5h-7q-4 2 -2 19q0 12 15.5 28.5t18.5 25.5t3 21zM705 352l-3 37l-18 -20q4 2 6 2q6 0 9.5 -9.5t5.5 -9.5zM487 752q-10 0 -12 8v18q0 12 -8 13q-23 10 -72 32q0 -8 -28 -35q-16 -20 -29 -16l-2 -10q-27 -8 -35 -4 q-4 -14 5 -26.5t7 -20.5q-4 -35 20.5 -83t20.5 -81h13q0 -10 8 -38t4 -46h8v10q4 2 10 13.5t19 9.5v10q2 14 12 14v15q0 14 8 12l4 98q23 39 45 66z" />
<glyph unicode="x" d="M1270 102v-51q-6 -4 -10 -14q4 -8 -8 -15l-11 -8q-12 0 -12 -10v-10q2 0 -47 -8q-20 -10 -60 -27q-88 18 -182 2q-4 2 -10 6h-19q-4 10 -18 10h-19q-4 -10 -18 -10q-23 0 -22 0q-4 8 -20.5 10.5t-19.5 7.5t-18.5 12t-15.5 23q-6 -4 -10 -4q-6 0 -9.5 12.5t-11.5 12.5 q2 12 -11 23.5t-13 21.5q0 6 4 14q39 12 45 52h6q12 23 2 47h-8q-43 98 -103 106q-43 4 -78 -45q-18 -6 -34 -29q0 -4 -10.5 -18t-6.5 -29h-4q-6 -14 -6 -28t13.5 -40t11.5 -44q-16 -12 -45 -46t-48 -34v-6q-2 0 -73 -19q-59 16 -162 4q-10 0 -18.5 -7t-6.5 -19h-43 q-2 8 -14 8q-18 -2 -21 0l-16 10q-27 4 -49 33q-18 6 -18 31q0 53 2 41q12 12 47 36v11q4 10 34 41q27 2 74 18t74 21q8 14 18 12q2 4 16.5 14t10.5 27q10 -6 13 7t28 35.5t31 39.5q23 23 45 46t20 56q6 0 6 2v15q33 6 41 28l9 119q10 -2 11 10t3 15q-20 20 -68 26 q-2 2 -2 6h-14q-16 23 -21 49q0 18 -22.5 29.5t-26.5 22.5q-84 45 -135 37q-8 12 -43 12t-45 2q-10 10 -37 22q-4 78 -2 91q2 53 31 67q6 6 20.5 7t18.5 9q0 -8 6 -10h14q12 2 17 2q-4 -10 10 -10h12v-2q23 -8 51 -2q39 8 47 6v8q27 -12 119 -8l121 6q-4 -10 8.5 -10 t18.5 -8q14 -14 14 -15q-4 0 -10 -2q8 -18 8 -53q0 -41 4 -55q2 6 4 41q10 -6 19 -6q12 0 23 20.5t26 18.5q6 8 92 73h18q-6 -8 4 -8q82 16 121 6q2 -8 8 -10q4 0 13.5 2t13.5 2q-2 -6 2 -10q63 29 123 14q0 -8 6 -8q2 -2 12 0t13 2q0 -4 6 -10q2 6 14 7t17 5q12 0 24 -21.5 t39 -33.5q10 -41 33 -60q-35 -61 -98 -69q-25 -8 -79.5 -6t-80.5 -6q-23 -20 -62 -68q-2 -12 -19.5 -21.5t-12.5 -27.5q-10 -18 -41 -41q4 -25 -33 -60q-18 0 -21 -20v-10h-2q-12 -20 -12 -39q0 -20 32 -50t25 -61q2 0 7.5 -11t13.5 -9q2 -23 26 -54q0 -39 44 -69 q51 -35 59 -62h10q49 -33 72 -30q2 -12 28 -15v-6q8 -4 56 -4v-6q25 -12 43 0v6q25 -20 63 -14q-2 -6 5.5 -10.5t9.5 -6.5h6zM670 807h-4q-2 0 -2 14q0 -8 -17 -8q-8 0 -8 -6q-2 0 -2 14h-10q2 -6 2 -10q0 -10 -9.5 -18.5t-15.5 -13.5t-6 -15t-10 -10q-4 -12 3 -25.5 t7 -15.5q4 4 37 4l4 28q14 6 19.5 25t11.5 37z" />
<glyph unicode="y" d="M1171 913l-12 -6q-55 -18 -108 -39q-63 -25 -66 -82q-10 0 -13 -17t-7 -19v-21q-10 2 -13 -4v-14q2 -8 -2 -11v-14q-16 -10 -16 -41q4 -70 4 -53q-41 -49 -45 -57q-23 -35 -25 -72q-16 -6 -14 -33q2 -41 2 -43q-6 0 -6 -12v-10q-16 -10 -29 -39q-18 -35 -22 -41v-15 q-4 -10 -19 -22q-6 -31 -4 -37q-8 2 -12 -2t0 -10q-8 -14 -8 -43h-11q-6 -14 -6 -35q0 -10 2 -31.5t2 -32.5q0 -41 -30 -49l2 -33q-14 -2 -6 -8v-12q-12 -23 -39 -68q-8 -66 -80 -149q-25 -2 -55.5 -37t-61.5 -33q-6 -18 -31.5 -29.5t-31.5 -21.5q-2 0 -31 -12 q-20 -8 -39 -4q0 4 -4 8q-2 -8 -8 -10q-4 -2 -13 0q-12 2 -13 5t-17 1h-11q0 12 -8 9t-19 5t-22 6q-39 29 -55 47q0 8 -18.5 26.5t-12.5 41.5q-45 31 -61 147q35 35 75 71t95 34v2q4 -6 47 -4q0 -6 6 -10l12 2q0 -4 4 -7h11q6 -18 14 -36.5t4 -36.5q2 -4 33 -27 q16 -14 12 -37q16 -8 21 -18q6 6 51 33q33 18 37 51q6 0 12 8v12q6 0 6 11.5t3 13.5t11 6q25 23 56 80q6 63 -45 151l-2 41q0 29 -19 33q2 16 -14 27l-25 16q-12 18 -24.5 37.5t-12.5 46.5q-12 10 -12 29q0 10 3 28.5t3 26.5q0 29 -30 35q2 12 -12.5 16t-16.5 10q4 10 4 17 q0 20 -23.5 33.5t-27.5 23.5h-15q0 37 -18 86q-27 61 -31 80q-8 2 -28 2v6q-16 8 -43 8l-45 -2q0 4 -4 7h-13q-4 8 -29.5 16t-19.5 37l-6 22l-12 -6q-4 12 -4 23q0 27 61 80q6 -10 23 -9q12 2 26 5v-7q10 -4 21 -4q12 0 39.5 9.5t48.5 5.5q4 -10 14 -9h20v-4q4 -2 39 0v-4 q12 -6 25 -6q10 0 34.5 8t43.5 6q4 -10 22.5 -9t24.5 -4t22 -58q8 -18 2 -39q-8 -20 -26 -21q-2 -2 -6 -3t-6 -1q-10 -14 -25 -37h-6q-10 -25 2 -47l6 2q0 -6 2 -59q2 -37 14 -51q2 -4 17 -2q2 -8 11 -23.5t7 -28.5q-2 -2 -8 -4q43 -63 55 -112q12 -29 23 -58q18 -31 47 -36 q-2 -6 4 -17l10 2q0 -14 4 -14q-8 4 -14 -6q-16 2 -16 -4q2 -4 4 -11q-8 0 -8 -16q-4 -10 3 -14t13 -9q10 2 33 9q-4 14 -4 24q0 20 20.5 44t24.5 44q2 4 14 47q8 33 37 33q-2 29 20 158q-6 6 -6 10t10.5 15.5t6.5 23.5q4 2 6 10v8q12 10 14 31q0 2 -2 49q0 31 -18 37h-15 q-2 8 -16 15.5t-19 15.5h-12l-2 45q8 0 19 4v10q4 -2 12 4v7q6 -8 16 -2q8 6 6 16q-2 4 -2 6q0 4 6.5 8t4.5 8q8 0 33.5 4.5t37.5 4.5q33 0 43 -21q25 -6 33 -4q-2 -4 4 -12q2 2 2 12l76 4q-2 -10 6 -12q2 -2 14 0q12 0 15 -4q8 4 39 6q23 0 26 14q4 -12 25.5 -14.5 t23.5 -20.5zM141 854q-10 16 -10 17t-2 20q2 -25 -8 -21v-6q10 4 10 -14q4 4 10 4z" />
<glyph unicode="z" d="M1116 104q-10 2 -10 -10v-14h-4q-4 -8 -4 -49q-16 4 -19.5 -12.5t-5.5 -18.5q6 -12 -7 -14t-9 -13q-37 2 -94 -4q-66 -6 -89 -6q-43 0 -77 12v9q-74 10 -86 -7q-68 -4 -207 -16l-29 -2v2q-72 16 -127 -18q-2 10 -14 10h-21q-25 20 -61 14q-4 6 -22.5 10.5t-18.5 18.5 q-31 14 -76 63q-8 2 -15 16.5t-16 18.5v10q6 -6 11 2q2 6 0 15v10q10 4 11 20.5t3 20.5l22.5 13.5t12.5 21.5q51 14 78 102q35 12 100 58q2 8 19.5 12t19.5 18q18 -2 31.5 10.5t25.5 24.5l2 10q6 2 8.5 13.5t8.5 13.5q76 14 110 31q4 25 35 55.5t31 58.5q0 12 -4 29 q8 4 20.5 17.5t26.5 13.5q4 12 20.5 26.5t18.5 28.5q14 -4 16 8.5t8 12.5q-4 8 -8 15t-16 3q4 12 -4.5 22.5t-8.5 18.5q-6 6 -49 31q-20 -6 -43 -13q-29 -8 -53 -4v4q-6 6 -25 7q-23 -2 -26 0q-14 2 -14 16q-2 -4 -5 -25q-23 -4 -45 -28.5t-36 -28.5v-20h-5l-12 -91 q-8 2 -12 -9t-8 -11t-11 2q-14 -16 -51 -37q-10 8 -35 14q-47 45 -59 209q6 -4 6 11v12l8 12q-2 16 0 21q10 8 21 61q20 2 52 27.5t58 25.5v4h21q-2 -4 1 -7t7 -1q14 0 16 4l46 2q2 -8 14 -6h20v-4q12 -2 35 -6q0 -8 6 -8q20 10 66.5 8t64.5 4q18 -6 72 -6q57 0 88 8h10v-4 q49 6 142 -8h14q18 -14 53 -45q6 -4 5 -22.5t14 -18.5l-2 -64q-10 4 -10.5 -10t-6.5 -16q2 -10 -10 -17q-16 -39 -39 -41v-8q-18 -8 -44 -42t-58 -32q-23 -27 -62 -86q-10 -8 -22 -34q-8 4 -17.5 -2.5t-9.5 -14.5q-12 -20 -59 -65q-39 -37 -49 -70q-10 0 -15.5 -18.5 t-13.5 -22.5q-4 -10 -41 -22q-29 -10 -25 -39q-6 -2 -8 -11q-2 -16 -23.5 -36.5t-21.5 -34.5h6q0 -14 12.5 -21.5l22.5 -13.5h29q8 -12 26 -18q18 4 39 4q25 0 71 -4.5t69 -4.5q63 0 98 23v14h4q4 10 4 23q0 10 -5 27.5t-5 25.5q0 16 14 27v24q10 25 45 60q10 0 17.5 10 t11.5 12h72q2 -12 17 -19t13 -26q20 -29 24.5 -81t8.5 -103z" />
<glyph unicode="&#xa0;" />
<glyph unicode="&#xa1;" d="M895 815q-2 0 -14 -20q-8 -10 -4 -25q-27 -4 -25 -39q0 -47 -2 -55q-10 4 -14.5 -6.5t-10.5 -10.5q-4 0 -8 3q-2 0 -6 -5q-2 -4 0 -6h-14q-6 -2 -9 -8q-16 2 -26 -9t-19 -22q-10 0 -21 6.5t-22 6.5v8q-14 2 -30 2q14 -18 35 -14v-13q2 -2 3 -14t11 -8v-23q2 -14 12 -16 q-8 -55 21 -68q-6 -96 12 -172q4 -18 -6 -39q-10 -45 22 -71q2 -27 8 -74h5v-14q0 -14 12 -9q-4 -16 8 -37q10 -37 10 -75q0 -80 -39 -125q-14 -2 -23 -23.5t-22 -25.5q2 -10 -10 -18.5t-12 -16.5q-6 -18 -20.5 -17.5t-14.5 -5.5l-23 -2q-45 23 -159 15q-68 31 -103 114 q-14 6 -25.5 32t-23.5 32v51q0 29 23 33q2 61 24 127q23 55 45 110q27 27 27 66h10q6 51 6 141q23 14 31 69.5t41 65.5l14 -8q4 4 4 8q41 -6 89 25q-98 4 -125 10q-63 14 -88 64q-16 6 -15 12q-20 2 -44.5 25.5t-35.5 27.5q-43 20 -39 121q0 18 18.5 44t18.5 44q0 4 -4 7 t-6 1q0 33 31 58q27 18 53 38q2 10 19.5 18.5t19.5 20.5q23 -4 46.5 13.5t37.5 19.5q-4 14 12 15q10 0 10 8q8 4 15 4q8 0 21.5 -6t21.5 -6q10 0 20 4v4h53q12 -2 19.5 -19.5t28.5 -17.5v-8q23 -8 26 -7q8 -25 45 -50t37 -56q0 -14 -4 -31q2 -4 12.5 -4t10.5 -4t-3 -10 q2 -2 11 -4q0 -2 -2 -13q-2 -8 0 -12q2 -6 10 -6z" />
<glyph unicode="&#xa2;" d="M1180 1206h-6q-4 -6 -5 -45q-8 -2 -8 -14q2 -16 0 -19q-2 -2 -8 -2v-14q-14 0 -14 -2v-10q-6 0 -17 -6q2 -8 -12 -14.5t-14 -12.5t4 -12q-14 -14 -39 -45q-16 0 -24.5 -19.5t-24.5 -17.5q-18 -27 -62 -43q-4 -4 -6 -23.5t-18 -13.5q-49 -49 -39 -145q-12 -8 -25.5 -37 t-27.5 -35q-2 -20 -5.5 -43t-15.5 -29q-12 4 -26.5 -5t-22.5 -9q-6 0 -12 2q-10 -8 -27 -31q-109 -16 -127 -90q-2 -6 -23.5 -29.5t-21.5 -40.5q0 -12 6 -22h10v-27q-16 -18 -49 -47q-20 2 -27.5 -14.5t-13.5 -30.5q0 -12 16.5 -22.5t12.5 -24.5q0 2 16 6q8 2 8 14 q33 0 37 3q-2 -6 -2 -11q0 -6 7.5 -14t5.5 -18h12q6 -8 18 -5q20 10 25 11q12 6 33 32q23 -2 44 19.5t29 25.5q20 0 43 30t39.5 30t38.5 10h10q2 -14 33 -14q0 -6 6.5 -32t6.5 -42l-9 -84q-10 -14 -51 -41q-33 -20 -37 -49q-12 -10 -43 -25q-27 -35 -84 -51q-23 -23 -88 -20 q-78 4 -96 -4q-4 8 -16 8q-18 -2 -21 -2q0 10 -12 10h-10v4q-16 0 -52 4q0 2 -2 6q-20 0 -45.5 -13t-40.5 -13q-12 0 -24 4q4 10 -11 10h-12q0 6 -10 8h-12q-4 8 -11 8q-2 0 -11 -7t-14 -6t-14.5 -4t-5.5 -13q-6 -4 -7 -11.5t-10 -18.5t-9 -17t2 -11q-14 -23 -45 -61 q-20 -14 -21 -49q-12 0 -12 -2q-23 -23 -55 -45q-14 -10 -37 -33q-63 -14 -84 -6q-2 -6 -12 -4h-9l-6 24q6 23 23 78q6 -6 12 3t10 9v13q2 6 6 12q-2 12 5 14q20 10 24 35q14 6 31 29q16 0 28.5 21.5t29 23.5t26.5 28.5t26 28.5q0 10 11.5 26.5t9.5 33.5q8 0 6 12v22 q0 39 -25 105q-18 2 -21 34.5t-13 39.5q2 29 -7.5 72.5t-11.5 64.5q4 4 8 10q-2 18 0 20q14 0 22.5 29t27.5 31l2 29q8 18 24 57v12q8 -8 10 6q31 53 31 60q0 10 -8 22q4 8 10 18.5t19 6.5q29 10 20 33q10 0 10 10v8q10 -2 11.5 11.5t15.5 8.5q20 61 117 74q0 8 16 12.5 t16 16.5q20 4 68 12q20 6 49 35q57 -4 158 8q0 -10 14 -10q6 2 11.5 -9.5t11.5 -11.5q4 2 8 5v-5q47 -14 76 19q27 4 39 49q4 -4 10 2q14 10 29 39q37 37 53 100q23 0 38 35t38 39q23 16 71 47q14 14 56 6q4 -2 7 -15t13 -11q0 -16 12.5 -35t14.5 -27zM596 809q-31 8 -49 39 h-47q-4 -8 -20.5 -14.5t-18.5 -14.5q-10 -8 -28.5 -9t-21.5 -9t-16.5 -11.5t-15.5 -9.5q-8 -18 -29.5 -30.5t-42.5 -22.5q0 -18 -28.5 -16t-31.5 -6.5t-18.5 -19.5t-13.5 -28q-10 -10 -27 -32q-4 -10 -4 -19q0 -14 18.5 -27.5t22.5 -21.5l-1 -15q-1 -16 -9 -14 q-4 -35 3 -65.5t5 -50.5h6q10 -31 11 -27l8 10q6 -8 4 -10q20 -4 45 2q18 6 39 12v15q25 14 65 53q12 -2 21.5 12.5t17.5 16.5v12q0 10 6 10q0 23 15 27q8 16 38.5 42.5t39.5 47.5q10 6 24.5 27.5t30.5 25.5z" />
<glyph unicode="&#xa3;" d="M182 0h-18l2 6q0 4 -57.5 54.5t-57.5 103.5q0 190 78 190q25 0 68 -15l43 -15q8 0 8 18q0 33 -25 111q10 14 25 90q10 51 63 63l15 43q-35 66 -35 74q0 14 7 45t7 49q-10 4 -10 25q0 96 53 186q31 51 98 125q53 57 54 76q8 6 24 6q31 0 87.5 -11.5t90.5 -11.5 q86 0 119 -110q-16 -20 -73 -111l-25 39q-27 -14 -55 -29q-35 -16 -47 -40l-23 6l-37 -13l-12 47q-6 2 -20.5 16.5t-20.5 14.5q-10 0 -19 -6q0 -10 -18 -16t-18 -17l6 -12l24 -6q-6 -6 -19 -62.5t-13 -68.5l16 -60q27 41 53 39l43 -35q25 23 41 23q18 0 23 -16l30 -25 q8 4 39 10q23 6 31 23q78 -8 78 -80q0 -12 -8.5 -33.5t-18.5 -21.5q-8 0 -14 14q-20 -6 -28.5 -29.5t-16.5 -46.5l-14 -2q-12 0 -30 10.5t-26 10.5q-16 0 -28 -29q-72 18 -76 20q-29 10 -68 37v-10q2 -23 -15.5 -65.5t-17.5 -65.5l2 -8q-4 -16 13.5 -44t15.5 -42l12 -12 l-22 -46q6 -10 6 -26q0 -47 -69.5 -80t-69.5 -43q0 -2 41 -33t53 -41q39 23 43 23q12 0 30.5 -21.5t26.5 -21.5t11 14q18 8 59 13.5t57 13.5l13 -4q16 0 40.5 14t38.5 14q-10 0 56 -16l16 -33l33 17q-2 25 47 32q31 41 33 82q0 -14 0 86q0 18 22 31q-2 20 23 37q39 25 41 26 q0 8 -4 26.5t-4 27.5q0 29 30 26l15 4q10 0 22 -11t25 -11q12 10 22 10q16 0 33 -20q18 -27 29 -31q2 -16 24.5 -48t22.5 -50l-23 -37l2 -29q2 -27 -12 -49q2 -20 -4 -68q-10 -57 -10 -67q25 -2 24 -13l-2 -8l-30 -8q-2 -6 -18.5 -27.5t-16.5 -31.5q0 -12 12 -23 q-33 -45 -82 -94q-43 39 -129 57l-31 -20l-41 8l-36 -43h-7q-16 0 -35.5 25.5t-35.5 25.5q-16 29 -64 29q-63 0 -61 -47q-61 53 -172 80q-10 -14 -43 -15q-10 0 -41 3t-47 3q-47 0 -76 -18h-70z" />
<glyph unicode="&#xa5;" d="M1139 1163v-6q0 -10 -7.5 -30.5t-7.5 -32.5l-49 12q-20 -14 -28 -35q-2 -2 -46 -2q-27 0 -55 -53q-35 -63 -45 -72q-8 10 -16 10q-25 0 -41.5 -61.5t-7.5 -87.5l-35 -27l33 -8l10 14q12 -14 46 -17t46 -11l-2 -13q-2 -35 24 -36l23 10q-2 -4 -13.5 -23.5t-11.5 -25.5 q0 -2 6.5 -3t4.5 -12q-12 4 -32 -10t-30 -14q-12 0 -22 16q8 2 -49 2q-20 0 -29 -18q-31 2 -88 4q-2 -2 -2 -41q0 -23 -35 -23l47 -14l51 20l4 21l4 2q12 0 25.5 -13.5t24.5 -13.5q6 0 18 7l49 -21l37 8q14 -8 21.5 -32.5t19.5 -32.5q-20 -84 -107 -84l-47 -8l-24 -23 q-12 -2 -27.5 14.5t-23.5 16.5q-14 0 -20.5 -24.5t-8.5 -24.5l-11 19q-10 20 -22 20h-8l-16 -17q2 -33 4 -63.5t16 -61.5q-16 -25 -16 -53l10 -45h6q8 0 16.5 14.5t16.5 14.5q10 0 57 -50q23 20 37 21q8 0 21.5 -9.5t21.5 -9.5q14 0 35.5 14.5t36.5 14.5q12 0 29.5 -24.5 t35.5 -24.5q10 0 27 18q12 -20 41 -55l2 -18q2 -16 -8.5 -47t-10.5 -48q-8 -10 -28 -6q-20 6 -31 0q-8 8 -16 9q-8 0 -20.5 -11.5t-20.5 -11.5q-12 0 -43 27q-8 -16 -38 -24.5t-38 -22.5q-27 14 -52.5 29.5t-62.5 15.5q10 0 -84 -31q-23 16 -65 24q-35 4 -70 11 q-8 10 -18 10t-26.5 -13.5t-24.5 -15.5l-11 -14l-30 29q-20 -8 -56 2q-14 -2 -40.5 -11.5t-41.5 -9.5q-8 0 -16 2l-18 -14l-3 10q0 10 7.5 34.5t5.5 37.5q14 16 46 33.5t42 25.5q25 -20 43 -20q12 0 33.5 31.5t29.5 37.5q23 -20 43 -20q8 0 24.5 3t24.5 3q-2 16 19.5 41 t21.5 39q0 6 -2 12q18 14 19 41q0 25 -7.5 37t-7.5 25q0 18 11 67l-4 8l-29 19q-47 0 -64 -25q-6 2 -30 19q-16 14 -33 8l-8 -15q-12 14 -46 17.5t-46 11.5l2 12q2 35 -27 39l-20 -12q2 4 13 23.5t11 25.5q0 2 -6 4t-6 11q14 -4 33.5 10t29.5 14q12 0 23 -16q-8 -2 49 -2 q18 0 29 18q23 6 65 -2l-22 49l-4 17l-13 -11l-4 -20l-4 -2q-14 0 -27.5 13t-21.5 13t-18 -6l-50 21l-36 -8q-14 8 -22.5 32.5t-18.5 32.5q8 39 44.5 63.5t77.5 16.5q-31 59 -79 106q0 61 -39 156q-33 16 -66 33q-41 20 -59 45h-4q-8 0 -19.5 -10.5t-19.5 -10.5t-13.5 6.5 t-20.5 27t-15 34.5q0 35 28 41q2 2 56 2q33 0 43 33l26 16q20 -43 39 -43q16 0 48 6.5t44 8.5q20 -14 33 -15q8 0 49 29q33 -27 33 -84l-2 -19q-8 -6 -8 -28.5t-11 -28.5l17 -55l-23 20l-22 -10l-19 16q-10 -4 -10 -14q0 -16 6 -31q51 -25 58 -90q2 -4 43 -35q27 -23 32 -45 q4 -4 18.5 -25.5t24.5 -21.5h9q25 31 49 29l16 -18v12q0 6 42 58t53.5 59.5t14.5 37t23 35.5q0 27 -33.5 92.5t-33.5 83.5l12 33q37 18 76 37q49 23 80 23q12 0 20 -4q10 -23 43 -23q29 0 58.5 19.5t41.5 17.5l31 39q39 -16 76 -33.5t37 -93.5z" />
<glyph unicode="&#xa8;" d="M877 1247q-2 0 -7 -69q-4 -45 -32 -54q-14 -4 -15.5 -7t-27.5 -3q-8 0 -21.5 -11t-23.5 -11h-2q-10 8 -25 8q-8 0 -17 -5l-10 -5q-27 0 -26 43q0 12 -21.5 27.5t-21.5 25.5q16 10 16 26q0 6 -3 17.5t-3 17.5q0 29 41 58q29 20 59 41q6 0 21.5 -7.5t23.5 -7.5q12 0 23 10 q10 -2 14 -18t10 -18q25 -6 31 -23q11 -29 17 -35zM545 1147v0q0 -6 -15.5 -9t-25.5 -19.5t-21 -20.5q-6 2 -12 2q-16 0 -27 -10l-10 -11q-18 0 -32.5 19.5t-18.5 21.5q-20 4 -45 27q6 8 6 18t-10 27.5t-10 28.5q0 27 24 59q33 45 37 53h33q23 0 33 19h4q8 0 16 -11.5 t24.5 -11.5t33 -18.5t22.5 -22.5q0 -16 11 -46t11 -44q0 -20 -14 -34.5t-14 -16.5z" />
<glyph unicode="&#xa9;" d="M1212 641q-10 -10 -12 -25q-2 -10 0 -28q2 -23 2 -27q0 -6 -12 -24.5t-12 -28.5q0 -45 20 -76q-10 -16 -8 -72q0 -45 -31 -59q-14 -23 8 -55q-2 -2 -37 -29q-23 -16 -22 -39q-27 -10 -27 -69q0 -45 -16 -62q6 -35 -107 -133l17 -45q-70 23 -141 22q-20 0 -28.5 -29.5 t-21.5 -29.5q-12 0 -31.5 11.5t-29.5 11.5q-4 0 -53 -7.5t-70 -7.5q-14 0 -18 4l-45 -47q-18 0 -45 22.5t-43 22.5q-8 0 -15 -2q-2 2 -55 29q-33 16 -43 45q-41 4 -84 35t-72 37q-25 78 -47 155q-43 111 -88 119q25 70 25 74l-21 43q-25 4 -24 24q0 4 4 22.5t7 31t3 24.5 q0 16 -16.5 45t-16.5 45q0 20 27 41l2 21q0 18 -13.5 54t-13.5 54q0 16 15.5 56.5t15.5 74.5q0 20 18 33q-2 10 -2 19q0 31 36 82t30 88q8 8 16 61q6 35 43 43q8 16 51 47q37 25 35 55q33 16 70 34t55 42l17 -2q16 0 20 16.5t29 16.5q18 0 55 -8q23 18 113 18q72 2 88 60 l6 -76l45 -37q31 -4 65 39v-8q-2 -33 37 -64q61 -47 62 -47l55 -2q20 -18 45 -68.5t47 -68.5q-6 -16 -6 -37q0 -45 55 -117q27 -4 29 -32.5t4 -55.5q6 -18 19 -24q-18 -25 -19 -46l2 -18q39 -23 45 -78zM946 903q-14 14 -52 14.5t-50 6.5l10 20l41 -2q25 -2 25 39l-5 33 q-45 41 -147 114l-20 -2q-35 0 -64 30t-53 30q-18 0 -43 -16.5t-25 -32.5q0 -6 9.5 -13.5t9.5 -13.5t-13 -12q-47 20 -147 43q-33 -25 -33 -43q0 -6 2 -13q-2 -25 -16 -26q23 4 -31 4q-43 0 -43 -27q0 -8 6 -26.5t6 -22.5q0 -49 -55 -49q-10 0 -20 4q-20 -16 -21 -39 q0 -16 8 -40.5t11 -37.5q-33 -18 -33 -65q0 -57 4 -66q6 -14 49 -32q4 -12 4 -21q0 -6 -57 -18q-6 -14 -6 -27q0 -27 29.5 -52.5t29.5 -33.5t-9 -23.5t-9 -25.5q0 -25 63 -15l4 -14q0 -8 -8 -25.5t-8 -25.5t25.5 -71.5t27.5 -98.5q-6 -6 -6 -12q0 -33 31 -35q-37 2 51 2h8 v-10q-2 -16 26.5 -34t30.5 -36q18 -10 37 -10q23 0 33 24l47 4q25 2 40 -15t19 -17q66 0 101 43q29 37 53 30q47 31 41 58q27 31 54.5 64.5t64.5 33.5q4 6 4 16l-31 29l8 39q31 8 31 33q0 16 -13.5 46t-13.5 46q0 29 48 43q16 29 16 63q0 37 -18 66q-4 2 -33 4q-18 2 -25 14 q27 25 43 19q31 14 31 63q0 68 -31 82q-39 14 -43 39zM868 399q-8 -25 -20 -73l-27 -11v-4q2 -29 -26 -51h-9q-16 2 -31.5 -12.5t-29.5 -26.5l-10 2q-8 0 -23.5 -11t-21.5 -11q-8 0 -19 10h-8q-20 2 -35 -16q-51 12 -49 14l2 6q0 33 -37 31t-43 12q-10 4 -19 25.5t-20 21.5 l-32 -14l-2 20q8 6 8 21q0 37 -25.5 55.5t-52.5 34.5q4 27 0 43q10 16 10 35q0 14 -8 51q-4 27 2 57q-8 6 -8 13q0 12 7 17t7 19q0 12 -6 35q31 2 31 29q0 8 -8.5 21.5t-8.5 21.5t13 16q12 -8 26 -8q16 0 17 12q0 8 -6.5 20.5t-6.5 20.5v2q14 12 13.5 46t15.5 45h8 q16 -2 35 4l12 28q20 -8 21 -8q8 0 22.5 14.5t26.5 12.5q0 23 18 22q8 0 23.5 -12t23.5 -12q10 0 19 18q10 0 25.5 -9t25.5 -9q-4 0 27 4l-6 24q18 6 38.5 13.5t28.5 23.5q25 4 31 4q16 0 30.5 -17.5t14.5 -33.5q0 -12 -8 -49q-8 -45 -10 -55q4 -6 4 -15q0 -8 -7.5 -24.5 t-7.5 -26.5l4 -22q2 -14 -4 -21q-2 -14 18.5 -24.5t20.5 -22.5h-4q-12 0 -35 -31q0 -8 -26 -28l-21 16q-10 -4 -24 -4l-9 2q0 6 2.5 18.5t2.5 16.5q0 10 -20.5 50t-31.5 46q-6 18 -14 39q-6 8 -43 16l-14 -16q-10 0 -21.5 14.5t-21.5 14.5q-20 -16 -64 -2q-27 6 -26 -43 l-3 -3q-8 0 -18 13q-20 0 -31.5 -28t-11.5 -49.5t-18.5 -45t-18.5 -27.5q0 -6 6 -16q-4 -12 -4 -21q0 -10 6 -12q2 -2 13 0q12 2 16 2q6 0 10 -10l-8 -16q-6 -2 -16.5 2t-14.5 4q-12 0 -12 -13q0 -2 19.5 -30.5t19.5 -38.5t-16 -15l-17 -18v-4q0 -12 15.5 -27.5t15.5 -25.5 q0 -6 -2 -13l-21 4l-6 -24q33 -10 41 -41q8 -39 21 -51h4q8 0 20.5 5t18.5 5q14 0 14 -14q0 -2 -7 -9.5t-9 -9.5q2 -12 3 -25.5t13 -13.5t29 41l6 2q8 0 17 -11t16 -11q6 0 13 6t11 6q6 0 16.5 -6t16.5 -6q8 0 17.5 15t15.5 28q8 -4 14 -4q8 0 20.5 12t22.5 15t10 44 q0 8 19.5 29t19.5 61q0 23 33 60q23 2 34 -23.5t19 -48.5l-2 -8q0 -10 12.5 -25.5t12.5 -23.5q-1 -11 -19 -21z" />
<glyph unicode="&#xab;" d="M1221 74l2 -8q0 -12 -10.5 -33t-8.5 -35q-18 -20 -36 -39q-23 -25 -45 -25q-27 0 -75 18.5t-79 14.5q-6 4 -7 31t-11 27q-12 0 -26.5 -13.5t-23.5 -13.5q-2 2 0 4l4 12q0 4 2.5 13.5t2.5 13.5q0 8 -9 12q-27 -4 -32 -4l-23 8l2 21q0 23 -27.5 28t-27.5 13q0 4 4 12l-8 33 q-8 0 -23.5 9t-23.5 9q-6 0 -13 -4q-4 6 -7 30.5t-17 29.5l-19 -9v4q2 16 -19.5 38t-21.5 38l-2 2q-4 0 -20.5 -9t-26.5 -9q-6 0 -12 6l6 57l-8 -8l-84 53q6 8 6 17q0 8 -8 22.5t-8 24.5q0 23 20 49q27 37 31 45q27 4 35 6q18 6 20 25l33 -10l-25 43q2 14 23.5 37.5 t19.5 39.5l17 -6q14 4 18 27.5t8 30.5l15 -2q8 0 22.5 9t22.5 9l6 33l-2 10q0 12 27.5 15t27.5 28q0 8 -2 18q12 12 53 5q12 6 11 18q-4 18 -5 23q-6 10 -6 14q0 2 4 0q4 0 19.5 -13.5t28.5 -13.5q2 0 18 60q39 -6 37 -7q6 0 50 18.5t67 18.5t43 -21.5t39 -39.5l-3 -10 q0 -10 10.5 -28.5t10.5 -29.5l-2 -10q-33 -16 -38 -22.5t-13 -38.5q-23 0 -23 -26t-14 -32l-17 17q-23 0 -87 -57.5t-70 -82.5q-12 4 -25 4q-18 0 -42.5 -28.5t-37.5 -34.5l-6 2q-20 0 -50 -47t-42 -49v-15q14 -2 60 -37.5t67 -35.5q8 0 12 2q14 -6 39 -35t45 -29q8 0 21 6 q6 -25 69.5 -83t83.5 -56h4l19 15q12 -6 12 -27q0 -29 23 -29q8 -33 13 -39t38 -24zM770 74l2 -8q0 -12 -10.5 -33t-8.5 -35q-18 -20 -36 -39q-23 -25 -45 -25q-27 0 -75 18.5t-79 14.5q-6 4 -7 31t-11 27q-12 0 -26.5 -13.5t-23.5 -13.5q-2 2 0 4l4 12q0 4 2.5 13.5 t2.5 13.5q0 8 -9 12q-27 -4 -32 -4l-23 8l2 21q0 23 -27.5 28t-27.5 13q0 4 4 12l-8 33q-8 0 -23.5 9t-23.5 9q-6 0 -13 -4q-4 6 -7 30.5t-17 29.5l-19 -9v4q2 16 -19.5 38t-21.5 38l-2 2q-4 0 -20.5 -9t-26.5 -9q-6 0 -12 6l6 57l-8 -8l-84 53q6 8 6 17q0 8 -8 22.5 t-8 24.5q0 23 20 49q27 37 31 45q27 4 35 6q18 6 20 25l33 -10l-25 43q2 14 23.5 37.5t19.5 39.5l17 -6q14 4 18 27.5t8 30.5l15 -2q8 0 22.5 9t22.5 9l6 33l-2 10q0 12 27.5 15t27.5 28q0 8 -2 18q12 12 53 5q12 6 11 18q-4 18 -5 23q-6 10 -6 14q0 2 4 0q4 0 19.5 -13.5 t28.5 -13.5q2 0 18 60q39 -6 37 -7q6 0 50 18.5t67 18.5t43 -21.5t39 -39.5l-3 -10q0 -10 10.5 -28.5t10.5 -29.5l-2 -10q-33 -16 -38 -22.5t-13 -38.5q-23 0 -23 -26t-14 -32l-17 17q-23 0 -87 -57.5t-70 -82.5q-12 4 -25 4q-18 0 -42.5 -28.5t-37.5 -34.5l-6 2 q-20 0 -50 -47t-42 -49v-15q14 -2 60 -37.5t67 -35.5q8 0 12 2q14 -6 39 -35t45 -29q8 0 21 6q6 -25 69.5 -83t83.5 -56h4l19 15q12 -6 12 -27q0 -29 23 -29q8 -33 13 -39t38 -24z" />
<glyph unicode="&#xad;" d="M1165 596v-45h-8q-6 -16 -6 -88q0 -57 -23 -74q-23 -27 -55 -80q-23 -2 -50.5 -23.5t-49.5 -21.5q-10 0 -23 4q-4 -2 -4 -16q-6 -4 -26.5 -3t-22.5 -7l-8 8q-10 -12 -35 -10q-18 2 -39 2q0 2 -41 8q-8 2 -12 4q-53 -29 -88 -21q-8 10 -31 19q-39 4 -100 -6q-12 14 -45 12 h-56q0 12 -4 16q-8 -16 -39 -16q-55 0 -49 2q-16 8 -41 37q-39 25 -78 2v-12h-22q-20 25 -80 32q0 8 -12.5 9.5t-14.5 5.5q-16 23 -22 63l-10 68h2l6 86q16 0 22 14q14 29 17 31q14 0 32.5 18.5t36.5 18.5q43 45 146 57q25 -27 65 -39q0 -18 4 -20q2 12 19 12q27 0 26 0 q23 45 93 51h125v-4q16 -8 30 -8t44 15.5t55 11.5q8 0 24 2v-4q12 -2 29 -2q23 0 66.5 8t62.5 8q47 0 76 -31q43 -8 49 -51q24 -14 65 -43z" />
<glyph unicode="&#xae;" d="M1212 641q-10 -10 -12 -25q-2 -10 0 -28q2 -23 2 -27q0 -6 -12 -24.5t-12 -28.5q0 -45 20 -76q-10 -16 -8 -72q0 -45 -31 -59q-14 -23 8 -55q-2 -2 -37 -29q-23 -16 -22 -39q-27 -10 -27 -69q0 -45 -16 -62q6 -35 -107 -133l17 -45q-70 23 -141 22q-20 0 -28.5 -29.5 t-21.5 -29.5q-12 0 -31.5 11.5t-29.5 11.5q-4 0 -53 -7.5t-70 -7.5q-14 0 -18 4l-45 -47q-18 0 -45 22.5t-43 22.5q-8 0 -15 -2q-2 2 -55 29q-33 16 -43 45q-41 4 -84 35t-72 37q-25 78 -47 155q-43 111 -88 119q25 70 25 74l-21 43q-25 4 -24 24q0 4 4 22.5t7 31t3 24.5 q0 16 -16.5 45t-16.5 45q0 20 27 41l2 21q0 18 -13.5 54t-13.5 54q0 16 15.5 56.5t15.5 74.5q0 20 18 33q-2 10 -2 19q0 31 36 82t30 88q8 8 16 61q6 35 43 43q8 16 51 47q37 25 35 55q33 16 70 34t55 42l17 -2q16 0 20 16.5t29 16.5q18 0 55 -8q23 18 113 18q72 2 88 60 l6 -76l45 -37q31 -4 65 39v-8q-2 -33 37 -64q61 -47 62 -47l55 -2q20 -18 45 -68.5t47 -68.5q-6 -16 -6 -37q0 -45 55 -117q27 -4 29 -32.5t4 -55.5q6 -18 19 -24q-18 -25 -19 -46l2 -18q39 -23 45 -78zM799 752q-4 82 -51 112q-2 -2 -11 -2l-8 4q-6 16 -29 19q-33 4 -38 8 q-2 -2 -9 -2q-4 0 -14 3t-14 3q-12 0 -15 -18q-6 -6 -12 -7q-6 0 -18.5 12.5t-20.5 14.5l-33 -43q-23 20 -26 21q-4 0 -15 -9q-6 -4 -12 2q-16 0 -25.5 -26.5t-9.5 -46.5q0 -18 13 -41q23 -35 22 -37q-2 -6 -18 -6q-8 0 -9 -17q0 -10 50 -14q2 2 6 2t13 -4t15 -4q4 0 16.5 3 t18.5 3q16 0 23 6h6q10 2 27 -6q10 -12 28 -12q55 0 60 10q12 2 29.5 17.5t27.5 19.5q10 17 33 35zM946 903q-14 14 -67 15q-41 0 -35 8q16 31 51 16q25 6 25 39l-5 33q-45 41 -147 114l-20 -2q-35 0 -64 30t-53 30q-18 0 -43 -16.5t-25 -32.5q0 -6 9.5 -13.5t9.5 -13.5 t-13 -12q-47 20 -147 43q-33 -25 -33 -43q0 -6 2 -13q-2 -25 -18 -26q37 4 -37 4q-6 0 -21.5 -12.5t-15.5 -22.5q0 -8 7 -22.5t7 -22.5q0 -27 -24.5 -38t-50.5 -3q-20 -16 -21 -39q0 -16 8 -40.5t11 -37.5q-33 -18 -33 -65q0 -55 4 -64q6 -16 49 -34q4 -12 4 -19 q0 -10 -29 -10q-35 0 -34 -37q0 -27 29.5 -52.5t29.5 -33.5t-9 -22.5t-9 -22.5q0 -25 16 -25q6 0 19.5 4.5t19.5 4.5l8 -3q4 -6 4 -14q0 -10 -8 -26.5t-8 -24.5t18 -51q20 -49 23 -56q12 4 12 25q2 29 4 33q6 -4 17.5 -21.5t21.5 -17.5q25 0 25 26q0 2 -7 31q-4 16 5 29 q2 6 -6.5 66.5t-10.5 66.5q12 25 10 51v80q0 12 -10 30.5t-10 28.5q0 12 14 25q-6 43 -14 91t-55 48q-20 0 -19 15q6 6 6 14q0 6 -7 16.5t-7 16.5q0 23 20.5 33t42.5 4l25 24q8 -4 18.5 -19.5t20.5 -15.5l10 2l21 29h4q14 0 22 -16q10 2 24.5 17t22.5 15l17 -16q16 10 65 4 q18 25 35 25q10 0 18.5 -11.5t20.5 -11.5q10 0 31 8q2 -2 55 -16q35 -8 43 -35q78 -61 78 -155q0 -25 -10.5 -65t-10.5 -64l-2 -9q-12 8 -22 9q-8 0 -23.5 -33t-15.5 -45l8 -23q16 -6 17 -20q0 14 0 -29q0 -18 22 -25q4 -6 4 -38l6 -29q12 -20 47 -43q8 14 19 14q8 0 18 -37 l4 29q31 8 31 33q0 16 -13.5 47t-13.5 47q0 27 48 41q16 29 16 63q0 37 -18 66q-4 2 -33 4q-18 2 -25 14q27 25 43 19q31 14 31 63q0 66 -35 82t-39 39zM864 213q-18 10 -38.5 19.5t-26.5 25.5q-39 23 -51 53l16 43q-14 16 -17.5 61.5t-19.5 61.5q-4 14 -43 51t-51 37 q-4 0 -14.5 -3t-16.5 -3q-8 0 -14 2q-8 25 -53 25q-29 0 -40.5 -14.5t-21.5 -30.5q0 -10 5 -35t3 -37v-4l-18 -21q0 -8 5 -22t5 -23q0 -2 -7 -16t-7 -23l8 -18q4 -2 25 -20q14 -14 28 -15q6 0 15.5 8.5t15.5 8.5q18 -12 51 -39q4 0 10 4t9 4q16 0 14 -21v-4q4 0 -29 0 q-18 0 -20 -18q2 31 2 -31q0 -25 -29 -24q-8 0 -17.5 13t-17.5 13q-10 0 -16 -16.5t-23 -16.5q-12 0 -28.5 15.5t-28.5 15.5q-14 0 -35.5 -13t-32.5 -13q-16 0 -24 12v-8q0 -31 31 -33q-35 2 49 2h10v-8q-2 -18 26.5 -36t30.5 -36q18 -10 37 -10q25 0 33 24q61 4 47 4 q25 0 40 -16t22 -16q8 0 26.5 3t33.5 3t36.5 37t54.5 30q47 31 41 58z" />
<glyph unicode="&#xaf;" d="M1022 1167l2 -8q0 -8 -11.5 -21.5t-13.5 -21.5t-8 -16h6q10 0 11 -17h-9q-12 0 -31.5 -16t-31.5 -16t-23 22q8 2 -51 2q-27 0 -37 -26q-18 -4 -47 0q-39 6 -47 6q-33 0 -49 -33q-18 14 -43 18q-18 2 -49 0q-39 -2 -47 -2q-14 0 -39 8.5t-35 8.5q-23 0 -47 -27l-4 -29h-8 q-12 0 -25.5 17.5t-24.5 17.5q-10 0 -22 -10q-37 29 -47 29q-12 0 -49 -11q-16 10 -24.5 43t-20.5 43q4 27 8 56q4 8 51 20q14 4 23.5 18.5t54.5 14.5q23 0 36 23.5t23 23.5q14 0 31.5 -21.5t26.5 -21.5q10 0 20 21v8q-4 39 10 41q6 -6 11 -23q4 -2 11 -18.5t19 -16.5l6 2 q33 39 50 39h4q31 -35 39 -34q8 0 24.5 12t26.5 12q6 0 15 -19.5t32 -23.5q8 4 39 10q23 4 30 23q10 -4 29 -21.5t31 -17.5l12 2l8 23q14 -20 59.5 -24.5t47.5 -27.5v-34q4 -18 22 -21q8 14 21 14h4z" />
<glyph unicode="&#xb4;" d="M958 1335q-2 -6 -2 -55q0 -12 -8 -23q-4 -2 -16 -4t-20.5 -2t-32.5 -34l-13 2q-12 0 -19 -21.5t-22 -21.5l-12 20q-16 8 -31 8l-18 -4q-18 -25 -73.5 -40t-72.5 -42q-16 14 -30 15q-16 0 -44 -16.5t-44 -16.5q-10 12 -23 12q-8 0 -24.5 -9t-24.5 -9q-2 -23 -14 -23 q-8 0 -23.5 8t-23.5 8q-6 0 -13 -4q-2 4 -4 35q-2 18 -18 29q-2 6 -16.5 16.5t-14.5 18.5q10 8 23 -4q12 6 12 16q0 8 -5 21.5t-5 19.5q0 8 31.5 25.5t35.5 33.5l13 -14q16 0 27 21.5t16 25.5q10 -8 24 -8q51 0 39 2q16 10 16 33q0 12 11 14q6 2 21 -2t20 -4q6 0 22 39 q4 2 12 2t39 -19q12 2 15 15q2 20 4 22v13q-2 8 2 6q10 -10 22 -35q10 -10 17 -10q8 0 17 24.5t18 24.5q10 0 25 -11.5t22 -9.5q37 14 39 15q8 0 24 -7.5t31 -7.5q27 0 45 -32q12 -29 24 -56z" />
<glyph unicode="&#xb8;" d="M709 -166q-4 -8 -4 -18q0 -16 16 -45t16 -39q0 -16 -22 -25q-27 -63 -79 -94t-54 -41q-86 -27 -140 -14q-37 -14 -90 61q8 18 17 39q8 12 24 16l109 -6q129 0 129 64q0 39 -49 102q-14 20 -43 21q-12 0 -34 -5.5t-28 -5.5t-8 4q10 70 59 209q119 -18 140 0q8 8 16 9 q6 0 6 -5q0 -8 -40 -53t-40 -57q0 -6 4 -6z" />
<glyph unicode="&#xbb;" d="M-2 74l-2 -8q0 -12 10 -33t8 -35q18 -20 37 -39q23 -25 45 -25q27 0 78 19q45 18 76 14q6 4 7 31t11 27q12 0 27.5 -13.5t21.5 -13.5q2 2 0 4l-4 12q0 4 -2 13.5t-2 13.5q0 8 8 12q27 -4 33 -4l23 8l-2 21q0 23 27.5 28t27.5 13q0 4 -4 12l8 33q8 0 23.5 9t23.5 9 q6 0 12 -4q4 6 7.5 30.5t17.5 29.5l18 -9v4q-2 16 19.5 38t21.5 38l2 2q4 0 20.5 -9t27.5 -9q6 0 12 6l-6 57l8 -8l84 53q-6 8 -6 17q0 8 8 22.5t8 24.5q0 23 -20 49q-27 37 -31 45q-27 4 -35 6q-18 6 -20 25l-33 -10l24 43q-2 14 -23.5 37.5t-19.5 39.5l-16 -6 q-14 4 -18 27.5t-9 30.5l-14 -2q-8 0 -22.5 9t-22.5 9l-6 33l2 10q0 12 -27.5 15t-27.5 28q0 8 2 18q-12 12 -54 5q-12 6 -10 18q4 18 7 25.5t3 11.5q0 2 -4 0q-4 0 -19 -13.5t-28 -13.5q-2 0 -18 60q-39 -6 -37 -7q-6 0 -50 18.5t-67 18.5t-43 -21.5t-39 -39.5l2 -10 q0 -10 -10 -28.5t-10 -29.5l2 -10q33 -16 38 -22.5t13 -38.5q23 0 23 -26t14 -32l16 17q23 0 87.5 -57.5t70.5 -82.5q12 4 25 4q18 0 42.5 -28.5t37.5 -34.5l6 2q20 0 50 -47t42 -49v-15q-14 -2 -60.5 -37.5t-66.5 -35.5q-8 0 -12 2q-14 -6 -39 -35t-45 -29q-8 0 -21 6 q-6 -25 -69.5 -83t-84.5 -56h-4l-18 15q-12 -6 -12 -27q0 -29 -23 -29q-8 -33 -13 -39t-38 -24zM449 74l-3 -8q0 -12 10.5 -33t8.5 -35q18 -20 37 -39q23 -25 45 -25q27 0 78 19q45 18 75 14q6 4 7.5 31t11.5 27q12 0 27.5 -13.5t21.5 -13.5q2 2 0 4l-4 12q0 4 -2 13.5 t-2 13.5q0 8 8 12q27 -4 33 -4l22 8l-2 21q0 23 28 28t28 13q0 4 -5 12l9 33q8 0 23.5 9t23.5 9q6 0 12 -4q4 6 7 30.5t18 29.5l18 -9v4q-2 16 19.5 38t21.5 38l2 2q4 0 20.5 -9t26.5 -9q6 0 12 6l-6 57l8 -8l84 53q-6 8 -6 17q0 8 8.5 22.5t8.5 24.5q0 23 -21 49 q-27 37 -31 45q-27 4 -34 6q-18 6 -21 25l-33 -10l25 43q-2 14 -23.5 37.5t-19.5 39.5l-16 -6q-14 4 -18.5 27.5t-8.5 30.5l-14 -2q-8 0 -22.5 9t-22.5 9l-7 33l3 10q0 12 -28 15t-28 28q0 8 2 18q-12 12 -53 5q-12 6 -10 18q4 18 7 25.5t3 11.5q0 2 -4 0q-4 0 -19.5 -13.5 t-27.5 -13.5q-2 0 -19 60q-39 -6 -36 -7q-6 0 -50.5 18.5t-66.5 18.5q-23 0 -43.5 -21.5t-38.5 -39.5l2 -10q0 -10 -10.5 -28.5t-10.5 -29.5l2 -10q33 -16 38 -22.5t14 -38.5q23 0 22.5 -26t14.5 -32l16 17q23 0 87 -57.5t71 -82.5q12 4 24 4q18 0 43 -28.5t37 -34.5l6 2 q20 0 50 -47t42 -49v-15q-14 -2 -60 -37.5t-67 -35.5q-8 0 -12 2q-14 -6 -38.5 -35t-45.5 -29q-8 0 -20 6q-6 -25 -69.5 -83t-84.5 -56h-4l-18 15q-12 -6 -13 -27q0 -29 -22 -29q-8 -33 -13 -39t-38 -24z" />
<glyph unicode="&#xbc;" d="M1262 666q-4 0 -6.5 9t-4.5 9t-4 -4v-14q-55 6 -82 -23h-10v10q-10 4 -34.5 4t-32 4.5t-17.5 6.5h-10q-2 2 -17.5 12t-27.5 6q0 4 -8 10q-18 -14 -67.5 -16t-68 -14.5t-66.5 -5t-65 -3.5v-10q-20 4 -36 -10q14 -12 23 -46t20 -46q-8 -12 -11 -31q-2 -14 0 -39 q2 -29 2 -39q-12 0 -12 -10q-4 -27 -29 -39l-98 2v2q-14 8 -27 8q-23 0 -81 -45v-10q-18 -16 -35 -31q-18 -20 -15 -45q-12 4 -18 -4q-10 -14 -10 -15t-2 -42q0 -27 18 -31q10 -10 21.5 -22.5t25.5 -12.5q6 0 17 2q12 -2 22 -2q27 0 53.5 30t51.5 34q2 12 21.5 15t21.5 20 q4 -23 36 -17q-6 -18 10.5 -28.5t14.5 -18.5q8 -4 49 -47q29 -31 57 -31q16 0 37 11l58 6v6h6q6 -27 26 -70q0 -8 9 -20q6 -29 0 -47q-6 -25 -33 -25v-10q-41 -2 -84 -7t-62 -30q-6 -2 -10 -10q0 -16 5 -16.5t8 -4.5v-10q0 -6 6 -8q14 -23 41 -19q2 -6 10 -10h14 q6 -14 29 -14h35q16 -4 16 -25v-14q-10 -4 -10 -19q-2 -20 -4 -24q-14 0 -32.5 -15.5t-35.5 -15.5v-10q-20 2 -49 -5t-45 -7q-12 0 -25 4q-2 8 -12 6h-20q-2 -10 -15 -10l-20 4q-2 2 -2 6q-20 0 -43 -21l-94 2q0 12 -5 15q-4 -16 -28 -17q-43 2 -39 2q-2 8 -21.5 16.5 t-15.5 26.5l-4 64q8 0 9 18.5t30 28.5q37 12 43 23q20 12 43 55q-4 25 -45 45q2 6 -5.5 11t-9.5 7q-6 -4 -14 15q-18 6 -45 14q-23 -10 -68 -6q-51 2 -69 -2v-10h-53q-8 20 -33 34q-37 23 -39 25q2 16 -7 30.5t-7 26.5q-2 0 -5 17q-2 8 -10 8v14q18 12 37 49q12 2 22.5 22.5 t22.5 22.5q12 18 40 41t37 36.5t69 37.5q27 25 38 23q20 10 28.5 47t33.5 45v16q6 0 6 19l2 10q10 0 12 6q10 10 20.5 21.5t22.5 11.5q2 12 16.5 30.5t16.5 30.5v15q10 -4 10 10q2 12 -5 20t-7 17h-14q-12 8 -35 24q-25 -10 -70 -10q-41 2 -53 8q-14 0 -25 8q-18 12 -18 13 q-4 -4 -4 -6q-2 6 -31 6q-6 -18 -39 -17h-49q-2 4 -4 11q-12 -8 -52 -8.5t-50 -18.5q-8 23 -29 22q-6 0 -23.5 -3t-27.5 -3t-21 2q-2 12 -14 13h-18q0 6 -13.5 4t-16.5 16.5t-7 20.5q-6 59 28 73q16 18 74 19q-8 -8 4 -8q10 8 35 8q39 -2 43 -4l8 -4h15v-9q39 2 106 -12 q-6 -10 9.5 -10t45.5 -43q2 8 6 18q10 2 25 -4q4 2 4 21q10 6 29 43q74 -29 106 2l6 30q8 2 11 13q-4 18 -39 44.5t-33 57.5q6 0 6 14l2 11l6 2q-4 14 10.5 15t17.5 6t22.5 4t21.5 14q-6 -10 2 -13q8 -2 19.5 0t13.5 4v9q27 -8 37 13t18 42q10 37 10 74q0 39 -17 112.5 t-17 118.5q0 29 4 57q-12 8 -15 39v47q-4 27 -28 27q-88 27 -95 78q-10 8 -10 43q6 0 6 14v10q10 10 23 35q27 18 102 41v6h39v-6q35 2 76 -16q51 -25 70 -29q2 0 24 -14q16 -8 10 -27q16 -14 32 -54t28 -52q-4 -20 3 -37t13 -31h-2q-4 -8 -4 -53q-12 0 -12 -10v-15 q-8 -2 -6 -14v-23q-10 4 -9.5 -7t-13.5 -17q-4 -12 -5 -43t-5 -43q-8 0 -12.5 -11.5t-14.5 -35.5q-10 0 -30 -23v-16q-4 -10 -21.5 -22.5t-17.5 -24.5q0 -6 9 -18.5t24.5 -56.5t33.5 -62q10 -20 58 -21q61 -2 69 -4q0 -23 2 -25h13q-2 -29 7 -80t7 -79h12q12 -20 72 -15 q2 6 12 8l14 -2v-2q6 -4 50 -4q0 -4 2 -10q20 8 59 23q8 0 19.5 -8.5t21.5 -8.5q6 0 12 2q18 -14 45 -53q12 -10 13 -45zM678 328v-15q-10 6 -10 -10v-14q-16 4 -4 39h14zM670 651l-2 8l2 -18v10z" />
<glyph unicode="&#xbd;" d="M1223 819v-20q-8 2 -11 -4q-4 -6 0 -13q0 -16 2 -18h9q4 -14 4 -25q0 -23 -31 -34q-39 -14 -45 -27q-31 0 -61 -2q-37 0 -48 -19q-14 -8 -28 -4q-18 4 -23 23q-31 -4 -104 2q-70 6 -105 -4l-2 -10q-12 4 -18 -4.5t-12 -16.5q12 -27 49 -47q31 -16 61 -35q0 -25 17 -55 q25 -49 24 -49q-4 -16 5 -40t5 -44q-2 -4 -11 -17.5t-9 -21.5q0 -6 4 -10.5t4 -24.5q-10 -12 -20 -37q-6 -78 -29 -104v-15q-29 -29 -43 -55q-51 -4 -98 -27q-18 -14 -68 -28q2 -12 -9 -18.5t-11 -14.5q-47 -4 -99 -41q2 -6 -13 -10t-11 -19q6 -14 39 -14q2 2 2 10h12 q-2 -39 27 -53q16 6 33.5 13.5t21.5 21.5q8 -2 14 -2q8 0 21.5 5t19.5 5q10 0 14 -16q18 2 35 21.5t29 23.5q29 27 68 90q16 -4 34 10q27 -78 52 -197q-20 -18 -43 -67q-6 0 -7 -14v-11q-29 2 -57.5 -24.5t-48.5 -26.5q-6 -18 -35 -26.5t-35 -18.5q-41 -2 -80 -2 q-55 0 -67 29h-21q-6 6 -30.5 10t-28.5 10q-18 2 -55 11.5t-58 9.5q-18 0 -37 -9h-14q-2 2 -2 9h-14q0 20 -4 24h-4q8 10 -3 12q-16 20 -51 62h2q2 16 9 51q8 2 8 14q-2 18 0 21h2q4 20 8 40.5t25 22.5q4 18 20 31.5t33 26.5q55 25 74 73q2 -2 20 17q35 4 51 8q27 6 41 23 q16 2 42 26.5t51.5 26.5t37.5 6q20 6 35.5 20.5t40.5 53.5h4q18 90 -27 127q0 4 -10 24q-6 0 -13 10.5t-15 10.5q-4 0 -11 -2q6 10 -10 10h-14q-4 8 -20.5 8t-20.5 2q0 10 -4 15q-4 -2 -4 -15l-97 2q-2 8 -32 25l-23 -6q-14 -2 -14 -11q0 -6 2 -12q-12 -2 -21.5 -19.5 t-17.5 -21.5q2 -10 -5 -18t-7 -15q0 -4 2 -8q-10 0 -11 -14q-16 -10 -32 -41q-6 -8 -25 -8q-27 2 -31 2q-12 2 -12 20v27q-2 14 -14 14v58q6 -4 6 10v12q2 8 22.5 24.5t18.5 39.5q14 4 30.5 30.5t34.5 30.5v10q25 0 35 10v9q0 -8 9.5 -14.5t19.5 -4.5q0 -14 4 -14q2 8 20 20 q10 0 19 11v14h2q4 6 4 43q-20 16 -41 59l-4 4q-23 -23 -66 -59v4q-53 8 -63 -4l-14 8l-115 2q-70 2 -109 -10q-72 0 -131 47v45q10 -10 10 10q6 12 25 35q76 39 127 33v-4q18 -8 41 -4q35 8 39 8q12 0 24 -8h121q-2 -12 11 -12q23 -14 69 -31h15q0 -4 8 -12q12 -2 19 11 t16 13q0 16 14 35q8 -2 35 25q-20 18 -41 53q-80 37 -99 98q6 8 17 10q18 6 20 6q12 -6 21 15v6q14 0 30 8q25 10 33 12l4 148h4q2 12 2 22q0 16 -12 49t-10 58q4 2 18 31q4 20 4 39q0 29 -12 78t-12 77q0 16 2 33q-14 31 -35 25q-20 6 -49 28q-14 20 -21 64q6 10 30 24.5 t43.5 24.5t51.5 8h56q2 -6 11 -6t17.5 -11.5t16.5 -11.5q4 0 10 4q14 -25 35 -18q0 -39 14 -88q25 -78 25 -84h8l-2 -76q-27 -33 -35 -59q-2 -10 6 -29l4 -76q-10 -4 -10 -14v-20q-2 -10 -12 -11q-23 -45 -23 -51q0 -10 8 -18v-15h-4q-6 -10 -6 -24q0 -10 5 -27.5t5 -25.5 q0 -6 -2 -11q-4 -37 25 -55q6 -2 22.5 -13.5t26.5 -11.5t21 11q10 -6 21 -12.5t24 -2.5q4 -14 30.5 -16t32.5 -12q8 -20 6 -60q-2 -57 -2 -63q18 -25 64 -25q37 2 76 2q-2 -10 10 -10q14 -2 22 11.5t21 8.5q49 8 143 7q0 -12 14 -13h11q2 -8 13 -9t12 -7t10 -33h6zM776 887 h-14q-2 0 -2 10l-84 8q14 -8 14 -35q8 2 16.5 -7t10.5 -9q4 0 20.5 10t32.5 6v15q2 2 6 2zM696 899v-8h-6v8h6z" />
<glyph unicode="&#xbe;" d="M1239 725q-27 -12 -35 -18q-16 -14 -22 -31q-16 -4 -33 -8q-14 -2 -29 8h-35q-12 16 -61 24q0 6 -14 7q-25 16 -51.5 35.5t-57.5 15.5q-6 4 -10 18q25 -14 39 4v6q29 0 35 15v10q33 10 88 8q23 -4 45 3t43 12h20q0 -6 4 -9h13q12 2 14 2q2 -2 13.5 -10t11.5 -18 q18 2 22 -13q4 -8 1 -30.5t-1 -30.5zM981 1155q-23 2 -23 -12q-4 -16 15 -41h6q-10 -10 -35 -53q-18 -35 -45 -43q0 -6 -8 -13q-6 -4 0 -10q-14 2 -33 -16l-4 -31q-29 -2 -61.5 -39t-61.5 -37q-2 0 -20 -8q-12 -4 -25 0q-16 8 -41 20q-10 -12 -22 -12q-10 0 -27.5 7t-23 8.5 t-7.5 7.5q-2 -2 -8 -4v-13q-14 4 -17 -10t-5 -14q0 -27 30 -29q18 -2 47 4q4 2 4 6q8 0 38 -5t44 -5q29 0 45 12l35 6q29 -23 53 -18q2 -8 9 -12q14 -8 39 -15q4 -12 4 -22q0 -27 -40 -40t-44 -32q-4 10 -19 10h-22q0 6 -13 7h-10q0 10 -10 10h-8l-6 6q-104 -18 -109 -18v-2 h-10q0 2 -2 6q-2 -8 -17 -19q-10 0 -10 -4v-6q-2 12 -18 12l-25 -2q-16 -29 -41 -22q-14 2 -16 -2v-11q-33 6 -47 -8q-14 14 -21 10q2 10 -9 14.5t-11 10.5h-10q2 4 -7 12q-4 2 -10 -2q-4 -12 -28.5 -27.5t-30.5 -29.5q-16 0 -39 -13.5t-39 -13.5q-10 0 -21 4q-2 0 -4 7 q-10 -8 -34 -7h-41q-45 31 -72 27q-10 -4 -15.5 9.5t-17.5 13.5q-8 8 -4 28q4 27 2 37q14 -2 19.5 18.5t21.5 16.5q4 12 22.5 18t22.5 13q41 4 62 24q68 20 86 37q27 0 51 -25q35 -37 39 -38q0 -10 16 -13.5t18 -9.5q2 2 3 10h14q-2 -6 2 -10q2 4 11 13.5t5 21.5l9 12 q8 12 16 12q4 0 10 -4l10 23q-39 12 -84 96q-2 4 -2 31q0 18 -10 20v54q10 6 24.5 33.5t37.5 31.5v10h51q4 -8 35 -16q25 -8 26 -27q14 -16 20.5 -56t16.5 -54q4 -4 23 -4v-6q12 -4 26 -5q8 0 39 9q25 6 45 2q6 8 28.5 16t29.5 21q6 4 32 2q20 -2 25 10q23 0 33 12v12 q0 -2 8 7v24q8 -2 12 2t2 12l12 15q13 14 7 28q0 16 -7 17h-12q0 10 -6 10t-7 11.5t-5 13.5q-4 14 -27 16h-37q-12 2 -16 10q-12 -2 -19.5 11.5t-21.5 7.5q-2 10 -16.5 10t-18.5 4q-8 -4 -65 -4q2 6 2 10t-7.5 11.5t-5.5 17.5q-10 -2 -20 13.5t-27 12.5q-2 18 16.5 38 t20.5 34q8 -4 12 6.5t11 10.5v6q70 4 92 30q0 43 -19 43q-16 8 -39 33q-4 -12 -26.5 -19t-20.5 -28q-14 0 -16 -2v-10q-16 4 -24.5 -10.5t-16.5 -14.5q-27 4 -70 -6h-6q0 27 -33.5 49.5t-29.5 52.5q-2 2 -2 19h2q-2 37 26 65q37 39 43 56q41 6 92 37q10 0 97 8q61 6 106 2 q20 -31 62 -51q4 -35 41 -52q2 -6 30 -34q18 -20 17 -43l4 -140h-6q-16 -82 24 -133q0 -16 2 -18h6q-2 -8 -2 -15q0 -12 13.5 -24t13.5 -21q0 -6 -2 -14zM745 477v-49q-10 0 -10 -4q0 -2 10 -2q2 -8 3 -14q0 -20 -31 -27q-10 -6 -15.5 2t-7.5 6q-2 6 -2 10q0 8 12.5 19.5 t12.5 19.5q0 10 -10 21q-4 0 -2 8v12q-2 4 -11 2q0 18 -8 33h-4q14 29 23 27q-2 -16 17 -26.5t19 -22.5q0 -6 -2 -15h6zM905 -221q-20 -10 -76 -23l-65 -4v4q-61 14 -107 -18v4q-70 8 -77 -10q0 8 -13 4q-6 2 -14 -2v-10q-4 10 -31.5 22t-34.5 33h-6v18q12 6 17.5 31 t11.5 33q16 23 64.5 32t64.5 29q-6 18 -13.5 40t-27.5 20q-4 8 -16 8q-16 -2 -19 0q-14 -10 -58 -7t-59 -12q-8 2 -14 2q-16 0 -35.5 -16t-27.5 -16q-10 0 -21 24q-35 25 -63 21q2 2 -4 6h-9q-10 23 -19 47t-5 51h6l4 68q16 0 16 6q8 14 25 49q0 6 8 15.5t6 19.5q6 -2 5 8 t10.5 19.5t9.5 19.5q53 39 90 53q16 10 34.5 41t35.5 41v10l47 -2v-8q20 0 55 -8l-2 -57q-43 -27 -47 -80q-6 -4 -6 -11l-2 -10h-2q-2 -14 -6 -37q-6 0 -9 -12v-14q-6 8 -6 -2q2 -2 15.5 -16.5t19.5 -14.5t10 4q47 -4 76 35q6 12 38 26.5t36 38.5q10 0 10 4q0 12 -4 15h-6 v33q10 -4 14 8t6 12q0 -16 20.5 -36.5t20.5 -41.5q0 -6 -2 -16q31 -84 113 -115q8 -8 6 -29v-32q-27 -18 -62 -72q-8 0 -8 -2q2 -12 -9 -15t-11 -5q-6 -6 -2 -13q8 -6 8 -8l12 -2q6 -49 45 -63h13q0 -2 10 -27q6 -16 2 -33q-2 0 -6 -4q4 -18 20 -51zM930 1147q0 10 -12 29 q-8 -6 -9 -15q0 -6 6.5 -19.5t4.5 -19.5v13q0 16 10 12z" />
<glyph unicode="&#xbf;" d="M168 119h4q2 23 18.5 60.5t16.5 64.5q0 12 -4 24q6 2 8 11q-4 10 8 14t12 8q4 18 17.5 34.5t15.5 24.5q10 0 10 7q18 14 48 49q10 6 26 28q14 16 31 17q8 0 16 -2v6h15q0 -2 2 -10h14q0 -14 2 -17q18 27 47 49q4 4 14 5h13q6 2 4 12q14 0 17 16.5t20 14.5q4 49 4 143 q2 0 12 16q8 10 16 11q0 14 21.5 21t21.5 24h13q2 -4 8 -7h12q-2 -14 14.5 -14t18.5 -4q-4 -14 -4 -29q0 -18 14.5 -51t12.5 -55q-10 -2 -11 -15v-20q-14 -14 -30 -49q-53 -53 -95 -60q-14 -10 -86 -24q-57 -12 -71 -49q2 -14 -14.5 -23.5t-18.5 -19.5v-60h-10 q-6 -27 -2 -53h10q0 -80 0 -70q2 -37 22 -55q-4 -33 35 -48t41 -38h6q6 -20 47 -37q8 -14 25 -14q10 0 29.5 6t25.5 6h13v-4q14 -6 26 -6t34 10t39 9t38 20q12 -4 15 7t5 24q4 18 -10 49l-14 14t-19 6q-18 70 -18 66q-10 10 -12 45q6 0 6 2q-2 10 14 14t16 19q14 -4 18.5 13 t10.5 17q6 16 30.5 28.5t26.5 27.5h97q10 -25 59 -56q43 -25 43 -63h10v-37q-14 8 -14 -6t4 -16h10q0 -18 2 -21h9q0 -10 14 -43v-14q-6 -6 -13.5 -15.5t-2.5 -23.5q-10 0 -11 -4v-6q-6 2 -12 -3q-4 -4 0 -10v-10q-10 -4 -9 -18.5t-5 -18.5q-31 -10 -88 -82q-39 -6 -58 -26 q-20 -10 -98 -25q-63 -14 -88 -39q-68 -10 -133 0q-2 6 -10 8h-13q0 10 -14 11h-10q-2 4 -13 6h-10v4q-14 6 -69 -4v4q-25 6 -76 20q-72 55 -103 119q-16 8 -22 47t-27 45q-10 8 -10 31v37zM510 971q0 -4 -6 59q-2 33 12 60q18 16 43 53q18 4 24.5 6t8.5 14l72 -2 q2 -8 11 -9t19.5 -10t18.5 -7q2 -4 24 -23q16 -12 15 -31h6v-30h-6q-12 -35 -2 -70h8q-2 -12 -19.5 -28.5t-21.5 -30.5q-27 -10 -90 -25v-10q-10 2 -37 2q-8 23 -39 35q-16 10 -33 47h-8z" />
</font>
</defs>
</svg>
